<svg width="40" height="51" viewBox="0 0 40 51" fill="none" xmlns="http://www.w3.org/2000/svg">
<metadata><?xpacket begin="﻿" id="W5M0MpCehiHzreSzNTczkc9d"?>
<x:xmpmeta xmlns:x="adobe:ns:meta/" x:xmptk="Adobe XMP Core 9.1-c002 165.59ab891, 2024/09/18-09:57:10        ">
   <rdf:RDF xmlns:rdf="http://www.w3.org/1999/02/22-rdf-syntax-ns#">
      <rdf:Description rdf:about=""
            xmlns:xmp="http://ns.adobe.com/xap/1.0/"
            xmlns:xmpMM="http://ns.adobe.com/xap/1.0/mm/"
            xmlns:stEvt="http://ns.adobe.com/xap/1.0/sType/ResourceEvent#">
         <xmp:Rating>5</xmp:Rating>
         <xmp:MetadataDate>2025-02-19T09:50:19Z</xmp:MetadataDate>
         <xmpMM:InstanceID>xmp.iid:d3de77f7-e7ff-0f4e-a495-aa3ffbabbb3b</xmpMM:InstanceID>
         <xmpMM:DocumentID>xmp.did:d3de77f7-e7ff-0f4e-a495-aa3ffbabbb3b</xmpMM:DocumentID>
         <xmpMM:OriginalDocumentID>xmp.did:d3de77f7-e7ff-0f4e-a495-aa3ffbabbb3b</xmpMM:OriginalDocumentID>
         <xmpMM:History>
            <rdf:Seq>
               <rdf:li>
                  <rdf:Description>
                     <stEvt:action>saved</stEvt:action>
                     <stEvt:instanceID>xmp.iid:d3de77f7-e7ff-0f4e-a495-aa3ffbabbb3b</stEvt:instanceID>
                     <stEvt:when>2025-02-19T09:50:19Z</stEvt:when>
                     <stEvt:softwareAgent>Adobe Bridge (Beta)</stEvt:softwareAgent>
                     <stEvt:changed>/metadata</stEvt:changed>
                  </rdf:Description>
               </rdf:li>
            </rdf:Seq>
         </xmpMM:History>
      </rdf:Description>
   </rdf:RDF>
</x:xmpmeta>
                                                                                                    
                                                                                                    
                                                                                                    
                                                                                                    
                                                                                                    
                                                                                                    
                                                                                                    
                                                                                                    
                                                                                                    
                                                                                                    
                                                                                                    
                                                                                                    
                                                                                                    
                                                                                                    
                                                                                                    
                                                                                                    
                                                                                                    
                                                                                                    
                                                                                                    
                                                                                                    
                           
<?xpacket end="w"?></metadata>
<path fill-rule="evenodd" clip-rule="evenodd" d="M39 19.7826C39 32.3043 20 49 20 49C20 49 1 32.3043 1 19.7826C1 9.40926 9.50659 1 20 1C30.4934 1 39 9.40926 39 19.7826ZM20 25.7505C23.352 25.7505 26.0694 23.0642 26.0694 19.7505C26.0694 16.4368 23.352 13.7505 20 13.7505C16.6479 13.7505 13.9305 16.4368 13.9305 19.7505C13.9305 23.0642 16.6479 25.7505 20 25.7505Z" fill="#4A88D9"/>
<path d="M20 49L19.3399 49.7512L20 50.3312L20.6601 49.7512L20 49ZM20 49C20.6601 49.7512 20.6603 49.751 20.6606 49.7508C20.6608 49.7506 20.6611 49.7503 20.6615 49.7499C20.6623 49.7493 20.6633 49.7484 20.6646 49.7472C20.6673 49.7448 20.6711 49.7415 20.6761 49.7371C20.6859 49.7284 20.7003 49.7156 20.7191 49.699C20.7565 49.6656 20.8114 49.6166 20.8826 49.5525C21.025 49.4243 21.2325 49.2357 21.4958 48.992C22.0223 48.5045 22.7725 47.7958 23.6718 46.9068C25.4692 45.13 27.8684 42.6267 30.2704 39.7246C32.6697 36.8256 35.089 33.5081 36.9128 30.1025C38.7296 26.7101 40 23.1486 40 19.7826H38C38 22.6775 36.8954 25.8986 35.1497 29.1583C33.411 32.405 31.0803 35.6091 28.7296 38.4494C26.3816 41.2863 24.0308 43.7396 22.2657 45.4845C21.3838 46.3563 20.6496 47.0498 20.1371 47.5243C19.8808 47.7616 19.6801 47.9439 19.5441 48.0664C19.4762 48.1276 19.4244 48.1739 19.39 48.2045C19.3727 48.2198 19.3599 48.2312 19.3515 48.2386C19.3473 48.2423 19.3442 48.245 19.3423 48.2467C19.3413 48.2476 19.3406 48.2482 19.3402 48.2485C19.34 48.2487 19.34 48.2488 19.3399 48.2489C19.3399 48.2489 19.3399 48.2488 20 49ZM0 19.7826C0 23.1486 1.27044 26.7101 3.08721 30.1025C4.911 33.5081 7.33035 36.8256 9.72963 39.7246C12.1316 42.6267 14.5308 45.13 16.3282 46.9068C17.2275 47.7958 17.9777 48.5045 18.5042 48.992C18.7675 49.2357 18.975 49.4243 19.1174 49.5525C19.1886 49.6166 19.2435 49.6656 19.2809 49.699C19.2997 49.7156 19.3141 49.7284 19.3239 49.7371C19.3289 49.7415 19.3327 49.7448 19.3354 49.7472C19.3367 49.7484 19.3377 49.7493 19.3385 49.7499C19.3389 49.7503 19.3392 49.7506 19.3394 49.7508C19.3397 49.751 19.3399 49.7512 20 49C20.6601 48.2488 20.6602 48.2489 20.6601 48.2489C20.66 48.2488 20.66 48.2487 20.6598 48.2485C20.6594 48.2482 20.6587 48.2476 20.6577 48.2467C20.6558 48.245 20.6527 48.2423 20.6485 48.2386C20.6401 48.2312 20.6273 48.2198 20.6101 48.2045C20.5756 48.1739 20.5238 48.1276 20.4559 48.0664C20.3199 47.9439 20.1192 47.7616 19.863 47.5243C19.3504 47.0498 18.6162 46.3563 17.7343 45.4845C15.9692 43.7396 13.6184 41.2863 11.2704 38.4494C8.91965 35.6091 6.589 32.405 4.85029 29.1583C3.10456 25.8986 2 22.6775 2 19.7826H0ZM20 0C8.96518 0 0 8.84616 0 19.7826H2C2 9.97236 10.048 2 20 2V0ZM40 19.7826C40 8.84616 31.0348 0 20 0V2C29.952 2 38 9.97236 38 19.7826H40ZM25.0694 19.7505C25.0694 22.5011 22.8106 24.7505 20 24.7505V26.7505C23.8934 26.7505 27.0694 23.6273 27.0694 19.7505H25.0694ZM20 14.7505C22.8106 14.7505 25.0694 16.9999 25.0694 19.7505H27.0694C27.0694 15.8737 23.8934 12.7505 20 12.7505V14.7505ZM14.9305 19.7505C14.9305 16.9999 17.1893 14.7505 20 14.7505V12.7505C16.1065 12.7505 12.9305 15.8737 12.9305 19.7505H14.9305ZM20 24.7505C17.1893 24.7505 14.9305 22.5011 14.9305 19.7505H12.9305C12.9305 23.6273 16.1065 26.7505 20 26.7505V24.7505Z" fill="#FECC11"/>
</svg>
