<svg width="139" height="115" viewBox="0 0 139 115" fill="none" xmlns="http://www.w3.org/2000/svg">
<g filter="url(#filter0_d_475_6902)">
<path fill-rule="evenodd" clip-rule="evenodd" d="M80.5 68.4783C80.5 84.1304 56.75 105 56.75 105C56.75 105 33 84.1304 33 68.4783C33 55.5116 43.6332 45 56.75 45C69.8668 45 80.5 55.5116 80.5 68.4783ZM56.75 75.9381C60.9401 75.9381 64.3368 72.5802 64.3368 68.4381C64.3368 64.296 60.9401 60.9381 56.75 60.9381C52.5599 60.9381 49.1632 64.296 49.1632 68.4381C49.1632 72.5802 52.5599 75.9381 56.75 75.9381Z" fill="#F22222"/>
<path d="M56.75 105L56.0899 105.751L56.75 106.331L57.4101 105.751L56.75 105ZM56.75 105C57.4101 105.751 57.4103 105.751 57.4106 105.751C57.4109 105.751 57.4113 105.75 57.4117 105.75C57.4126 105.749 57.4139 105.748 57.4155 105.746C57.4188 105.744 57.4234 105.739 57.4295 105.734C57.4417 105.723 57.4595 105.708 57.4827 105.687C57.5291 105.646 57.5974 105.585 57.686 105.505C57.8631 105.345 58.1216 105.11 58.4499 104.806C59.1063 104.199 60.042 103.315 61.164 102.206C63.4067 99.9887 66.3996 96.8659 69.3954 93.2463C72.3884 89.63 75.4015 85.4972 77.6706 81.2601C79.9327 77.0362 81.5 72.6269 81.5 68.4783H79.5C79.5 72.1557 78.0986 76.2246 75.9075 80.3159C73.7235 84.3941 70.7991 88.4135 67.8546 91.9711C64.9129 95.5254 61.9683 98.5983 59.7579 100.783C58.6533 101.875 57.7336 102.744 57.0912 103.339C56.77 103.636 56.5182 103.865 56.3475 104.019C56.2621 104.096 56.197 104.154 56.1536 104.192C56.1319 104.212 56.1156 104.226 56.1049 104.236C56.0996 104.24 56.0957 104.244 56.0931 104.246C56.0919 104.247 56.091 104.248 56.0905 104.248C56.0902 104.249 56.09 104.249 56.0899 104.249C56.0899 104.249 56.0899 104.249 56.75 105ZM32 68.4783C32 72.6269 33.5673 77.0362 35.8294 81.2601C38.0985 85.4972 41.1116 89.63 44.1046 93.2463C47.1004 96.8659 50.0933 99.9887 52.336 102.206C53.458 103.315 54.3937 104.199 55.0501 104.806C55.3784 105.11 55.6369 105.345 55.814 105.505C55.9026 105.585 55.9709 105.646 56.0173 105.687C56.0405 105.708 56.0583 105.723 56.0705 105.734C56.0766 105.739 56.0812 105.744 56.0845 105.746C56.0861 105.748 56.0874 105.749 56.0883 105.75C56.0887 105.75 56.0891 105.751 56.0894 105.751C56.0897 105.751 56.0899 105.751 56.75 105C57.4101 104.249 57.4101 104.249 57.4101 104.249C57.41 104.249 57.4098 104.249 57.4095 104.248C57.409 104.248 57.4081 104.247 57.4069 104.246C57.4043 104.244 57.4004 104.24 57.3951 104.236C57.3844 104.226 57.3681 104.212 57.3464 104.192C57.303 104.154 57.2379 104.096 57.1525 104.019C56.9818 103.865 56.73 103.636 56.4088 103.339C55.7664 102.744 54.8467 101.875 53.7421 100.783C51.5317 98.5983 48.5871 95.5254 45.6454 91.9711C42.7009 88.4135 39.7765 84.3941 37.5925 80.3159C35.4014 76.2246 34 72.1557 34 68.4783H32ZM56.75 44C43.0918 44 32 54.9485 32 68.4783H34C34 56.0747 44.1746 46 56.75 46V44ZM81.5 68.4783C81.5 54.9485 70.4082 44 56.75 44V46C69.3254 46 79.5 56.0747 79.5 68.4783H81.5ZM63.3368 68.4381C63.3368 72.0171 60.3986 74.9381 56.75 74.9381V76.9381C61.4815 76.9381 65.3368 73.1433 65.3368 68.4381H63.3368ZM56.75 61.9381C60.3986 61.9381 63.3368 64.8591 63.3368 68.4381H65.3368C65.3368 63.7329 61.4815 59.9381 56.75 59.9381V61.9381ZM50.1632 68.4381C50.1632 64.8591 53.1013 61.9381 56.75 61.9381V59.9381C52.0185 59.9381 48.1632 63.7329 48.1632 68.4381H50.1632ZM56.75 74.9381C53.1013 74.9381 50.1632 72.0171 50.1632 68.4381H48.1632C48.1632 73.1433 52.0185 76.9381 56.75 76.9381V74.9381Z" fill="#FECC11"/>
</g>
<g filter="url(#filter1_d_475_6902)">
<path d="M95.3664 66.7871C95.1561 66.9495 95.0191 67.189 94.9856 67.4526C94.9522 67.7162 95.025 67.9823 95.188 68.1921L108.835 85.7541C109.083 86.0732 109.498 86.2117 109.888 86.105C110.278 85.9983 110.565 85.6674 110.616 85.2665L111.621 77.3568L130.717 79.7815C131.265 79.8511 131.766 79.4634 131.835 78.9155L133.531 65.5629C133.6 65.015 133.212 64.5144 132.665 64.4449L113.568 62.0201L114.572 54.1104C114.623 53.7094 114.428 53.3172 114.077 53.1165C113.726 52.9157 113.289 52.9459 112.969 53.1929L95.3664 66.7871Z" fill="#FECC11" stroke="#4A88D9" stroke-width="2" stroke-linejoin="round"/>
</g>
<g filter="url(#filter2_d_475_6902)">
<path d="M34.849 38.8014C35.1134 38.8282 35.3776 38.7487 35.5833 38.5805C35.7889 38.4122 35.9192 38.169 35.9452 37.9045L38.1254 15.7709C38.165 15.3687 37.9586 14.9821 37.6022 14.7913C37.2459 14.6005 36.8098 14.643 36.497 14.8989L30.326 19.9478L18.1362 5.0491C17.7865 4.62165 17.1565 4.55865 16.729 4.90837L6.31168 13.4316C5.88423 13.7813 5.82123 14.4113 6.17095 14.8388L18.3607 29.7375L12.1898 34.7864C11.8769 35.0424 11.7489 35.4615 11.8654 35.8485C11.9819 36.2356 12.3199 36.5145 12.722 36.5553L34.849 38.8014Z" fill="#FECC11" stroke="#4A88D9" stroke-width="2" stroke-linejoin="round"/>
</g>
<g filter="url(#filter3_d_475_6902)">
<path d="M72.2949 33.0963C72.3752 33.3497 72.5529 33.5606 72.789 33.6827C73.025 33.8047 73.2999 33.8278 73.553 33.7468L89.1164 28.7664C89.5014 28.6432 89.7743 28.3004 89.8081 27.8976C89.8419 27.4949 89.63 27.1113 89.2709 26.9257L84.3028 24.357L90.6767 12.0291C90.9304 11.5385 90.7383 10.9352 90.2477 10.6816L81.4631 6.13964C80.9725 5.88599 80.3692 6.07807 80.1156 6.56866L73.7416 18.8966L68.7735 16.3279C68.4145 16.1423 67.979 16.191 67.6699 16.4515C67.3608 16.7119 67.2389 17.1328 67.3609 17.5182L72.2949 33.0963Z" fill="#FECC11" stroke="#4A88D9" stroke-width="2" stroke-linejoin="round"/>
</g>
<defs>
<filter id="filter0_d_475_6902" x="28" y="44" width="57.5" height="70.3311" filterUnits="userSpaceOnUse" color-interpolation-filters="sRGB">
<feFlood flood-opacity="0" result="BackgroundImageFix"/>
<feColorMatrix in="SourceAlpha" type="matrix" values="0 0 0 0 0 0 0 0 0 0 0 0 0 0 0 0 0 0 127 0" result="hardAlpha"/>
<feOffset dy="4"/>
<feGaussianBlur stdDeviation="2"/>
<feComposite in2="hardAlpha" operator="out"/>
<feColorMatrix type="matrix" values="0 0 0 0 0 0 0 0 0 0 0 0 0 0 0 0 0 0 0.1 0"/>
<feBlend mode="normal" in2="BackgroundImageFix" result="effect1_dropShadow_475_6902"/>
<feBlend mode="normal" in="SourceGraphic" in2="effect1_dropShadow_475_6902" result="shape"/>
</filter>
<filter id="filter1_d_475_6902" x="89.9775" y="51.9844" width="48.5615" height="43.707" filterUnits="userSpaceOnUse" color-interpolation-filters="sRGB">
<feFlood flood-opacity="0" result="BackgroundImageFix"/>
<feColorMatrix in="SourceAlpha" type="matrix" values="0 0 0 0 0 0 0 0 0 0 0 0 0 0 0 0 0 0 127 0" result="hardAlpha"/>
<feOffset dy="4"/>
<feGaussianBlur stdDeviation="2"/>
<feComposite in2="hardAlpha" operator="out"/>
<feColorMatrix type="matrix" values="0 0 0 0 0 0 0 0 0 0 0 0 0 0 0 0 0 0 0.25 0"/>
<feBlend mode="normal" in2="BackgroundImageFix" result="effect1_dropShadow_475_6902"/>
<feBlend mode="normal" in="SourceGraphic" in2="effect1_dropShadow_475_6902" result="shape"/>
</filter>
<filter id="filter2_d_475_6902" x="-4" y="0" width="55.1035" height="55.75" filterUnits="userSpaceOnUse" color-interpolation-filters="sRGB">
<feFlood flood-opacity="0" result="BackgroundImageFix"/>
<feColorMatrix in="SourceAlpha" type="matrix" values="0 0 0 0 0 0 0 0 0 0 0 0 0 0 0 0 0 0 127 0" result="hardAlpha"/>
<feOffset dy="4"/>
<feGaussianBlur stdDeviation="2"/>
<feComposite in2="hardAlpha" operator="out"/>
<feColorMatrix type="matrix" values="0 0 0 0 0 0 0 0 0 0 0 0 0 0 0 0 0 0 0.25 0"/>
<feBlend mode="normal" in2="BackgroundImageFix" result="effect1_dropShadow_475_6902"/>
<feBlend mode="normal" in="SourceGraphic" in2="effect1_dropShadow_475_6902" result="shape"/>
</filter>
<filter id="filter3_d_475_6902" x="59" y="4" width="40.6445" height="42.0938" filterUnits="userSpaceOnUse" color-interpolation-filters="sRGB">
<feFlood flood-opacity="0" result="BackgroundImageFix"/>
<feColorMatrix in="SourceAlpha" type="matrix" values="0 0 0 0 0 0 0 0 0 0 0 0 0 0 0 0 0 0 127 0" result="hardAlpha"/>
<feOffset dy="4"/>
<feGaussianBlur stdDeviation="2"/>
<feComposite in2="hardAlpha" operator="out"/>
<feColorMatrix type="matrix" values="0 0 0 0 0 0 0 0 0 0 0 0 0 0 0 0 0 0 0.25 0"/>
<feBlend mode="normal" in2="BackgroundImageFix" result="effect1_dropShadow_475_6902"/>
<feBlend mode="normal" in="SourceGraphic" in2="effect1_dropShadow_475_6902" result="shape"/>
</filter>
</defs>
</svg>
