<svg width="48" height="59" viewBox="0 0 48 59" fill="none" xmlns="http://www.w3.org/2000/svg">
<g filter="url(#filter0_d_782_13639)">
<path fill-rule="evenodd" clip-rule="evenodd" d="M43 19.7826C43 32.3043 24 49 24 49C24 49 5 32.3043 5 19.7826C5 9.40926 13.5066 1 24 1C34.4934 1 43 9.40926 43 19.7826ZM24 25.7505C27.352 25.7505 30.0694 23.0642 30.0694 19.7505C30.0694 16.4368 27.352 13.7505 24 13.7505C20.6479 13.7505 17.9305 16.4368 17.9305 19.7505C17.9305 23.0642 20.6479 25.7505 24 25.7505Z" fill="#F2F2F2"/>
<path d="M24 49L23.3399 49.7512L24 50.3312L24.6601 49.7512L24 49ZM24 49C24.6601 49.7512 24.6603 49.751 24.6606 49.7508C24.6608 49.7506 24.6611 49.7503 24.6615 49.7499C24.6623 49.7493 24.6633 49.7484 24.6646 49.7472C24.6673 49.7448 24.6711 49.7415 24.6761 49.7371C24.6859 49.7284 24.7003 49.7156 24.7191 49.699C24.7565 49.6656 24.8114 49.6166 24.8826 49.5525C25.025 49.4243 25.2325 49.2357 25.4958 48.992C26.0223 48.5045 26.7725 47.7958 27.6718 46.9068C29.4692 45.13 31.8684 42.6267 34.2704 39.7246C36.6697 36.8256 39.089 33.5081 40.9128 30.1025C42.7296 26.7101 44 23.1486 44 19.7826H42C42 22.6775 40.8954 25.8986 39.1497 29.1583C37.411 32.405 35.0803 35.6091 32.7296 38.4494C30.3816 41.2863 28.0308 43.7396 26.2657 45.4845C25.3838 46.3563 24.6496 47.0498 24.1371 47.5243C23.8808 47.7616 23.6801 47.9439 23.5441 48.0664C23.4762 48.1276 23.4244 48.1739 23.3899 48.2045C23.3727 48.2198 23.3599 48.2312 23.3515 48.2386C23.3473 48.2423 23.3442 48.245 23.3423 48.2467C23.3413 48.2476 23.3406 48.2482 23.3402 48.2485C23.34 48.2487 23.34 48.2488 23.3399 48.2489C23.3399 48.2489 23.3399 48.2488 24 49ZM4 19.7826C4 23.1486 5.27044 26.7101 7.08721 30.1025C8.911 33.5081 11.3303 36.8256 13.7296 39.7246C16.1316 42.6267 18.5308 45.13 20.3282 46.9068C21.2275 47.7958 21.9777 48.5045 22.5042 48.992C22.7675 49.2357 22.975 49.4243 23.1174 49.5525C23.1886 49.6166 23.2435 49.6656 23.2809 49.699C23.2997 49.7156 23.3141 49.7284 23.3239 49.7371C23.3289 49.7415 23.3327 49.7448 23.3354 49.7472C23.3367 49.7484 23.3377 49.7493 23.3385 49.7499C23.3389 49.7503 23.3392 49.7506 23.3394 49.7508C23.3397 49.751 23.3399 49.7512 24 49C24.6601 48.2488 24.6601 48.2489 24.6601 48.2489C24.66 48.2488 24.66 48.2487 24.6598 48.2485C24.6594 48.2482 24.6587 48.2476 24.6577 48.2467C24.6558 48.245 24.6527 48.2423 24.6485 48.2386C24.6401 48.2312 24.6273 48.2198 24.6101 48.2045C24.5756 48.1739 24.5238 48.1276 24.4559 48.0664C24.3199 47.9439 24.1192 47.7616 23.8629 47.5243C23.3504 47.0498 22.6162 46.3563 21.7343 45.4845C19.9692 43.7396 17.6184 41.2863 15.2704 38.4494C12.9197 35.6091 10.589 32.405 8.85029 29.1583C7.10456 25.8986 6 22.6775 6 19.7826H4ZM24 0C12.9652 0 4 8.84616 4 19.7826H6C6 9.97236 14.048 2 24 2V0ZM44 19.7826C44 8.84616 35.0348 0 24 0V2C33.952 2 42 9.97236 42 19.7826H44ZM29.0694 19.7505C29.0694 22.5011 26.8106 24.7505 24 24.7505V26.7505C27.8934 26.7505 31.0694 23.6273 31.0694 19.7505H29.0694ZM24 14.7505C26.8106 14.7505 29.0694 16.9999 29.0694 19.7505H31.0694C31.0694 15.8737 27.8934 12.7505 24 12.7505V14.7505ZM18.9305 19.7505C18.9305 16.9999 21.1893 14.7505 24 14.7505V12.7505C20.1065 12.7505 16.9305 15.8737 16.9305 19.7505H18.9305ZM24 24.7505C21.1893 24.7505 18.9305 22.5011 18.9305 19.7505H16.9305C16.9305 23.6273 20.1065 26.7505 24 26.7505V24.7505Z" fill="#27498C"/>
</g>
<circle cx="24" cy="19" r="17" fill="#F2F2F2"/>
<path d="M25.6016 8.20117V30.0232H23.5508V8.20117H25.6016Z" fill="#27498C"/>
<path d="M17.0805 11.596C18.078 11.6013 18.8832 10.7963 18.8779 9.7984C18.8832 8.8098 18.078 8.00488 17.0805 8.00098C16.0923 8.0048 15.287 8.8098 15.2832 9.79808C15.287 10.7963 16.0923 11.601 17.0805 11.596Z" fill="#27498C"/>
<path d="M16.8144 23.0063V29.2907C16.8199 30.4246 15.1243 30.4246 15.1236 29.2907V23.0063H12.8736L15.2832 14.6584H14.8972L13.4856 19.4248C13.1498 20.4664 11.7235 20.0392 12.0476 18.9326L13.6188 13.753C13.7904 13.1602 14.537 12.1135 15.829 12.1152H18.3056C19.5836 12.1138 20.3328 13.1686 20.529 13.753L22.1 18.9186C22.4144 20.0333 20.9992 20.4944 20.6617 19.4111L19.251 14.6583H18.838L21.261 23.0059H19.0112V29.3035C19.0105 30.424 17.3218 30.4183 17.3204 29.3035V23.0059L16.8144 23.006L16.8144 23.0063Z" fill="#27498C"/>
<path d="M29.9153 12.1016C28.6517 12.1066 27.6343 13.1533 27.6387 14.4582V20.0234C27.6344 21.1046 29.1953 21.1046 29.1965 20.0234V14.938H29.569V29.037C29.5645 30.4792 31.6432 30.436 31.6462 29.037V20.7824H32.0058V29.037C32.001 30.436 34.0912 30.4792 34.0954 29.037V14.938H34.4554V20.0234C34.452 21.1135 36.0046 21.113 36 20.0234V14.4986C36.0019 13.288 35.0803 12.109 33.6964 12.115L29.9153 12.1016Z" fill="#27498C"/>
<path d="M31.8184 11.596C32.8062 11.6013 33.6114 10.7963 33.6157 9.7984C33.6115 8.8098 32.8062 8.00488 31.8184 8.00098C30.8203 8.0048 30.015 8.8098 30.0215 9.79808C30.015 10.7963 30.8202 11.601 31.8184 11.596Z" fill="#27498C"/>
<defs>
<filter id="filter0_d_782_13639" x="0" y="0" width="48" height="58.3311" filterUnits="userSpaceOnUse" color-interpolation-filters="sRGB">
<feFlood flood-opacity="0" result="BackgroundImageFix"/>
<feColorMatrix in="SourceAlpha" type="matrix" values="0 0 0 0 0 0 0 0 0 0 0 0 0 0 0 0 0 0 127 0" result="hardAlpha"/>
<feOffset dy="4"/>
<feGaussianBlur stdDeviation="2"/>
<feComposite in2="hardAlpha" operator="out"/>
<feColorMatrix type="matrix" values="0 0 0 0 0 0 0 0 0 0 0 0 0 0 0 0 0 0 0.1 0"/>
<feBlend mode="normal" in2="BackgroundImageFix" result="effect1_dropShadow_782_13639"/>
<feBlend mode="normal" in="SourceGraphic" in2="effect1_dropShadow_782_13639" result="shape"/>
</filter>
</defs>
</svg>
