<svg width="125" height="122" viewBox="0 0 125 122" fill="none" xmlns="http://www.w3.org/2000/svg">
<path d="M98.5607 120.5L5.83203 27.17V0.5H98.5607V26.4797V27.17V120.5Z" fill="white"/>
<path d="M98.5607 120.5L5.83203 27.17V0.5H98.5607V26.4797V27.17V120.5Z" stroke="#0D0D0D" stroke-miterlimit="10"/>
<path d="M5.83203 30.1709H98.5607" stroke="#0D0D0D" stroke-miterlimit="10"/>
<path d="M0.441406 28.9697H103.23" stroke="#0D0D0D" stroke-miterlimit="10" stroke-dasharray="2 3 2 3 2 3"/>
<path d="M111.533 32.3668L111.534 32.368C111.637 32.4708 111.637 32.6385 111.534 32.7413C110.837 33.4383 110.452 34.3657 110.452 35.3521C110.452 36.3385 110.836 37.2659 111.534 37.9629L114.331 40.7603C115.154 41.5825 116.492 41.5825 117.315 40.7603L118.434 39.6416C119.566 38.5098 119.566 36.6693 118.434 35.5389L112.647 29.7514L110.783 31.6155L111.533 32.3657L111.533 32.3668ZM113.773 32.368L117.687 36.2829C118.048 36.6432 118.229 37.1169 118.229 37.5906C118.229 38.0643 118.048 38.5381 117.687 38.8984L116.907 39.6792C116.31 40.2758 115.339 40.2758 114.742 39.6792L112.347 37.2835C111.281 36.2179 111.281 34.486 112.347 33.4206L113.4 32.3668C113.503 32.264 113.671 32.264 113.774 32.3668L113.773 32.368ZM109.523 27.652L108.171 29.0047L102.025 22.8594C100.957 21.7915 100.897 20.0903 101.847 18.9515L110.035 27.1393L109.524 27.6496L109.523 27.6508L109.523 27.652ZM111.576 30.0761L101.847 39.8045C101.412 39.2847 101.176 38.635 101.176 37.9486C101.176 37.1736 101.477 36.4447 102.025 35.8966L109.711 28.2108L111.576 30.0761ZM114.332 17.9946L111.535 20.792C110.838 21.489 110.453 22.4163 110.453 23.4028C110.453 24.3892 110.837 25.3165 111.535 26.0135C111.638 26.1163 111.638 26.2841 111.535 26.3868L110.086 27.8364L111.95 29.7005L118.435 23.215C119.567 22.0833 119.567 20.2428 118.435 19.1124L117.316 17.9936C116.494 17.1714 115.156 17.1714 114.332 17.9936L114.332 17.9946ZM116.907 19.0755L117.687 19.8563C118.048 20.2167 118.229 20.6904 118.229 21.1641C118.229 21.6378 118.048 22.1115 117.687 22.4718L113.773 26.3867C113.723 26.4363 113.656 26.4647 113.586 26.4647C113.516 26.4647 113.449 26.4363 113.399 26.3867L112.346 25.333C111.28 24.2686 111.28 22.5355 112.346 21.4701L114.741 19.0743C115.031 18.7849 115.415 18.6266 115.823 18.6266C116.232 18.6266 116.616 18.7861 116.906 19.0743L116.907 19.0755Z" fill="black"/>
</svg>
