<svg width="159" height="123" viewBox="0 0 159 123" fill="none" xmlns="http://www.w3.org/2000/svg">
<path d="M73.0476 116.018L1.50391 44.0751L37.2757 44.0381L73.0476 116.018Z" fill="white"/>
<path d="M73.0476 116.018L1.50391 44.0751L37.2757 44.0381L73.0476 116.018Z" stroke="#0D0D0D" stroke-miterlimit="10"/>
<path d="M18.1641 60.8226L37.004 43.5479" stroke="#0D0D0D" stroke-miterlimit="10"/>
<path d="M156.216 120L101.336 64.8137L119.518 47.1035L156.216 120Z" fill="white"/>
<path d="M156.216 120L101.336 64.8137L119.518 47.1035L156.216 120Z" stroke="#0D0D0D" stroke-miterlimit="10"/>
<path d="M6.8125 69.2041L42.7511 36.9424" stroke="#0D0D0D" stroke-miterlimit="10" stroke-dasharray="2 3 2 3 2 3"/>
<path d="M52.9953 32.6032H52.997C53.1423 32.6032 53.261 32.7218 53.261 32.8671C53.261 33.8528 53.6444 34.7809 54.3419 35.4784C55.0394 36.1759 55.9666 36.5602 56.9531 36.5593L60.9093 36.5593C62.0721 36.5593 63.0185 35.6129 63.0193 34.4493L63.0193 32.8671C63.0193 31.2666 61.7179 29.9652 60.1183 29.9661L51.9336 29.9661L51.9336 32.6024L52.9945 32.6024L52.9953 32.6032ZM54.5799 31.0202H60.1164C60.6259 31.0202 61.0887 31.2274 61.4237 31.5623C61.7587 31.8973 61.9658 32.3601 61.9658 32.8696L61.9658 33.9739C61.9658 34.8177 61.2792 35.5043 60.4355 35.5043L57.0474 35.5043C55.5404 35.5043 54.3158 34.2797 54.3159 32.7728V31.2825C54.3159 31.1372 54.4345 31.0186 54.5799 31.0186L54.5799 31.0202ZM48.2405 30.6902L48.2405 32.6032L39.5498 32.6032C38.0396 32.6032 36.7941 31.4429 36.6604 29.966L48.2397 29.966V30.6877V30.6894L48.2405 30.6902ZM51.4064 30.9525L51.4056 44.7115C50.7306 44.6513 50.1041 44.359 49.6188 43.8736C49.0708 43.3256 48.7684 42.5972 48.7684 41.822L48.7684 30.9526L51.4064 30.9525ZM44.8124 20.4607V24.4168C44.8124 25.4026 45.1958 26.3306 45.8933 27.0281C46.5908 27.7256 47.518 28.1099 48.5045 28.109C48.6499 28.109 48.7685 28.2277 48.7685 28.373L48.7685 30.423L51.4048 30.423L51.4048 21.251C51.4048 19.6505 50.1034 18.3491 48.5038 18.35H46.9217C45.7589 18.35 44.8125 19.2964 44.8116 20.4601L44.8124 20.4607ZM47.3969 19.4048L48.5012 19.4048C49.0107 19.4048 49.4735 19.6119 49.8085 19.9469C50.1434 20.2819 50.3506 20.7447 50.3506 21.2542L50.3506 26.7907C50.3506 26.8609 50.323 26.9286 50.2737 26.9779C50.2244 27.0271 50.1568 27.0547 50.0866 27.0547L48.5964 27.0547C47.0903 27.0555 45.8648 25.8301 45.8649 24.3232L45.8649 20.9351C45.8649 20.5258 46.0245 20.1423 46.3135 19.8533C46.6025 19.5643 46.9868 19.4056 47.3952 19.4047L47.3969 19.4048Z" fill="black"/>
</svg>
