<svg width="198" height="123" viewBox="0 0 198 123" fill="none" xmlns="http://www.w3.org/2000/svg">
<path d="M194.556 120.81L37.0234 50.7763L63.0541 0.80957L194.556 120.81Z" fill="white"/>
<path d="M194.556 120.81L37.0234 50.7763L63.0541 0.80957L194.556 120.81Z" stroke="#0D0D0D" stroke-miterlimit="10"/>
<path d="M37.0234 50.7765L90.3094 25.6777" stroke="#0D0D0D" stroke-miterlimit="10" stroke-dasharray="2 3 2 3 2 3"/>
<path d="M49.5469 56.341L73.8202 44.9365" stroke="#0D0D0D" stroke-miterlimit="10" stroke-dasharray="2 3 2 3 2 3"/>
<path d="M77.3881 68.7217L73.8203 44.9365" stroke="#0D0D0D" stroke-miterlimit="10" stroke-dasharray="2 3 2 3 2 3"/>
<path d="M98.3753 32.7422L84.6367 39.5849" stroke="#0D0D0D" stroke-miterlimit="10" stroke-dasharray="2 3 2 3 2 3"/>
<path d="M86.7407 72.8751L83.0664 52.4092" stroke="#0D0D0D" stroke-miterlimit="10" stroke-dasharray="2 3 2 3 2 3"/>
<path d="M104.828 80.9257L83.0664 52.4189" stroke="#0D0D0D" stroke-miterlimit="10" stroke-dasharray="2 3 2 3 2 3"/>
<path d="M133.426 65.0217L93.4258 54.416" stroke="#0D0D0D" stroke-miterlimit="10" stroke-dasharray="2 3 2 3 2 3"/>
<path d="M115.563 85.1682L102.605 65.998" stroke="#0D0D0D" stroke-miterlimit="10" stroke-dasharray="2 3 2 3 2 3"/>
<path d="M121.598 70.9144L101.336 64.5332" stroke="#0D0D0D" stroke-miterlimit="10" stroke-dasharray="2 3 2 3 2 3"/>
<path d="M135.73 94.6539L122.621 71.0195" stroke="#0D0D0D" stroke-miterlimit="10" stroke-dasharray="2 3 2 3 2 3"/>
<path d="M142.382 73.958L130.773 72.5469" stroke="#0D0D0D" stroke-miterlimit="10" stroke-dasharray="2 3 2 3 2 3"/>
<path d="M144.017 91.3537L132.16 73.3018" stroke="#0D0D0D" stroke-miterlimit="10" stroke-dasharray="2 3 2 3 2 3"/>
<path d="M164.155 92.8716L145.047 91.4072" stroke="#0D0D0D" stroke-miterlimit="10" stroke-dasharray="2 3 2 3 2 3"/>
<path d="M148.254 100.007L171.4 101.604" stroke="#0D0D0D" stroke-miterlimit="10" stroke-dasharray="2 3 2 3 2 3"/>
<path d="M83.9453 40.7568L93.1843 53.5813" stroke="#0D0D0D" stroke-miterlimit="10" stroke-dasharray="2 3 2 3 2 3"/>
<path d="M26.2818 52.8653L26.2801 52.8648C26.1397 52.8272 26.0559 52.6819 26.0935 52.5415C26.3486 51.5894 26.2184 50.5938 25.7252 49.7395C25.232 48.8852 24.4359 48.2741 23.4827 48.0196L19.6614 46.9956C18.5382 46.6947 17.3791 47.3639 17.0771 48.4877L16.6676 50.0159C16.2533 51.5619 17.1736 53.1558 18.7189 53.5689L26.6248 55.6873L27.3071 53.1408L26.2824 52.8662L26.2818 52.8653ZM24.3414 53.9842L18.9936 52.5512C18.5014 52.4193 18.108 52.0995 17.8711 51.6892C17.6343 51.279 17.554 50.7783 17.6859 50.2861L17.9717 49.2195C18.19 48.4045 19.031 47.919 19.8459 48.1374L23.1186 49.0143C24.5742 49.4043 25.4401 50.9041 25.0501 52.3596L24.6643 53.7991C24.6267 53.9395 24.4815 54.0234 24.341 53.9857L24.3414 53.9842ZM30.3795 55.9437L30.8746 54.0959L39.2692 56.3452C40.728 56.7361 41.6307 58.1792 41.3776 59.6404L30.1928 56.6434L30.3796 55.9463L30.3801 55.9447L30.3795 55.9437ZM27.3893 54.8709L30.9512 41.5811C31.5876 41.8139 32.1171 42.2584 32.4603 42.8528C32.8477 43.524 32.9513 44.3058 32.7507 45.0546L29.9375 55.5536L27.3893 54.8709ZM31.0433 66.7119L32.0672 62.8905C32.3223 61.9384 32.1921 60.9427 31.6989 60.0885C31.2057 59.2342 30.4095 58.6231 29.4564 58.3685C29.316 58.3309 29.2321 58.1856 29.2698 58.0452L29.8003 56.0652L27.2538 55.3828L24.88 64.2422C24.4657 65.7881 25.386 67.3821 26.9313 67.7952L28.4595 68.2047C29.5827 68.5056 30.7418 67.8364 31.0438 66.7126L31.0433 66.7119ZM28.2735 67.0628L27.2068 66.777C26.7147 66.6451 26.3213 66.3253 26.0844 65.915C25.8475 65.5048 25.7672 65.0041 25.8991 64.5119L27.332 59.1641C27.3502 59.0963 27.3943 59.0381 27.4547 59.0033C27.5151 58.9684 27.5876 58.9593 27.6553 58.9775L29.0948 59.3632C30.5498 59.7522 31.4163 61.253 31.0262 62.7085L30.1493 65.9812C30.0434 66.3766 29.79 66.7056 29.4361 66.91C29.0821 67.1144 28.6698 67.1682 28.2751 67.0633L28.2735 67.0628Z" fill="black"/>
</svg>
