<svg width="121" height="120" viewBox="0 0 121 120" fill="none" xmlns="http://www.w3.org/2000/svg">
<g clip-path="url(#clip0_3155_22365)">
<path d="M59.2912 24.4178C59.0548 21.2768 58.6496 10.03 59.6288 8.44259C60.1353 7.59824 74.8229 1.41754 77.5917 -0.000976562C84.3446 15.0624 89.2405 13.5763 79.6513 28.5045C74.1477 37.9275 74.1477 38.603 79.6513 30.531L91.8742 28.5045C91.9754 29.8555 91.8066 31.2065 91.8742 32.5574C93.4273 38.1977 85.3238 48.0598 80.1915 48.8029C79.3474 48.9379 93.1235 38.2315 93.9 40.697C107.541 31.4091 106.494 35.5633 120.507 43.8718C120.642 46.0671 112.606 60.9954 110.175 62.1775C107.575 63.4609 88.3964 59.8133 83.7368 59.0365C82.3187 66.1291 90.7262 61.7722 95.8922 64.1701C98.5933 65.4198 101.328 70.3508 104.063 72.3097C102.645 73.1879 96.8376 75.3494 95.9259 75.3494C93.3598 76.768 92.6845 78.1189 93.9 79.4361C96.1285 80.4493 103.793 83.3202 104.165 84.8738C106.055 92.5743 106.19 104.902 97.0402 106.05C85.4589 107.469 84.4121 104.497 79.6513 95.7491C75.397 88.9942 74.0464 88.3188 75.5658 93.7226L73.5061 103.889C69.0154 104.666 67.3609 99.5318 63.3429 97.7756C62.7352 96.0193 62.0599 96.6948 61.317 99.802C61.5196 102.673 62.0261 109.63 60.8781 111.623C60.4054 112.434 45.7852 120.371 44.1983 119.999C42.2737 119.526 33.191 104.767 33.3598 102.842C33.4273 102.166 39.5388 93.6889 40.9231 91.6624C41.6322 90.4465 40.9231 90.4465 38.8972 91.6624L28.734 93.6889C28.5652 90.9869 28.9029 88.2512 28.734 85.5493C29.1392 80.1454 35.4532 74.9104 39.9439 71.4654C40.653 70.925 28.0925 83.9281 26.7082 81.4626C24.0407 83.3877 19.7526 87.238 16.3761 86.63C13.4724 86.0897 1.08069 79.0308 0.50669 76.0925C0.337866 75.1806 7.90117 59.8808 8.71153 59.3742C10.2985 58.3947 17.8955 58.8338 20.5967 59.0365C23.6018 58.5298 24.2771 57.8544 22.6226 57.01L16.545 49.8836L28.734 44.7837C29.8145 44.3784 29.6794 43.6692 28.734 42.7573C8.74529 33.9084 18.8747 37.8262 14.4853 16.2782C32.0092 17.359 33.6299 10.3002 40.9569 26.4443C45.0424 33.4356 46.393 34.111 45.0424 28.4707L47.1021 18.3047C51.6603 17.4941 53.1797 22.7291 57.2653 24.4178C59.2912 34.5839 60.0002 34.5839 59.2912 24.4178Z" fill="#8CCDE0"/>
<path d="M93.9011 40.7314C89.6129 43.636 85.5949 49.0061 79.6523 48.871C84.6495 42.589 89.748 41.4069 91.8752 32.5918C92.044 35.26 90.761 39.3129 93.9011 40.7314Z" fill="#DADADA"/>
<path d="M61.3183 99.8031C61.082 96.4256 57.1315 89.1304 59.2924 83.5239C64.1208 77.1405 63.7494 95.6151 63.3442 97.7766C63.2767 98.1819 61.6897 99.0263 61.3183 99.8031Z" fill="#D2D2D2"/>
<path d="M95.9621 75.3507L93.9362 79.4374C89.513 77.3771 81.9835 76.9718 79.6875 71.2978C85.9002 70.9262 89.5468 75.5195 95.9621 75.3507Z" fill="#D9D9D9"/>
<path d="M26.7109 81.4639C30.7289 78.5593 35.0171 71.5005 40.9597 71.2979L28.7368 85.5506C28.6355 83.8281 28.6693 82.0381 26.7109 81.4639Z" fill="#D7D7D7"/>
<path d="M59.294 24.4189C59.4965 27.0871 63.4808 33.6393 61.3198 38.6717C55.6136 36.7128 57.3694 29.35 57.2681 24.4189H59.294Z" fill="#D5D5D5"/>
<path d="M28.7344 42.7578C31.1654 43.8386 40.3157 45.8313 40.9572 47.8577C43.2195 54.7815 29.0383 46.7094 28.7344 44.7843V42.7578Z" fill="#D2D2D2"/>
<path d="M45.044 28.5059C46.6647 30.296 50.7164 38.2667 48.1166 40.7322C43.457 37.0846 43.0518 31.0728 40.9922 26.4795C42.0727 27.2901 44.3687 27.7291 45.0777 28.5059H45.044Z" fill="#DADADA"/>
<path d="M79.6511 95.7166C78.6382 94.906 76.1396 94.3994 75.5656 93.6902C74.4176 92.2379 70.3996 83.5241 72.493 81.4639C77.2538 84.8075 77.4564 91.7312 79.6173 95.7166H79.6511Z" fill="#E0E0E0"/>
<path d="M79.6515 30.5323C78.5711 33.1329 76.2413 43.9069 71.4805 39.6851C72.2908 35.1256 77.288 32.1873 79.6515 28.5059V30.5323Z" fill="#DDDDDD"/>
<path d="M38.9336 91.6637L48.0838 81.4639C49.1981 85.4492 42.4789 89.4684 40.9595 91.6637H38.9336Z" fill="#DEDEDE"/>
<path d="M22.6587 57.0107L36.9074 61.0637C31.3025 63.2252 23.9755 59.3074 20.6328 59.0372L22.6587 57.0107Z" fill="#E2E2E2"/>
<path d="M65.4046 46.8448C66.7214 48.466 61.9268 57.5513 73.5419 57.0447C74.3185 58.0241 61.7918 62.2459 71.516 71.2637C63.0411 68.0551 61.5216 69.9127 55.2414 75.3503C55.3764 65.9273 57.5036 63.9346 47.0703 65.1505C48.117 56.5718 57.1322 62.0433 49.13 50.9315C52.0675 50.0534 56.0517 53.2282 58.1789 52.7553C60.4412 52.2487 62.1294 42.7919 65.4046 46.8448Z" fill="#F8F8F8"/>
<path d="M34.6445 24.6548C35.1848 25.1277 38.0885 36.5771 38.9327 38.6711C32.7537 40.5287 17.2219 29.9574 22.658 24.4184C23.0632 23.9793 34.0705 24.1144 34.6783 24.6548H34.6445Z" fill="#F2F2F2"/>
<path d="M28.7369 67.2106C29.4797 70.4867 27.5889 71.3649 25.7656 73.3576C11.0441 89.5017 0.442009 58.9697 28.7369 67.2106Z" fill="#F2F2F2"/>
<path d="M95.8584 85.6512C96.8038 86.6307 95.5207 95.108 95.9597 97.7762C82.0486 100.478 86.7757 93.0816 81.7109 83.5234C84.142 84.1314 95.3519 85.1108 95.8584 85.6512Z" fill="#F7F7F7"/>
<path d="M53.1811 91.6631C54.3629 101.626 58.5497 108.348 45.0776 110.003C41.3297 103.011 44.9425 93.1829 53.1811 91.6631Z" fill="#F5F5F5"/>
<path d="M89.8477 52.9243L101.429 42.9609C119.662 47.8244 103.387 59.713 89.8477 52.9243Z" fill="#F2F2F2"/>
<path d="M75.5004 12.2597C81.4768 16.5152 73.542 28.6402 67.4644 30.5315C68.4436 26.58 63.784 17.0218 65.5736 14.455C66.08 13.712 74.3862 11.4829 75.4666 12.2597H75.5004Z" fill="#F7F7F7"/>
<path d="M71.5152 95.7166L65.4375 81.4639C69.523 83.2539 71.4139 91.6637 71.5152 95.7166Z" fill="#E1E1E1"/>
<path d="M55.2072 38.7058C52.9449 38.4694 51.5606 35.9701 50.6827 34.0787C44.605 20.9743 58.3135 25.9729 55.2072 38.7058Z" fill="#DFDFDF"/>
<path d="M85.7648 34.6182C87.5881 40.8326 80.565 44.0074 75.6016 44.7842L85.7648 34.6182Z" fill="#EBEBEB"/>
<path d="M38.9323 52.9923C37.7506 57.4843 25.2914 55.4916 24.6836 50.9658L38.9323 52.9923Z" fill="#EDEDED"/>
<path d="M95.9606 71.2642C92.0439 70.9602 82.3196 71.8046 83.7715 65.1848C84.6156 64.5093 95.9606 67.7854 95.9606 71.2642Z" fill="#F3F3F3"/>
<path d="M40.7572 85.3471C32.9576 90.1093 33.0926 79.234 42.9857 77.4102C43.6948 78.2883 41.0949 85.1445 40.7572 85.3471Z" fill="#EEEEEE"/>
</g>
<defs>
<clipPath id="clip0_3155_22365">
<rect width="120" height="120" fill="white" transform="translate(0.507812)"/>
</clipPath>
</defs>
</svg>
