<svg width="300" height="47" viewBox="0 0 300 47" fill="none" xmlns="http://www.w3.org/2000/svg">
<g clip-path="url(#clip0_3019_21797)">
<path d="M177.368 8.85654C196.677 5.82178 216.008 2.45798 235.429 0.160156L299.999 11.3284L299.773 12.8213C297.875 14.3659 296.017 16.0872 294.315 17.833C292.909 18.6869 292.813 17.417 293.771 16.4734C292.827 16.1144 293.624 15.3476 294.258 14.8934C292.373 15.6032 290.594 15.9975 288.603 16.2014C285.011 17.5801 281.38 18.8446 277.706 19.9894L233.313 32.7757L173.857 14.4529C172.943 14.2245 172.483 13.8111 172.472 13.2102C171.89 13.3053 171.308 13.2646 170.726 13.0878C169.494 11.5459 171.67 10.722 172.744 12.1224C172.913 12.0082 173.084 11.9022 173.272 11.8315C174.439 11.3801 179.451 13.1177 180.737 13.8546C182.211 13.8465 183.356 14.2653 184.17 15.1137C185.132 14.8037 186.245 14.7629 187.504 14.994C202.418 12.873 217.844 10.4637 233.781 7.76609C249.928 9.87356 265.96 12.7316 281.968 15.6766C284.287 15.1626 286.564 14.4393 288.794 13.6072L289.963 13.754C289.947 13.0144 290.352 12.8403 290.779 13.4821C294.263 12.8376 293.809 12.1116 289.419 11.3066C289.335 11.8179 289.12 11.7852 288.875 11.3066L285.775 11.0918C268.535 8.20662 251.298 5.28607 234.067 2.33017L185.559 9.77295C183.83 9.95242 182.097 10.0122 180.359 9.94699C179.658 10.0612 178.959 10.0911 178.257 10.0394C176.582 10.8009 175.064 9.28619 177.368 8.85926V8.85654Z" fill="#010205"/>
<path d="M122.704 14.2951L121.795 14.0041C117.085 14.1265 112.445 14.1727 107.795 14.0803C106.568 14.2217 106.459 12.93 107.34 12.5031L115.48 12.9654C116.391 12.6554 117.294 12.4596 118.189 12.3753C117.721 12.087 117.487 11.8396 117.963 11.4616C117.835 11.244 117.74 11.0754 117.762 11.0782C119.179 11.1489 128.76 12.2311 129.119 12.6826C129.291 12.9001 129.217 13.55 128.964 13.7512C119.073 23.5789 109.146 33.3711 99.312 43.2477C98.2786 44.2865 97.9658 45.4857 96.2769 45.9235C75.1508 46.2226 53.8751 46.258 32.7572 45.9045C32.2785 45.5346 31.7781 45.1458 31.3267 44.7488L30.6196 44.5611C25.61 39.7507 20.7119 34.6737 16.0967 29.5206C14.4432 28.2914 12.961 26.8339 11.7453 25.1697C10.7635 24.9086 10.157 24.2206 9.84156 23.2661C9.75181 23.1764 9.65935 23.0839 9.5696 22.9942C8.82714 22.9208 8.20434 22.4014 8.20978 21.6346C6.60792 20.0111 1.13602 14.9668 0.322845 13.4766C0.197742 13.2264 0.0835172 12.8131 0.28749 12.6064C0.899407 11.9837 5.01149 11.9565 6.00416 12.049C7.71753 11.4589 11.3482 10.3929 12.3926 12.3753C13.3771 12.1441 17.2662 12.552 16.1049 14.0939C13.9047 14.0041 11.7263 14.0694 9.5696 14.2924C8.17443 14.907 6.62423 15.1843 4.92446 15.1245L7.64954 17.4305C16.1565 26.1785 24.6527 34.8559 33.1325 43.4625L34.0708 43.8188C36.4831 44.2946 39.0151 44.5149 41.6613 44.4768C41.7129 44.2348 41.8027 44.2457 41.9332 44.4768C53.3394 44.1967 64.8516 44.1967 76.4726 44.4823C76.614 44.2131 76.7581 44.0037 76.905 44.001C79.9836 43.9384 83.1221 44.0145 86.1871 44.1043C86.2932 44.3164 86.4019 44.4823 86.5134 44.485C88.0283 44.5285 94.0441 44.5639 95.238 44.0907C95.3115 44.0608 95.3278 43.8922 95.3278 43.6828C96.0376 43.506 96.7012 43.1716 97.2288 42.6685C103.897 35.7098 110.805 28.6803 117.71 21.8276C118.815 20.7317 120.085 19.818 121.347 18.9125C122.094 17.0906 123.272 15.9131 124.882 15.3774C125.796 14.8363 125.314 14.2897 124.175 14.4338C123.305 14.907 122.815 14.858 122.706 14.2897L122.704 14.2951Z" fill="#030305"/>
<path d="M177.367 8.857C177.234 9.20507 176.347 8.92226 176.687 9.40087C177.587 10.6789 177.593 9.77885 178.259 9.73806C178.542 9.72175 178.945 9.97736 179.377 9.96105C179.507 9.95561 179.638 8.63946 180.361 9.94201C180.367 10.0889 180.185 10.1786 179.818 10.2139L179.592 10.7605L172.836 11.6443L172.749 12.1175C172.181 12.044 171.164 11.5736 170.848 12.2589C170.56 12.887 172.276 12.6994 172.477 13.2052C172.227 13.6702 172.018 13.8932 172.23 13.4363C181.3 22.1844 190.228 30.8916 199.015 39.5554C199.994 40.102 200.576 40.7437 200.761 41.4861C202.162 42.7152 203.718 43.3815 205.896 43.1259C224.632 42.8485 243.375 42.8648 262.114 43.047C264.319 43.5664 265.413 42.892 267.009 41.4045C270.588 38.0734 274.172 34.6334 277.692 31.1962L278.543 30.8808C278.902 30.8264 279.212 30.685 279.476 30.4593L283.873 26.1682C284.662 25.1104 286.356 25.2355 285.315 26.5516C284.578 26.9704 283.952 27.5061 283.441 28.1614C278.217 33.0753 273.104 38.9109 267.67 43.5283C266.838 44.2353 265.878 45.1191 264.784 45.266L203.073 45.2904C201.313 45.0892 199.63 42.9981 198.314 41.7553C194.873 39.0333 191.362 36.1263 188.795 32.5096C181.539 25.5835 174.245 18.6873 167.179 11.5654C167.046 11.2962 166.91 10.7279 167.065 10.5076C167.563 9.79517 175.907 9.0827 177.373 8.85156L177.367 8.857Z" fill="#07080A"/>
<path d="M109.38 9.67256L117.335 10.8337C118.363 10.986 118.575 11.1872 117.965 11.4456C118.439 12.2423 116.951 12.3266 116.508 11.8154C114.033 11.7229 111.566 11.5543 109.105 11.3069C108.653 11.5516 108.02 11.5516 107.201 11.3069C105.248 11.7637 102.197 11.6713 100.402 10.763C99.2082 10.6216 98.0306 10.5319 96.8666 10.4911C95.4714 10.3877 94.1116 10.298 92.7871 10.2191C90.7719 9.97984 88.6886 9.86019 86.532 9.85747C86.26 9.66712 85.9853 9.51484 85.7025 9.49852C81.7264 9.29185 77.7612 9.23747 73.7796 9.25922C73.4043 9.25922 73.1949 9.31361 73.2058 9.67528C74.0489 9.63449 75.7242 10.6977 75.6534 11.5788C76.3089 11.1491 76.744 11.8426 76.1974 12.3946C80.2333 13.5857 74.6608 14.9127 73.6518 13.6346C73.562 12.8732 73.4152 12.2777 73.2058 11.8507L72.1968 11.7637C69.8715 9.4387 67.3885 7.47263 64.7531 5.86551C62.4605 7.35298 60.2413 9.04711 58.09 10.9534L57.4346 11.0349C56.5127 11.6413 55.7403 12.5985 55.1148 13.9093L53.3552 14.2981C50.2793 14.8338 47.1843 14.8365 44.1084 14.2981C43.6352 13.6944 44.0649 13.447 44.6687 13.1723C47.7038 13.0119 50.7117 12.7236 53.6951 12.3103L54.1711 11.8507C54.0242 11.0241 54.53 10.2762 55.6886 9.60186L55.5309 9.13141C53.8909 9.41694 52.2292 9.52028 50.5485 9.43598C50.4125 9.61817 50.2765 9.76501 50.1242 9.77861C46.6649 10.0968 43.1756 10.3769 39.757 10.2191C39.2539 10.676 38.5087 10.7059 37.5242 10.3116L25.3429 11.3069C24.0375 11.557 22.8599 11.557 21.8074 11.3069L15.4 11.8426C14.6221 12.7916 12.8707 10.8038 14.1109 10.6379L28.8785 9.13413C34.2443 8.41351 39.8739 8.26123 45.335 7.77719C49.2866 7.23877 54.919 8.10895 58.6449 7.48894C60.7145 7.14359 62.8712 3.45076 64.9136 2.59961C65.6316 2.59961 69.3113 7.14359 70.6412 7.21701C78.2344 7.64123 85.8793 7.57052 93.467 8.05184C98.7268 8.38632 104.256 8.9329 109.38 9.68071V9.67256Z" fill="#030305"/>
<path d="M109.377 9.67188L129.502 12.3939C129.546 12.9677 129.568 13.536 128.959 13.7509C128.888 11.3769 125.167 13.2179 124.422 11.8528L118.083 11.3062C118.069 12.5516 120.196 11.4449 119.715 12.9351C118.289 12.8915 116.889 12.9079 115.496 13.2315L107.473 12.6658C107.367 12.9514 107.25 13.8542 107.501 14.001C107.895 14.2295 115.382 14.0554 116.595 14.0391C118.221 14.0173 119.87 13.8052 121.496 13.7427C122.013 13.7237 122.518 13.7046 122.706 14.3002C120.702 14.5313 118.692 14.7407 116.674 14.7434C96.5732 14.7733 76.456 14.7325 56.3634 14.6618L53.3555 14.3029C55.4985 13.8787 55.4333 11.2654 57.4349 11.0397C57.6906 11.4503 57.5491 11.7957 57.0079 12.0812C62.2106 12.1954 67.4051 12.209 72.5969 12.1247L73.2115 11.8582C73.2768 11.9072 73.6113 11.7331 73.7799 12.0186C74.0301 12.4374 73.8833 13.1934 74.2966 13.6285C74.9548 14.3246 76.6491 14.0473 77.2855 13.3538C76.9782 12.9758 76.5267 12.7556 76.2031 12.4021C82.3168 11.5536 88.5883 11.7549 94.7184 12.2498C100.166 12.345 105.483 12.2824 110.664 12.0649C109.763 11.9262 109.247 11.676 109.111 11.3171L117.811 11.5863C118.004 10.8847 117.242 10.9364 116.788 10.8521C114.398 10.4061 111.765 10.0335 109.38 9.68547L109.377 9.67188Z" fill="#040A11"/>
<path d="M28.8763 9.12891C27.2825 9.34373 25.7215 9.48786 24.1196 9.67549C20.8153 10.0616 17.5082 10.494 14.1902 10.7632C13.9699 11.4648 14.9191 11.5491 15.4141 11.5817C17.3396 11.7123 19.7573 10.9672 21.8052 11.3071C21.8406 11.8673 22.1343 12.1881 22.7952 12.2452C30.6902 12.3323 38.5554 12.2888 46.3934 12.1202C48.9879 12.2616 51.4383 12.0359 53.7364 11.4458L54.1661 11.8537C54.0573 12.0141 54.2586 12.422 53.7174 12.6232C52.276 13.1535 50.0622 12.732 48.6045 12.955C48.1965 13.0175 47.8974 13.4091 47.4894 13.4717C46.4152 13.6403 44.8351 13.1372 44.1035 14.3011C43.5351 14.4425 42.964 14.5703 42.3847 14.66C41.8054 14.7497 41.2343 14.8313 40.6631 14.834C31.449 14.8558 22.2132 14.834 13.0018 14.7688C11.8405 14.7606 10.6955 14.5404 9.56414 14.3011C10.4671 13.1535 15.0388 14.6002 15.8193 14.0264C15.2509 12.1202 13.5783 13.3139 12.1995 12.8897C11.525 12.6831 11.6093 11.7395 10.7907 11.579C10.1434 11.4539 7.47002 11.6987 6.76292 11.8591C6.52087 11.9135 6.56711 12.4519 6.07213 12.5335C5.47381 12.6287 4.49475 12.1202 3.71421 12.1038C3.08054 12.0902 -0.12863 12.2262 0.317389 13.4853C0.121576 13.129 -0.12863 12.9278 0.0671832 12.4166C9.61038 11.0351 19.2216 9.67549 28.8735 9.13435L28.8763 9.12891Z" fill="#050A14"/>
<path d="M293.769 16.4707C293.309 17.1315 293.399 17.8168 294.313 17.8304C293.206 18.967 292.167 20.2397 291.049 21.3655C290.046 22.0698 289.14 22.8856 288.33 23.8129C286.755 25.2895 284.925 26.7606 283.434 28.1638C283.592 27.3425 285.121 26.7688 285.335 26.5267C285.839 25.9611 284.721 25.9095 284.438 25.9965C284.114 26.0971 280.467 30.1543 279.635 30.7634C279.197 31.0843 279.078 31.3046 278.539 30.8831C281.873 26.8232 285.61 23.1194 289.752 19.772C290.829 18.3606 292.154 17.2131 293.769 16.4707Z" fill="#080D14"/>
<path d="M31.3228 44.7516C30.7599 45.2819 29.7699 44.4743 29.4109 44.0773C25.0867 39.2994 20.3464 34.3503 15.8209 29.7954C15.4592 29.412 15.6115 29.2733 16.0929 29.5235C20.9257 34.3475 26.3214 40.3355 31.3228 44.7516Z" fill="#E8EFF0"/>
<path d="M198.309 41.7603C197.768 41.7739 197.417 41.9262 197.083 41.3579C196.998 41.2165 195.959 39.7915 195.87 39.7236C195.614 39.5305 195.027 39.5713 194.485 39.196C193.338 38.3965 190.286 35.0817 189.245 33.877C189.081 33.6867 189.449 32.9552 188.391 33.0558L188.79 32.5146C191.983 35.563 195.1 38.7337 198.309 41.7603Z" fill="#E6EDEC"/>
<path d="M16.0967 29.5238L15.8247 29.7957C14.4458 28.4061 12.8494 26.8833 11.4733 25.4448C11.1116 25.0614 11.2639 24.9227 11.7452 25.1729C13.1866 26.6223 14.6498 28.0798 16.0967 29.5238Z" fill="#E6ECEC"/>
<path d="M11.7421 25.1721L11.4702 25.444C11.4239 25.3951 10.9997 25.4087 10.7848 25.1775C10.3633 24.7261 9.36788 23.8478 9.83838 23.2686C10.4666 23.9022 11.1112 24.5385 11.7421 25.1721Z" fill="#E3EBEB"/>
<path d="M9.56696 22.9974C9.00399 23.6228 8.13643 22.5895 7.82367 22.1761C7.51092 21.7628 8.00589 21.9205 8.20714 21.6377C8.65316 22.0891 9.11822 22.5432 9.56696 22.9974Z" fill="#E3EBEB"/>
<path d="M291.048 21.3652C290.156 22.2626 289.168 23.024 288.328 23.8126C289.068 22.956 289.927 21.7079 291.048 21.3652Z" fill="#C4C7C6"/>
<path d="M172.473 13.2073L174.051 13.9443L233.268 32.2534C251.71 26.9916 270.201 21.6726 288.602 16.2013C289.513 15.9783 290.421 15.8777 291.327 15.8995C291.814 18.4855 289.371 20.196 287.462 21.4931C280.323 28.8108 273.035 35.8185 265.599 42.5243L264.272 43.2341C244.658 42.8017 225.185 42.7691 205.852 43.1307C203.94 43.128 202.172 42.9594 200.755 41.4937C197.989 40.1422 189.602 30.9101 186.757 28.1609C182.346 23.897 177.877 19.6059 173.417 15.3937C173.069 15.0646 170.48 12.9109 172.473 13.2101V13.2073Z" fill="#BBE1F6"/>
<path d="M274.732 16.7423L274.343 17.2943C273.136 17.2182 272.086 17.8491 271.196 19.1897C271.071 19.2278 270.712 19.6139 270.269 19.7472C261.846 22.3142 253.318 24.5468 244.955 27.3096C243.483 27.3178 241.115 24.1715 239.926 23.1273C237.704 21.1748 235.24 19.4997 233.219 17.3134C232.3 17.1557 223.633 26.3497 221.579 26.7657C215.808 25.0254 209.975 23.3992 204.236 21.5582C202.316 20.9437 200.47 20.0925 198.582 19.4616L198.62 19.1C197.464 18.5833 196.863 18.015 197.647 16.7804C197.116 16.775 196.793 16.5792 196.676 16.1985C199.387 15.437 202.237 15.0645 205.017 14.6131C215.381 12.9244 225.825 11.1133 236.26 10.2051C249.07 12.4268 262.007 14.1427 274.729 16.745L274.732 16.7423Z" fill="#B0B0AE"/>
<path d="M288.874 11.304L288.643 11.6983C290.209 11.7146 291.172 12.4216 289.962 13.7513C287.343 14.7249 284.707 15.6685 281.952 16.2096C265.961 13.3027 249.885 10.4093 233.79 8.30455C221.593 10.3522 209.354 12.1605 197.132 14.0695C192.321 14.82 189.033 16.2531 184.168 15.111C184.462 14.8336 184.249 14.5535 183.529 14.2735C181.301 14.1837 178.416 13.5991 180.611 11.0293C180.129 10.8961 179.865 10.6241 179.816 10.2162C179.884 9.94158 180.135 9.97421 180.36 9.9443C198.294 7.51867 216.159 4.3697 234.073 1.78906C252.341 4.93531 270.674 7.84499 288.874 11.304Z" fill="#BFE1F6"/>
<path d="M233.938 20.2781C234.705 21.5562 235.847 22.6303 237.201 23.2694C237.408 23.4461 237.843 23.544 238.148 23.8132C238.722 24.319 242.298 27.2178 242.369 27.487C242.483 27.9384 241.86 28.1642 241.553 28.3001C240.601 28.7189 234.422 30.5218 233.576 30.5164C230.778 30.5 227.071 28.1288 224.172 27.8705C223.486 27.0166 225.654 25.9017 226.179 25.4394C227.307 24.4523 231.721 20.1993 232.736 20.0116C233.394 19.8893 233.462 20.0443 233.935 20.2808L233.938 20.2781Z" fill="#FDFDFD"/>
<path d="M288.602 16.1986C289.486 15.9348 295.377 13.7974 295.673 14.0258C295.461 15.013 294.596 15.2223 294.028 15.788C293.815 16.0001 293.824 16.4188 293.769 16.4705C288.874 21.2592 283.557 26.0724 278.539 30.8829C274.952 34.3228 271.259 38.1163 267.56 41.3822C266.845 42.0131 265.316 43.5631 264.509 43.6583C263.745 43.748 262.939 43.389 262.099 43.3754C242.523 43.0573 222.915 43.6365 203.336 43.3945C202.175 43.3401 201.383 42.3421 200.758 41.4855C205.079 43.5957 207.799 42.6304 212.305 42.5624C222.849 42.3992 233.391 42.4781 243.853 42.5841C250.639 42.6548 257.421 42.5216 264.199 42.7826C265.985 41.8608 267.805 40.5691 268.828 38.8451C275.433 33.6049 281.017 26.8366 287.098 21.0852C287.805 20.4162 289.41 19.6521 289.818 19.1817C289.989 18.9832 291.169 16.3373 291.05 16.1986H288.602Z" fill="#CFDCE9"/>
<path d="M179.819 10.2165C180.373 10.2436 181.067 10.6488 181.722 10.4911C181.826 11.3531 180.569 11.364 180.401 12.0357C180.319 12.3593 180.653 13.4824 180.89 13.6374C181.053 13.7434 183.765 13.1316 184.529 14.3634C184.82 14.8311 184.923 15.2418 184.17 15.1112C180.229 14.1867 176.841 12.6557 172.747 12.12C172.549 12.0003 171.861 11.6658 172.204 11.3069C172.475 11.0241 178.954 10.1729 179.819 10.2165Z" fill="#CEDFF3"/>
<path d="M274.731 16.7421C275.174 16.723 275.648 16.7149 276.091 16.7421C277.823 17.0086 277.777 17.5552 276.091 17.8298C274.484 18.2567 272.784 18.7027 271.196 19.1895C271.052 18.7843 272.245 17.1853 272.365 17.0929C272.868 16.7067 274.089 16.7666 274.731 16.7421Z" fill="#C1C9CA"/>
<path d="M192.598 16.7422L194.63 16.5355C196.145 16.1167 197.673 17.5118 197.222 18.9176C196.993 18.8415 196.525 18.9204 196.136 18.7926C194.594 18.284 193.014 17.9006 191.513 17.2833C191.472 16.8836 192.337 16.7667 192.598 16.7422Z" fill="#C4D1D1"/>
<path d="M196.677 16.1989C197.414 16.1309 198.135 16.1799 198.853 15.9297C198.953 16.0113 197.504 17.5069 197.882 18.1024C197.969 18.2384 200.158 19.3696 198.581 19.4621C198.031 19.2772 197.569 19.0379 197.221 18.9182L195.867 16.8733C195.385 16.6286 193.264 16.6802 192.598 16.7428C193.748 16.3648 195.366 16.3213 196.677 16.1989Z" fill="#B6BEC3"/>
<path d="M288.874 11.3041C289.054 11.2987 289.239 11.2933 289.418 11.3041C290.767 11.5462 292.059 11.9133 293.288 12.4055C293.441 12.9955 291.319 13.4062 290.778 13.4796C290.498 13.5938 290.229 13.6509 289.962 13.7515C289.44 13.5394 290.139 12.5904 289.962 12.3919C289.886 12.3076 288.01 12.0683 287.787 11.8426C287.145 11.2008 288.709 11.3069 288.874 11.3014V11.3041Z" fill="#DBF3FA"/>
<path d="M289.418 11.3037C291.199 11.4179 293.013 12.0869 294.855 11.8503C295.657 12.5383 291.286 13.7293 290.778 13.4792C291.164 13.3214 292.948 12.7803 292.948 12.5274L289.418 11.3037Z" fill="#BFE1F6"/>
<path d="M237.201 23.2686C236.053 23.3556 233.603 21.5418 233.937 20.2773C235.033 20.8239 236.293 22.499 237.201 23.2686Z" fill="#E0E4E4"/>
<path d="M276.09 16.7422C276.501 16.7667 278.181 16.6715 277.996 17.4193C277.882 17.8789 276.422 17.7429 276.09 17.8299C277.284 17.3486 277.259 17.2262 276.09 16.7422Z" fill="#6E7875"/>
<path d="M9.56589 14.2955C20.9612 13.9801 32.6746 14.2792 44.1052 14.2955C47.1839 14.301 50.2734 14.2955 53.352 14.2955C76.3982 14.2955 99.6211 13.8305 122.703 14.2955C123.377 14.3091 125.915 13.9964 125.694 14.9726C125.618 15.3126 124.954 15.3126 124.878 15.3833C124.778 15.25 124.669 15.1385 124.538 15.1032C123.75 14.8802 121.713 18.195 121.343 18.9184C113.758 26.5977 106.227 34.3587 98.4897 41.8885C98.1063 42.261 97.9132 42.7831 97.5433 43.1176C96.382 44.1754 95.0005 44.3848 93.4775 44.4909L41.9268 44.4773C43.613 44.0911 43.2078 43.4004 41.6902 44.0639C41.6304 44.0911 41.6331 44.2624 41.6548 44.4773C39.5634 44.1808 34.3254 45.1217 32.7589 43.8518C32.574 43.7022 32.4271 43.2372 32.1524 42.9762C23.6019 34.8753 15.5083 26.1953 7.26508 17.8171C6.62053 17.1617 4.43395 15.6987 4.12935 14.9699C3.89818 14.4152 4.50738 14.5865 4.80382 14.5647C6.40024 14.4533 7.96675 14.3363 9.56861 14.2928L9.56589 14.2955Z" fill="#BBE2F6"/>
<path d="M41.659 44.4797C41.6236 44.4797 41.3598 44.1997 41.0008 44.1969C39.8314 44.1833 37.0111 44.4417 36.1272 44.1643C35.1101 43.8461 36.0647 42.8645 36.9023 42.8672C37.5659 42.8672 37.9684 43.615 38.5423 43.6612C38.9801 43.6966 39.4479 43.392 39.913 43.3866C56.5245 43.2098 73.3699 43.3431 89.976 43.8326C91.5262 43.8788 94.0527 42.5789 95.2385 43.9304C94.4498 43.857 93.7127 44.1643 92.9377 44.216C76.318 45.3037 58.5724 43.1527 41.9336 44.477C41.8439 44.477 41.7514 44.477 41.6617 44.477L41.659 44.4797Z" fill="#CFEBF7"/>
<path d="M121.344 18.9177L122.274 16.1685C123.457 15.6301 123.296 14.5124 124.741 14.5559C125.537 14.5804 125.1 15.0345 124.882 15.3799C123.666 16.5274 122.519 17.7266 121.346 18.915L121.344 18.9177Z" fill="#DCEDF5"/>
<path d="M73.2079 11.8478C73.2405 12.7996 73.3765 12.5983 72.5416 12.6636C67.4558 13.0633 61.8915 12.3645 56.7514 12.6636C55.3943 12.4297 56.8166 11.5487 57.434 11.0293C59.112 9.61796 60.7628 8.03259 62.4735 6.68653C64.6138 5.00327 64.6057 4.8238 66.8059 6.41732C69.006 8.01084 70.9343 10.1754 73.2079 11.8451V11.8478Z" fill="#FCFDFC"/>
<path d="M55.5291 9.12895C55.8446 9.13983 56.4511 8.99299 56.6142 9.2622C55.9071 10.2847 54.9036 10.7714 54.1693 11.8483C53.4323 12.0631 52.9618 12.3405 52.1432 12.4057C41.096 13.2868 29.0018 11.5981 17.8513 12.6749L15.2812 12.1229C17.1823 11.628 19.2247 11.7558 21.1502 11.5872C21.5011 11.5573 21.7594 11.3071 21.8084 11.3044C22.9615 11.2038 24.188 11.3996 25.3439 11.3044L25.2813 11.6824C24.1717 11.7504 23.1056 11.8945 22.0803 12.1202C27.5522 11.5899 33.122 11.4077 38.787 11.5763L40.8458 12.1202C39.6573 11.9706 38.5939 11.5899 37.6529 10.9835C33.8155 11.4703 29.9482 11.7803 26.0755 11.6661L25.3412 11.3044C29.5784 10.9591 35.548 9.82782 39.7552 10.2167C43.6198 10.7089 47.5116 10.8965 51.4333 10.7823C50.5957 10.8013 49.826 10.4451 50.0273 9.51509C51.8875 9.51509 53.7205 9.38457 55.5291 9.12895Z" fill="#C7CBD4"/>
<path d="M89.525 10.4877C91.9509 10.2674 94.4339 10.2484 96.868 10.4877C97.9858 10.4904 99.5006 10.2566 100.404 10.7596C99.2341 11.3089 97.8389 11.4748 96.218 11.2627C94.0858 11.1567 93.2591 11.4422 93.7404 12.1193C93.7649 11.9045 93.8383 11.5836 93.9879 11.5754C99.3266 11.2926 105.204 11.5238 110.466 12.1193C109.474 12.0459 108.429 11.9072 107.333 11.7032L107.203 11.3035C107.823 11.3497 108.494 11.2382 109.106 11.3035C109.161 11.3089 109.411 11.5537 109.765 11.589C112.068 11.8174 114.429 11.7767 116.721 12.122C116.618 12.6169 116.186 12.6278 115.78 12.674C113.689 12.9079 111.5 12.4157 109.525 12.3803C98.4236 12.1818 87.2976 12.5517 76.1988 12.3912C75.9975 12.1737 75.8398 11.7386 75.6549 11.5754C75.0266 11.056 75.4536 10.6264 76.2124 10.5747L80.6345 10.8548C83.482 10.8494 86.2669 10.727 88.9838 10.4877C89.0681 9.97103 89.283 10.0009 89.5277 10.4877H89.525Z" fill="#C4CBD5"/>
<path d="M73.2052 9.67185C73.1263 9.53861 73.0665 9.43255 73.0801 9.42168C73.6893 8.95939 84.4726 9.35369 86.0609 9.53317C86.409 9.57124 86.8632 9.64466 86.9039 9.96554C87.8694 9.84317 88.5602 10.0172 88.9763 10.4876C88.5956 10.8548 87.9483 10.9363 87.4397 10.988C83.8688 11.347 80.2191 11.5917 76.6809 11.1974C76.1913 11.143 75.8758 10.8847 75.6501 11.5754C74.9077 10.9255 73.8552 10.6862 73.2024 9.67185H73.2052Z" fill="#B5B7BF"/>
<path d="M55.5278 9.12846C54.0891 10.14 52.0276 9.49556 50.3605 9.67504C50.8446 10.9858 53.2732 9.48197 53.6213 10.3549C53.8906 11.0293 53.6812 10.9069 53.2188 11.0265C50.5345 11.7254 45.6691 11.4236 42.8679 11.0456C41.9378 10.9205 40.9832 10.3277 39.7539 10.2162C40.9098 9.93066 42.5035 9.75662 43.7001 9.67504C47.2927 9.42758 52.0222 8.99521 55.5278 9.12846Z" fill="#ADB4BE"/>
<path d="M100.405 10.7598C102.752 10.8169 104.873 10.8876 107.204 11.3036C108.137 11.4695 109.244 12.2037 110.465 11.8502V12.1194H93.7416C93.6301 12.1194 92.4906 11.8937 92.1125 11.8421C91.7345 11.7904 91.2232 11.6762 91.7019 11.3064C94.5167 10.5558 97.4865 10.6891 100.407 10.7598H100.405Z" fill="#DBE3EA"/>
<path d="M92.7889 10.2161C91.7282 10.314 90.6404 10.4037 89.5253 10.488C89.3431 10.4853 89.1636 10.4934 88.9814 10.488C88.3205 10.4635 87.2408 10.6294 86.6996 10.4472C86.2944 10.3085 86.4739 9.72388 85.862 9.65046C82.8133 9.27519 77.8744 9.35677 74.6979 9.39756C74.2383 9.403 73.4876 9.22353 73.2048 9.67493C73.145 9.58248 72.7833 9.64502 72.9356 9.13379C78.5434 9.20177 84.3499 9.12291 89.9305 9.67765C90.7845 9.76195 92.0083 9.91151 92.7862 10.2215L92.7889 10.2161Z" fill="#959AA5"/>
<path d="M92.787 10.2163C94.0734 10.2109 95.7514 9.99332 96.8664 10.4882C94.4242 10.4801 91.9629 10.5426 89.5234 10.4882C90.3339 9.98516 91.759 10.2217 92.787 10.2163Z" fill="#B5B7BF"/>
<path d="M59.8824 14.2952C59.7764 12.1116 62.0908 13.803 62.991 13.7595C63.165 13.7513 63.0127 13.2537 63.5349 13.183C63.9782 13.1231 67.3614 13.0633 67.5001 13.2074C67.5382 13.2455 67.5545 14.2952 67.5001 14.2952H59.8852H59.8824Z" fill="#030305"/>
<path d="M65.8652 16.1982C68.3428 17.2234 73.4693 22.6403 75.664 24.7559C81.3562 30.2435 86.8662 35.9459 92.7896 41.216C93.0751 41.9393 92.7896 42.0046 92.2456 41.4879C84.5463 34.8446 77.5052 26.8471 69.9474 20.1385C69.2484 19.5185 66.2133 16.9624 65.5932 16.7421C64.4782 16.2989 64.8426 15.9018 65.8652 16.1982Z" fill="#7A97A4"/>
<path d="M63.9622 16.4711C58.6671 20.8846 53.9948 25.9806 49.007 30.7503C47.726 31.9767 46.0671 33.1868 44.7807 34.4105C42.4799 36.5995 39.404 40.4555 37.0515 42.1823C36.6816 42.4542 36.4831 42.6881 35.95 42.5739C35.3463 42.1034 46.2139 32.6973 46.9727 31.9794C51.8354 27.3729 57.3073 20.9036 62.3277 16.8736C62.6813 16.588 62.9886 16.3651 63.4183 16.2019C63.9106 16.085 64.0928 16.1747 63.9622 16.4738V16.4711Z" fill="#7999AB"/>
<path d="M65.8656 16.1983C65.1395 16.152 65.2456 16.1874 65.5937 16.7421C65.2483 16.6197 64.5113 16.6605 63.9619 16.4702C63.8286 16.424 63.6464 16.1792 63.418 16.1983C64.4786 15.7958 64.7914 15.7523 65.8656 16.1983Z" fill="#9DBCD0"/>
<path d="M92.79 41.2168C93.2551 41.6301 94.2287 41.8803 94.1498 42.5737C92.9478 42.8701 92.8036 41.9673 92.2461 41.4887L92.79 41.2168Z" fill="#90B4C5"/>
<path d="M25.3417 11.3039C29.4728 11.3311 33.6094 10.8716 37.7215 10.4609L40.8436 12.1197H22.0781V11.8505L25.3417 11.3039Z" fill="#D2D5E0"/>
</g>
<defs>
<clipPath id="clip0_3019_21797">
<rect width="300" height="46" fill="white" transform="translate(0 0.160156)"/>
</clipPath>
</defs>
</svg>
