<svg width="112" height="120" viewBox="0 0 112 120" fill="none" xmlns="http://www.w3.org/2000/svg">
<g clip-path="url(#clip0_3019_21842)">
<path d="M74.5594 38.5912C75.2478 39.5651 76.0872 40.3038 77.0715 40.8043C77.6844 41.9591 78.557 42.93 79.6923 43.7169C88.1736 53.483 98.8742 62.0309 107.47 71.7578L108.364 73.0634C106.29 73.0875 104.209 73.1207 102.12 73.1569C101.912 74.773 101.48 75.4122 100.828 75.0745C100.031 75.0353 99.2124 75.0805 98.4123 75.0745C97.6182 75.3278 96.803 75.2946 95.9968 75.0745C93.8078 74.6011 91.4979 74.4504 89.0764 74.6222C88.3004 74.4081 88.2884 73.8172 89.0523 73.5669C91.9931 73.4554 94.9219 73.4131 97.8386 73.4463L97.8084 72.6624C97.0113 73.0393 95.5137 71.6463 95.9968 70.8533C94.9521 69.5568 95.7432 68.3326 97.2045 69.3457C97.9865 68.9839 99.4207 70.0603 99.611 70.7327C100.381 71.2091 103.515 71.9237 103.545 70.5518C102.908 71.0101 99.6079 67.6874 99.5415 67.4281C99.4721 67.1537 99.5053 66.8884 99.62 66.6321C85.3022 52.8649 71.2622 38.9922 57.5 25.0139C56.3134 25.6622 55.3019 26.4642 55.8394 27.7366C56.6516 28.0592 58.7289 29.3196 58.2548 30.4503L59.5834 32.2804C59.1757 34.0564 56.5187 31.3699 56.1685 30.5859C54.7614 29.7055 53.5446 28.5537 52.5181 27.1336C52.4456 27.9205 52.201 27.8572 51.9142 27.1336C50.8755 26.8291 49.9878 27.4411 49.2421 28.1889C36.5668 41.9018 22.8348 55.9222 8.7374 68.7427C8.86723 69.4452 8.5351 69.7769 7.83159 69.6472C7.56287 70.594 6.78388 71.405 5.48857 72.0804C5.63652 72.7528 5.17456 72.7589 4.5103 72.6624C4.2446 73.5398 5.1655 73.6935 6.62687 73.4373L14.7761 73.5669C15.7695 74.0463 15.3679 74.5468 13.5684 75.0745C9.3775 75.3459 5.03869 75.385 0.838766 75.0534C0.0627913 74.978 0.234895 74.4081 0.58514 73.8684L50.7125 23.9767C52.669 23.0873 52.1376 24.7576 52.8109 25.1918C54.1666 26.0692 56.0356 21.6943 57.2011 21.6973C63.3606 26.7326 68.424 33.4594 74.5624 38.5912H74.5594Z" fill="#020407"/>
<path d="M103.544 8.43941C102.825 7.8605 101.494 7.14591 102.312 6.15694L111.998 0C110.552 3.18701 109.003 6.36498 107.771 9.64547C107.514 11.0656 106.536 11.0747 104.836 9.66658C103.855 9.70879 103.426 9.30174 103.544 8.43941Z" fill="#030404"/>
<path d="M18.098 110.05C19.2967 109.95 19.801 110.149 19.6077 110.653C19.9187 110.906 21.2986 112.893 20.9815 113.375C20.737 113.746 16.4978 115.896 15.6826 116.382L12.2526 118.821L11.9688 118.471C12.4156 117.479 12.8504 116.481 13.2701 115.477C13.9313 113.27 15.0334 111.192 15.438 108.904C16.5491 108.18 17.2828 109.501 18.1011 110.05H18.098Z" fill="#020203"/>
<path d="M107.773 9.64543C107.659 9.94996 107.707 11.0987 107.29 11.1741C106.061 11.358 105.101 9.14793 103.987 9.91981C98.4345 16.4838 92.8155 23.0538 87.2417 29.5484C86.816 29.5997 86.5141 29.5002 86.3359 29.2469C91.6047 23.0206 96.5625 16.4446 102.021 10.3841C102.631 9.70875 103.576 9.64543 103.546 8.44238C104.561 9.2625 107.04 11.548 107.773 9.64844V9.64543Z" fill="#414447"/>
<path d="M25.9492 101.608C32.0634 94.3897 38.2259 87.2196 44.2133 79.8958L45.2731 79.2988C45.7471 79.7933 42.7368 83.6527 42.2447 84.2618C37.4349 90.2529 31.837 96.057 26.855 101.909C26.4293 101.964 26.1274 101.861 25.9492 101.608Z" fill="#313335"/>
<path d="M0.585686 73.8682C0.486047 75.0682 0.549454 74.6069 1.31637 74.7818C4.61653 75.5355 9.98796 75.0501 13.5689 75.0742C16.9959 74.7998 20.4319 74.5315 23.871 74.5164C46.1931 74.423 68.5303 74.3506 90.8463 74.6551L95.9973 75.0742C96.8005 75.0772 97.6097 75.0682 98.4128 75.0742C98.0988 75.5747 97.2655 75.3757 96.7552 75.3818C64.8527 75.7737 32.926 75.0652 1.02349 75.3908C-0.211424 75.3697 -0.292947 74.5828 0.585686 73.8682Z" fill="#151419"/>
<path d="M87.2419 29.5454C84.7268 32.4762 82.3324 35.7174 79.6935 38.5909C79.455 39.3567 78.4858 40.2733 77.7007 40.4603C77.4984 40.5085 77.9634 38.4492 78.4858 38.2894C80.871 35.1174 83.7787 32.2651 86.3361 29.2439C87.0758 29.1112 87.3445 28.5534 87.2419 29.5454Z" fill="#37393E"/>
<path d="M26.8538 101.909C24.4051 104.785 22.2915 107.963 19.6073 110.653C19.3145 110.414 18.626 110.405 18.0977 110.05C19.4866 110.42 19.9938 108.47 20.8241 107.496C22.5089 105.515 24.2662 103.591 25.948 101.607C26.6877 101.475 26.9564 100.917 26.8538 101.909Z" fill="#2A2D33"/>
<path d="M78.4838 38.2891C77.1492 41.2379 78.366 40.0348 79.6915 38.5906C79.8727 39.9504 77.6776 40.5836 77.587 40.7132C77.1794 41.2922 79.2084 43.1585 79.6915 43.7163C77.7953 42.5676 75.709 40.4841 74.5586 38.5906C75.0779 39.0248 76.5755 40.5173 77.119 40.3997C77.5327 40.3122 77.59 39.1604 77.8678 38.7172C78.0158 38.482 78.3992 38.4006 78.4838 38.2891Z" fill="#ACAFB1"/>
<path d="M107.471 71.7579C107.842 72.18 108.564 72.4906 108.678 73.2625C108.096 74.0434 102.407 72.4393 102.057 73.7539C101.924 74.2605 102.933 75.5057 101.305 75.367C101.061 75.3459 100.879 75.0746 100.828 75.0715C102.151 75.1379 101.082 73.2414 102.03 72.8132C103.114 72.3217 106.58 73.3951 108.075 72.9579L107.471 71.7549V71.7579Z" fill="#151419"/>
<path d="M13.2689 115.478C13.1844 115.761 13.2689 116.258 13.1391 116.693C12.9277 117.407 12.4235 117.802 12.3631 118.493L15.6814 116.385L11.1554 120.003C10.6391 119.394 12.7345 116.108 13.2659 115.481L13.2689 115.478Z" fill="#3C4242"/>
<path d="M51.9153 27.1336C52.1025 27.1336 52.3833 27.0944 52.5192 27.1336C63.2711 37.8706 74.1016 48.701 85.0196 59.6249L85.7321 60.9033C86.8433 62.6461 88.5039 64.3074 90.2612 65.4261C92.6163 66.4361 94.911 68.5317 95.9979 70.8533C96.6864 71.5106 97.1755 71.8664 97.8096 72.6624C98.3168 73.175 98.2262 73.4735 97.5076 73.5489C82.2689 73.6001 66.9729 73.5067 51.6134 73.2655L51.2088 73.2172C51.1575 59.7274 51.0005 46.2015 50.7378 32.6393L50.4026 32.8624C50.3906 44.2295 50.3724 55.3735 50.3483 66.2974L50.7046 66.9336C50.928 66.9728 51.1031 67.0181 51.1062 67.0754C51.1545 67.6935 51.3115 72.569 51.1062 72.7649C51.0035 72.8644 50.8586 72.9217 50.7046 72.9639C43.0052 72.9187 35.1368 72.9549 27.0962 73.0695L26.5497 72.6624C26.7732 71.779 27.6276 71.3659 29.1132 71.4202C34.856 71.4202 40.6471 71.2272 46.4865 70.8443C49.062 71.6946 48.6575 70.0603 47.7909 68.2603C47.7124 63.3969 47.5826 58.5153 47.4014 53.6157L47.0813 53.5132C47.2565 53.5343 47.3954 53.5584 47.4014 53.6037C47.4799 54.2037 47.6882 57.6832 47.4829 57.843C47.3682 57.9334 47.2293 57.9907 47.0813 58.0359C48.0838 58.3525 47.5343 59.2993 46.7009 59.6671C44.2824 59.6581 44.2099 61.0842 44.3549 63.1406C44.1345 64.9557 40.3512 65.0914 39.2793 64.1989C37.9508 63.0893 37.975 55.4369 38.0565 53.5011C39.1404 51.1614 38.1531 49.0628 36.3385 51.692C34.6839 52.1654 33.2316 52.88 31.9815 53.8419C32.6005 56.4831 31.6162 57.1314 29.0347 57.0108C28.153 58.2651 27.0691 59.3596 25.7889 60.2943C26.1119 60.1345 26.598 59.9114 26.9241 60.0772C29.2641 61.2832 24.8257 65.1095 22.9023 64.7115C21.6131 66.1979 20.6439 66.6442 18.6873 66.1316C18.2374 67.3437 17.2924 67.5216 16.1571 67.7296C15.8703 68.8332 15.046 69.5146 13.9469 69.8252C8.11958 71.1579 10.7585 71.7579 21.8637 71.6252C22.8963 71.589 23.5515 71.9328 23.8323 72.6534C18.7839 73.3981 13.4397 73.166 8.37321 72.8132L7.37682 72.3308C6.94505 73.0725 4.82546 73.3559 5.23609 72.3368C6.625 71.4986 7.48853 70.597 7.82972 69.6382C8.12864 69.3427 8.43661 69.0322 8.73553 68.7337C9.68663 68.4774 10.5381 67.8593 11.2869 66.8794L12.0568 66.5869C14.11 64.1386 16.2537 61.7868 18.485 59.5284L19.0557 59.5164C24.8317 53.3835 30.8795 47.1 36.9725 41.4255C36.7552 40.6475 37.4254 39.8154 38.2135 39.939C39.6869 38.6425 41.1695 37.2103 42.1356 35.5097C44.7414 33.3147 47.1266 30.8543 49.2976 28.1226C50.0313 27.4382 50.8646 26.799 51.9093 27.1246L51.9153 27.1336Z" fill="#BBE1F6"/>
<path d="M99.6215 66.6319C99.5731 66.9425 99.4041 67.2048 99.0961 67.1716C100.301 67.9978 100.844 69.0108 100.727 70.2079C101.663 70.4551 102.602 70.5697 103.547 70.5516C103.743 70.7958 104.344 70.7958 104.147 71.4531C100.929 71.7335 99.546 71.438 97.206 69.3455C96.1945 69.2762 95.648 68.836 95.0381 68.0581C93.7216 66.8158 91.8677 64.9766 91.4692 63.3152C91.3152 62.5886 90.814 62.085 89.9595 61.8077C88.4045 61.3222 87.4323 60.3423 86.9402 58.7925C86.6745 57.9 86.3272 57.5503 85.4305 57.2849C84.727 57.4146 84.3948 57.0829 84.5247 56.3804L84.0748 55.2829C78.0451 49.8526 71.9702 43.5087 66.4085 37.6864C64.2346 35.6964 62.0516 33.6733 59.8565 31.6109C60.086 31.0109 59.6995 30.4018 58.7001 29.7867C58.3016 28.7435 57.8094 28.4299 57.2176 28.849C56.7828 28.1827 56.3239 27.8118 55.8408 27.7395C55.6959 27.5405 55.089 27.4138 54.9652 26.9374C54.8142 26.3585 56.804 24.3444 57.4863 24.4077C58.3469 24.4861 58.8662 25.7947 59.455 26.3887C72.6314 39.6945 87.079 52.8587 99.6215 66.6319Z" fill="#B4B6B7"/>
<path d="M52.5196 27.1338C53.214 27.3358 54.3795 29.0303 55.074 29.558C55.4786 29.8655 56.0613 29.7811 56.4266 30.0163C57.0969 30.4505 57.9001 32.7691 59.1652 32.1058L58.2564 30.4505C59.2497 30.7309 60.1103 31.0686 60.2824 32.1118C62.4563 33.734 64.2981 35.5913 65.8048 37.6868C72.3628 43.5724 78.5706 49.8831 84.5248 56.3808C84.8267 56.6793 85.1256 56.9838 85.4306 57.2853C86.2669 57.4391 86.7832 57.9577 86.9403 58.7929C87.9487 59.7909 88.9451 60.807 89.9596 61.808C90.7326 62.1307 91.4059 62.4533 91.4693 63.3156C93.4077 65.2272 95.1861 67.5398 97.2061 69.3459C96.0798 69.2072 95.8775 69.8555 95.9983 70.8535C94.1052 69.0414 92.1245 67.2655 90.2615 65.4262C88.4499 64.2714 86.9131 62.6915 85.7325 60.9035C75.1346 50.3414 63.2443 39.318 53.2684 28.3459C52.9272 27.972 52.5136 27.7308 52.5196 27.1338Z" fill="#020611"/>
<path d="M89.0533 73.5666C88.8842 74.4802 89.5153 74.1455 90.095 74.1696C91.9489 74.245 93.5794 74.1756 95.4634 74.3807C96.173 74.459 96.0794 73.6088 95.9948 75.0741C68.5247 74.9596 41.0365 75.246 13.5664 75.0741C13.7929 74.2781 14.9523 74.3867 14.7741 73.5666C39.5329 73.446 64.2916 73.3947 89.0503 73.5666H89.0533Z" fill="#141119"/>
<path d="M51.9151 27.133C50.7858 27.1391 49.8045 27.8145 49.0346 28.6285C47.3438 30.4165 45.3299 33.5915 43.476 35.1443C43.0835 35.4729 42.4101 35.5302 42.3196 35.6418C42.1746 35.8197 42.2622 36.4649 41.9633 36.9383C41.6402 37.4509 38.7114 40.46 38.3642 40.5444C38.0623 40.6198 37.4916 40.3183 37.4252 40.3997C37.2984 40.5565 37.703 41.25 37.5641 41.6208C37.3678 42.1485 33.9318 45.0189 33.0924 45.8601C28.8261 50.1567 24.6261 54.8272 20.2028 58.9308C19.8405 59.2685 19.5385 60.0253 19.303 60.17C18.983 60.363 18.4515 59.965 18.4183 60.0042C18.361 60.0675 18.4395 60.6103 18.2342 60.8696C17.5427 61.7409 15.8458 62.6726 15.4684 63.0978C14.629 64.0475 13.8138 66.1461 12.3826 67.1019C11.7365 67.533 11.1356 67.4396 10.9122 67.5933C10.5891 67.8165 10.5167 69.8185 8.73828 68.7391C21.7426 55.7498 34.6142 42.6188 47.697 29.7019C48.6481 28.7642 50.2876 26.0235 51.9151 27.13V27.133Z" fill="#B9E2F5"/>
<path d="M7.83398 69.6475C9.30139 71.3601 4.81463 71.7641 5.72345 72.6596C6.10087 73.0335 6.78627 71.746 7.37504 71.755C7.82794 71.7611 8.7881 72.5842 9.79656 72.6023C14.4283 72.6777 19.1566 72.6385 23.8396 72.6626C24.7363 72.0716 25.6633 72.0686 26.557 72.6626C30.2195 72.6807 33.9635 72.8737 37.5807 72.34L50.7119 72.9641C50.9745 73.0486 50.9715 73.1511 50.7119 73.2656C35.4732 73.6757 20.0261 73.5672 4.89313 73.4375C4.1715 73.4707 3.9843 73.1903 4.51571 72.6626C5.54531 71.6133 6.7923 70.6817 7.837 69.6475H7.83398Z" fill="#C3D7E4"/>
<path d="M4.50938 72.6619C4.34029 73.5755 4.97134 73.2408 5.55105 73.2649C20.3187 73.8499 35.8533 73.2649 50.7055 73.2649C50.7236 72.4026 51.406 72.4418 51.6113 73.2649C66.5179 73.2649 81.9166 73.7624 96.7658 73.2649C97.3485 73.2469 97.9766 73.5725 97.8075 72.6619C98.0007 72.9061 98.6046 72.9122 98.4083 73.5634L97.581 73.7926C94.7579 73.4127 91.8865 73.5634 89.0483 73.5665C64.2594 73.5695 39.5098 73.6328 14.7722 73.5665C11.152 73.5574 7.52269 73.5755 3.90551 73.5665C3.7334 72.9122 4.24971 72.9273 4.50636 72.6649L4.50938 72.6619Z" fill="#151419"/>
<path d="M103.545 70.5519C102.884 71.8032 100.984 70.6996 99.9156 70.7087C99.3178 70.3107 100.045 70.2021 100.178 69.7227C100.471 68.6795 97.177 66.5025 96.4313 65.7427C95.9784 65.2844 95.9119 64.6392 95.5979 64.3105C94.8914 63.5688 93.7289 63.5989 93.581 62.2542C93.5236 61.7356 93.5447 61.7808 94.0339 61.8049C94.8612 61.8471 94.3962 62.3477 94.7706 62.7909C95.4439 63.5899 96.4796 64.012 97.0502 64.5186C97.8624 65.2392 98.5478 66.7076 99.6167 66.6292C100.876 68.0131 102.651 69.4363 103.542 70.5489L103.545 70.5519Z" fill="#B9B8B9"/>
<path d="M55.8398 27.7363C56.963 26.8166 56.7819 28.2428 57.2046 28.3423C58.7113 27.2358 58.3489 28.4117 59.1611 29.3946C59.4872 29.7896 60.4112 30.4559 60.5349 30.7575C60.7252 31.2308 60.2723 31.7344 60.3961 31.9123C60.4685 32.0148 60.9456 32.051 61.1298 32.256C62.3345 33.5977 63.8321 34.7405 65.1123 35.9646C65.4988 36.3325 65.9547 37.2521 66.4076 37.6893C66.4952 38.0149 66.2929 38.0149 65.8037 37.6893C63.3429 35.2349 60.695 32.9374 58.2553 30.4529C57.2257 29.4036 56.7517 28.9876 55.8398 27.7393V27.7363Z" fill="#A0A5A7"/>
<path d="M23.8365 72.662C20.0804 71.4981 15.6329 72.5354 11.9282 72.0409C11.3062 71.9595 9.97768 71.5584 10.2887 70.7474C10.7989 69.4267 13.5798 69.7554 14.8871 68.7031C15.5333 68.1815 15.4789 67.5634 15.7507 67.3071C16.1221 66.9543 17.0037 67.0538 17.4838 66.7734C17.9941 66.4719 18.0937 65.7543 18.4017 65.5613C18.7489 65.3412 20.0019 65.9442 20.9047 65.6699C21.5086 65.4889 21.9857 64.4638 22.7073 64.1502C23.7308 63.704 24.7695 63.9422 25.8021 63.0195C26.4573 62.4316 27.8311 60.0195 26.252 60.7491C26.092 60.8245 23.906 62.0848 24.4434 60.7582C24.5461 60.5079 27.2091 58.3249 27.7707 57.7491C28.0999 57.4114 28.435 56.6726 28.6675 56.5339C29.4223 56.0817 30.7116 56.7842 31.4211 55.946C31.862 55.4244 31.2732 54.5711 31.3759 53.8354C31.5782 52.4213 35.2587 51.6916 36.1978 51.0886C36.6084 50.8233 36.7835 49.8855 37.3089 49.7891C37.5746 49.7408 38.7854 50.3016 38.9544 50.5579C39.5523 51.4625 38.6948 52.7771 38.6314 53.8203C38.4834 56.2746 38.7129 59.1843 39.0662 61.521C39.2896 62.9924 39.1688 64.111 40.8385 64.105C45.5487 64.0929 42.8373 62.6607 44.1024 60.1913C45.0264 58.3883 47.0825 60.0858 47.0825 58.0415V53.5188C47.0825 53.4706 47.3784 52.6384 47.6834 52.765C47.7347 54.9661 48.2088 57.3631 48.3024 59.534C48.4141 62.0939 47.9763 65.2658 48.2842 67.696C48.4413 68.9473 49.8966 70.3313 48.4624 71.4921C47.8374 71.9987 47.0614 71.4529 46.3398 71.4439C42.3935 71.3926 38.4925 71.8992 34.5643 72.074C31.9827 72.1886 28.8456 71.5283 26.5509 72.665C25.6481 72.662 24.7363 72.668 23.8335 72.665L23.8365 72.662Z" fill="#B9E2F5"/>
<path d="M51.6135 73.265H50.7077V66.9332L50.3242 63.9874C50.4631 53.362 50.4903 42.9868 50.4057 32.862C50.4269 32.1232 50.3423 31.3785 50.442 30.6368L51.0096 28.1885L51.6135 73.265Z" fill="#89A5B4"/>
<path d="M50.7074 66.9335C49.9193 67.2169 49.5781 65.2691 49.5781 64.9134C49.5781 64.4068 50.022 64.0299 50.0159 63.7314C49.8438 53.5462 50.1246 43.0957 50.4054 32.8623C50.9066 33.1759 50.7074 34.005 50.7134 34.5176C50.8281 45.3179 50.7074 56.1363 50.7074 66.9335Z" fill="#B9E2F5"/>
<path d="M43.3697 47.0905C45.9693 46.3036 46.1867 49.4212 44.3721 49.9278C42.8504 50.3529 41.7241 47.591 43.3697 47.0905Z" fill="#B9E2F5"/>
<path d="M47.6827 42.5103C47.8609 42.6943 47.9605 46.9909 47.9847 47.6331C45.4303 48.0914 46.3391 41.1354 47.6827 42.5103Z" fill="#B9E2F5"/>
<path d="M90.2605 65.426C88.9682 65.3145 87.6367 63.6501 86.7822 62.7064C86.3565 62.236 85.5745 61.6059 85.7315 60.9033C87.2381 62.4049 88.7508 63.9335 90.2605 65.426Z" fill="#AFC8D7"/>
<path d="M66.4077 37.6866C66.5134 37.7198 67.3558 38.2112 67.4101 38.2715C72.2199 43.4908 77.7152 48.8457 82.7303 53.7966C83.6361 54.689 85.2152 54.7313 84.5208 56.3805C78.2586 50.1723 72.0418 43.9159 65.8008 37.6866C65.991 37.7198 66.2476 37.6384 66.4047 37.6866H66.4077Z" fill="#9DA1A8"/>
<path d="M86.9394 58.7921C86.4351 58.2915 85.9339 57.782 85.4297 57.2845C86.6827 57.1156 87.1054 57.5589 86.9394 58.7921Z" fill="#999DA4"/>
<path d="M89.957 61.8076C90.9444 61.9915 92.0615 62.1031 91.4667 63.3152C90.9595 62.8147 90.4613 62.3051 89.957 61.8076Z" fill="#979CA3"/>
</g>
<defs>
<clipPath id="clip0_3019_21842">
<rect width="112" height="120" fill="white"/>
</clipPath>
</defs>
</svg>
