<svg width="154" height="120" viewBox="0 0 154 120" fill="none" xmlns="http://www.w3.org/2000/svg">
<g clip-path="url(#clip0_3019_21927)">
<path d="M103.61 38.3236C104.394 38.7257 104.709 39.1466 104.555 39.5801C105.175 39.3414 105.424 39.5895 105.185 40.2084C105.849 39.9225 106.06 40.0293 105.815 40.5225C112.904 47.5715 119.889 54.7808 126.915 61.8832C135.456 62.3952 144.519 62.3261 152.918 62.0591C153.394 62.0874 153.948 62.2005 153.684 62.6685C153.958 70.016 153.955 78.0262 153.684 85.4428C153.199 86.115 152.616 85.7695 152.339 85.0753C152.544 77.9006 152.468 70.9018 152.109 64.0821L151.552 64.4936C103.957 64.9428 56.0024 64.88 7.68607 64.3083L5.98231 63.768C4.67221 64.1386 2.35118 64.1701 3.10386 62.345L20.1541 62.1973C22.2925 61.9272 24.6198 62.0183 26.7676 62.1973C27.5707 61.9115 28.0966 61.4937 28.3422 60.9408C43.5722 45.891 58.2006 30.2976 73.6793 15.5525C74.6241 14.6509 76.2649 11.8646 77.9529 12.8573C86.3741 21.4738 95.0693 29.8264 103.607 38.3236H103.61Z" fill="#030506"/>
<path d="M126.916 61.8833L152.914 61.8676C153.235 61.7985 154 62.0938 154 62.3545V90.469H65.5052C65.3572 89.869 65.4863 89.5863 66.0879 89.4983H76.6474C74.2949 89.1119 71.9235 89.0083 69.53 89.1905L68.9694 88.5842C69.4072 87.7863 70.2953 87.4628 71.6274 87.6073C73.0572 87.4816 75.5987 87.29 76.5277 88.2701C76.7041 87.6701 76.9812 87.6701 77.1576 88.2701C82.0862 88.1538 87.0211 88.1538 91.9592 88.2701C92.0159 87.9905 92.123 87.9999 92.2742 88.2701C108.871 88.1161 125.549 88.0345 142.307 88.0219L142.707 87.6701L151.304 87.5947L151.481 64.456L152.114 64.0822C153.348 64.9461 152.394 68.1785 152.416 69.281C152.432 70.0412 152.744 70.704 152.756 71.4517C152.832 75.9374 152.681 80.4326 152.731 84.9183L153.688 85.4461V62.6718C153.688 61.7954 150.038 62.5147 149.449 62.5304C142.121 62.7032 134.695 62.6027 127.398 62.1912L126.919 61.8896L126.916 61.8833Z" fill="#191C1D"/>
<path d="M68.0254 87.0138C68.7434 87.4379 68.5418 87.7206 67.7104 87.6421C67.3798 88.2326 67.66 88.8012 68.3403 88.5844C68.4096 87.9436 68.7245 87.9719 68.9701 88.5844C71.7541 88.4714 75.7694 88.3206 77.9236 89.241L143.712 89.2692L144.238 90.1551L66.5735 90.1362C66.0791 89.9572 65.7516 90.3875 65.5059 90.4724C65.2603 90.5572 64.3722 90.975 64.2462 91.1006C63.4841 91.4964 63.2825 91.0535 63.229 90.3436C56.6312 90.2179 50.0429 90.1551 43.4609 90.1582C43.6027 89.263 44.3207 88.8452 45.6213 88.908C50.6759 88.9268 55.7305 88.82 60.782 88.5876L61.141 87.9311C63.4117 88.3017 65.2414 87.8525 66.6334 86.5866L67.3955 86.7028C68.293 85.8484 68.6804 85.8484 68.0254 87.017V87.0138Z" fill="#070809"/>
<path d="M26.7689 61.8833C27.0429 61.9713 27.0398 62.0781 26.7689 62.1975C24.703 62.3734 22.278 62.1755 20.1554 62.1975L3.48626 62.3451C2.23284 62.9074 1.17468 63.0676 0.314928 62.8257L0.944785 63.0425V89.4606L0.314928 89.8407L0.888098 89.335C14.3418 90.0889 27.8869 90.1548 41.5202 89.5297C42.2067 89.6114 42.8523 89.8187 43.4601 90.1548C49.2328 90.1643 57.4083 89.4857 62.8471 90.1328C63.6691 90.2302 63.8045 90.491 64.2454 91.0972C63.5085 91.8166 62.2677 93.9998 61.4047 95.0175C58.1326 98.8593 54.8574 102.654 51.6483 106.489C49.8878 107.005 51.8813 104.639 52.593 103.976C55.0274 100.307 58.6806 96.9494 61.3985 93.4406C62.0787 92.5642 63.0077 91.5433 63.3006 90.469H0.472393C0.437751 90.469 0 90.0323 0 89.9978V62.3545C0 62.0938 0.762127 61.7985 1.0865 61.8676L26.7689 61.8833Z" fill="#1F2124"/>
<path d="M130.382 8.79558C129.84 8.38093 128.319 8.66365 128.867 6.96422L139.512 0L134.46 11.9212C133.856 12.3295 132.473 10.7966 131.957 10.3662C130.795 10.6898 130.445 9.86362 130.382 8.79558Z" fill="#020303"/>
<path d="M131.954 10.3665C130.823 10.489 129.416 12.3078 128.644 13.1905C121.404 21.4395 114.258 30.0718 107.389 38.638C106.939 39.348 106.001 40.1679 105.185 40.2087C104.974 39.9982 104.766 39.7909 104.555 39.5804C104.243 38.8297 104.426 38.748 105.185 38.9522C112.806 31.721 120.39 21.2448 127.239 13.046C128.329 11.7393 130.483 10.6116 130.379 8.7959C130.886 9.18228 131.441 9.93932 131.954 10.3665Z" fill="#313335"/>
<path d="M40.6267 117.169C41.2755 115.884 41.9872 114.619 42.573 113.299C43.0391 112.247 44.0437 108.581 44.4877 108.138C45.6687 106.96 46.1002 108.933 46.3773 109.244C46.5789 109.47 47.0324 109.476 47.2402 109.63C48.3173 109.175 48.4244 109.561 48.4999 110.573C48.9629 110.956 50.547 112.212 50.2478 112.778C47.6937 114.125 45.2436 115.592 42.8312 117.169C40.5071 119.494 39.7701 119.494 40.6267 117.169Z" fill="#020203"/>
<path d="M51.6473 106.49C50.8096 107.492 49.9687 108.465 49.0806 109.43C48.7751 109.763 48.2335 109.634 48.498 110.573C48.0162 110.174 47.7012 109.976 47.2383 109.631C49.4522 108.359 50.4065 105.381 52.5921 103.977C52.1512 104.643 51.4741 105.563 51.3418 106.307L51.6473 106.49Z" fill="#32353C"/>
<path d="M40.6273 117.17V118.741C41.339 117.999 42.0886 117.657 42.8318 117.17C41.9563 118.241 40.9107 119.617 39.5282 120C39.3676 118.866 40.1958 118.027 40.6273 117.17Z" fill="#343837"/>
<path d="M105.817 40.5225C105.685 40.3905 105.32 40.3403 105.188 40.2083L107.392 38.6377C107.326 38.7225 107.342 39.1309 107.099 39.4324C106.781 39.8314 106.025 39.9413 105.817 40.5225Z" fill="#BEBEC1"/>
<path d="M26.7695 62.1969V61.8828L28.3442 60.9404C28.9961 62.0713 27.6734 62.1184 26.7695 62.1969Z" fill="#131719"/>
<path d="M105.188 38.9515C105.008 39.1243 104.911 39.4981 104.558 39.5798C104.079 39.1023 103.755 38.4646 103.613 38.3232L105.188 38.9515Z" fill="#CBD2D3"/>
<path d="M77.789 15.7067C92.134 31.41 109.2 45.6086 123.454 61.2553C123.838 61.7265 123.724 61.9997 123.123 62.0563C108.353 62.072 93.2992 62.0626 78.4535 61.9903C77.9748 61.9903 77.3292 61.9746 77.474 61.4123C77.3323 61.1767 77.1276 60.9757 76.8568 60.8123C76.8757 46.2054 76.9418 31.6079 77.0552 17.0261L77.474 16.8062C77.2819 16.8878 77.1213 16.9381 77.0583 16.8816C76.0443 15.9329 76.4127 14.9497 77.789 15.7067Z" fill="#FEFEFE"/>
<path d="M152.112 64.0818L151.93 88.3042L92.2759 88.2696C92.1468 87.8173 92.6916 87.8047 93.1105 87.8016C96.3952 87.7765 99.6925 87.7733 102.987 87.7733C94.3261 88.0058 85.7726 87.9681 77.3263 87.6571L77.1594 87.3304C77.0649 86.9817 76.8539 87.2959 76.5295 88.2728C74.0856 88.2728 71.308 88.0089 68.9712 88.5869C68.7634 88.5963 68.5461 88.5649 68.3414 88.5869C67.0879 88.967 66.9777 88.6529 67.7115 87.6445C67.8438 87.4906 67.891 87.1639 68.0264 87.0163C68.3004 86.2247 67.9256 86.1807 67.3966 86.7021C64.9275 89.3345 63.8442 88.3105 60.7831 88.5869C41.4087 89.033 22.0122 89.0361 2.5843 88.5901L2.20638 87.9587L3.55113 87.6885C15.8396 87.9429 27.9864 87.9304 39.9978 87.6445C28.6226 87.9649 17.2316 87.9649 5.82806 87.6445C4.61873 87.6634 3.41256 87.7702 2.20638 87.9587L1.57338 87.6791L1.27734 64.7729C1.86311 63.0829 3.12597 63.2179 4.39828 63.9561L5.98552 63.774C11.8306 63.4001 18.0189 63.8054 23.8136 63.8054C64.3323 63.8054 105.059 64.7069 145.672 64.1038C147.193 64.0818 150.894 63.2337 152.112 64.0881V64.0818Z" fill="#BFE0F3"/>
<path d="M75.2662 16.3345C76.3653 15.524 76.9416 15.6717 76.992 16.7774L76.8534 60.8998C76.5984 61.1385 76.4913 61.4841 76.5417 61.9427L30.9022 62.2003C30.1496 62.1029 30.137 61.5783 30.8645 60.6265C46.0629 46.2866 60.2788 30.8817 75.2694 16.3345H75.2662Z" fill="#FEFEFE"/>
<path d="M20.1569 62.1971L3.46569 62.5144C3.75228 64.3049 4.41992 63.7269 5.98512 63.7677C5.94103 63.7677 5.62295 64.0567 5.22299 64.0944C4.12704 64.195 2.13354 63.5541 1.89105 64.8672L2.20598 87.9556L60.7827 88.5839C59.1734 88.7315 57.2933 89.1493 55.5989 89.2247C51.7127 89.3974 46.8691 88.3922 43.4616 90.1545C30.3385 90.1325 14.8409 91.1754 2.03277 90.1702C1.42495 90.1231 0.892725 89.9849 0.316406 89.8404V62.8254C0.316406 62.7625 1.2423 62.3793 1.40291 62.1751C7.65109 62.1688 13.9119 62.2599 20.1569 62.1971Z" fill="#131719"/>
<path d="M77.7871 15.7064H76.8423C76.71 15.8226 77.4721 16.6111 77.4721 16.8058V61.412C77.4721 61.6727 78.2343 61.968 78.5586 61.8989C93.1367 61.5062 107.793 62.3701 122.365 61.8832C122.973 61.8643 123.628 62.2036 123.452 61.2549C124.009 61.8675 124.51 61.9366 122.995 62.213L77.4469 62.0654L76.9997 60.9377L76.8454 62.2005L30.7053 62.5209C29.0613 61.8863 30.1762 61.2769 30.8659 60.6267L30.7084 61.8863L76.2345 61.7481L76.5305 16.1807L75.2676 16.3378C75.8818 15.7441 77.0564 14.453 77.7871 15.7095V15.7064Z" fill="#414141"/>
<path d="M77.1594 87.3271L80.1354 87.657L142.661 87.6444L141.565 87.9554C125.491 88.0905 109.414 87.7858 93.3404 87.9334C92.7515 87.9397 92.3326 88.2695 92.2759 88.2695C92.172 88.2695 92.0649 88.2695 91.961 88.2695C86.982 88.3104 82.0502 88.2036 77.1594 87.9554C76.687 87.9491 76.6964 87.4465 77.1594 87.3271Z" fill="#D2F1FC"/>
<path d="M76.5273 88.2698V77.5926C76.9179 77.0837 77.1005 77.5989 77.1572 78.0575C77.491 80.6553 77.1572 84.5631 77.1572 87.3306V87.9588C77.4312 88.0468 77.428 88.1536 77.1572 88.2729C76.9462 88.2729 76.7383 88.2729 76.5273 88.2729V88.2698Z" fill="#7593A2"/>
<path d="M91.9579 88.2702C87.0324 88.3204 82.0849 88.2702 77.1562 88.2702V87.9561L91.9579 88.2702Z" fill="#BFE0F3"/>
<path d="M68.0244 87.0134C68.0779 86.1746 68.037 86.2971 67.3945 86.6992C68.5598 85.4553 69.9895 83.0459 71.1674 81.5946L75.5795 77.2754C75.3307 78.7895 73.9891 80.2847 73.0538 81.5067C71.5295 83.4983 69.6746 85.1946 68.0244 87.0134Z" fill="#12293C"/>
<path d="M67.7094 87.6416C67.6968 88.3861 67.4984 88.7316 68.3393 88.584C68.1409 88.6028 67.1772 89.2499 66.7647 88.895C66.3521 88.54 67.3725 88.0311 67.7094 87.6416Z" fill="#191C1D"/>
<path d="M74.6144 66.306C74.8128 67.2138 74.3026 68.0619 74.3026 68.9509C74.3026 69.953 74.8096 70.9362 74.7781 71.9854C74.7467 73.0346 73.8617 77.5926 73.2854 78.1203C72.5799 78.7674 71.3423 79.1004 70.3786 80.0899C69.5062 80.9883 68.7441 82.804 68.0292 83.7149C66.9679 85.0625 65.6421 86.1526 64.3477 87.2803C63.3494 86.9944 62.2818 87.1358 61.2772 86.9976C45.4993 84.8552 29.7213 87.4719 14.0253 86.3819C11.994 86.2405 9.86195 85.2981 8.32195 85.1317C7.4559 85.0374 6.76936 85.5275 5.98833 85.317C4.88293 85.0186 3.46576 83.8846 3.22956 82.7003C2.6186 79.6438 3.22326 73.4587 3.46891 70.2043C3.54134 69.2368 3.09414 66.3028 3.98854 66.0107C5.33328 65.5709 7.9094 66.2306 9.29823 66.218C15.5527 66.1646 22.0528 66.1049 28.2191 65.3667C29.693 65.1908 36.3537 65.9541 37.8874 66.3531C38.722 66.5698 39.0716 67.3206 39.5975 67.4745C41.6162 68.0588 49.1398 66.7991 51.8136 66.6578C57.0792 66.3782 62.5337 66.6452 67.8749 66.595C69.9251 66.5761 72.306 65.2474 74.6207 66.306H74.6144Z" fill="#BAE2F6"/>
<path d="M79.2696 65.3859C79.8932 65.2382 80.7214 65.8539 81.4332 65.9419C93.0477 67.3994 102.751 66.7398 114.157 66.2749C124.301 65.8633 136.218 64.6634 146.28 65.656C149.965 66.0204 149.061 68.3701 150.195 71.1753L150.465 86.1591C149.949 88.4837 147.326 86.8785 145.946 86.7246C130.108 84.9623 110.923 86.7026 94.6224 86.4042C91.4101 86.3445 84.1982 86.5612 81.4804 86.0021C81.2064 85.9455 78.3878 84.6262 78.265 84.4974C77.8587 84.0859 77.591 82.2451 77.6225 81.6828C77.6572 81.0451 78.2083 80.9855 78.3563 80.5111C78.7941 79.1164 77.928 78.3185 77.78 77.128C77.4619 74.571 78.3846 71.6716 78.1138 68.9418C78.0288 68.0717 77.2163 67.2267 77.6194 66.5984C77.6729 66.5136 79.1751 65.411 79.2727 65.389L79.2696 65.3859Z" fill="#BAE2F6"/>
<path d="M2.20627 87.9558V83.5611C2.59364 83.0554 2.77944 83.5611 2.83613 84.026C2.9936 85.2888 2.21572 87.3369 4.00452 87.5819C4.22182 87.6102 5.55081 87.6448 5.8248 87.6448H39.9945C40.0638 88.1976 39.2828 87.9432 38.8954 87.9589C26.7864 88.4615 14.3436 87.5851 2.20312 87.9589L2.20627 87.9558Z" fill="#D3F0FC"/>
<path d="M76.5277 71.3066C76.534 69.6386 76.3954 67.7539 76.5277 66.1204C76.556 65.7529 76.6253 64.71 77.1607 64.71V75.8615C77.1607 76.1568 76.7828 76.785 76.3797 76.6437C75.6837 76.4018 76.2096 75.783 76.2159 75.3903L76.5308 71.3066H76.5277Z" fill="#7692A3"/>
<path d="M76.2138 75.3903C76.2358 74.0898 75.9335 72.359 76.5287 71.3066C76.5255 72.5977 76.7964 74.3474 76.2138 75.3903Z" fill="#BAE2F6"/>
<path d="M71.8085 32.6723C71.9187 32.7791 71.5313 33.4985 71.5156 33.8189C71.4715 34.6859 71.1786 35.9392 71.1786 36.2879C71.1786 37.0041 72.4446 37.4376 72.1045 37.9936C72.051 38.0816 70.8542 38.3141 71.1723 39.5768C70.6873 39.6083 70.7818 38.9549 70.4039 38.625C69.4528 37.7957 68.423 38.1727 67.4278 38.8229C64.71 40.604 65.8658 45.3819 65.4752 45.828C65.2957 46.0322 61.8536 46.5442 63.9164 48.8656C64.4706 49.4907 67.9191 49.5347 68.6623 49.164C68.8355 49.0761 70.6621 46.0636 70.722 45.8783C71.0873 44.738 70.7503 43.2867 70.8637 42.093L72.7501 43.1925C70.4259 44.3767 72.8981 44.7066 73.0776 45.7055C73.2571 46.7044 72.9926 49.164 73.0682 50.4143C73.2036 52.698 73.3957 55.0728 73.7138 57.3408C73.7138 57.746 73.7201 57.9847 73.3831 58.2706C71.8494 59.5648 64.4675 58.1701 62.2157 58.0978C54.8275 57.8622 47.3889 58.302 40.0007 58.1104C39.7299 57.2026 42.2619 53.3985 42.6776 53.4079C43.0303 53.4142 42.939 54.6864 43.7767 54.3409L43.6066 52.4655C44.6805 51.5074 45.6663 50.5525 46.7779 49.6227C47.0582 49.3871 47.1496 48.9127 47.3291 48.7777C47.8109 48.4101 48.5321 48.5106 48.9793 48.0552C49.2942 47.7348 49.3446 46.9463 49.4958 46.8489C49.9745 46.5442 51.6688 47.1662 52.1475 46.5065C52.6262 45.8468 51.7696 45.2249 51.7633 44.7631C51.7507 43.8804 55.3818 40.7831 56.6919 41.4616C56.9407 40.9119 55.9928 40.6386 56.2038 40.2051C56.5785 39.4324 58.0839 39.5109 58.5783 39.1025C59.3593 38.4523 58.6067 37.045 60.3986 36.5235C60.8112 36.4042 61.6835 36.4827 61.7339 36.4387C61.8536 36.3288 61.3591 35.1382 61.7056 34.7833L68.1899 28.5918C68.4923 29.4525 69.7488 29.9363 70.0669 30.4828C70.3661 30.9917 70.2527 31.9216 70.7062 32.3676C71.0778 32.732 71.7707 32.6315 71.8148 32.6755L71.8085 32.6723Z" fill="#FEFEFE"/>
<path d="M2.83564 62.511C3.06239 62.7246 2.56165 63.4094 2.40104 63.6513C2.31601 63.7801 1.50979 64.5686 1.2673 64.7068L0.949219 63.1393C1.60112 63.5351 2.28452 61.9896 2.83879 62.511H2.83564Z" fill="#030506"/>
<path d="M145.499 71.9356C144.9 73.2612 146.541 74.6936 146.462 75.5323C146.402 76.148 144.718 78.0297 144.078 78.2119C142.664 78.6139 144.869 76.0978 143.726 75.7397C142.463 75.347 142.252 76.2391 141.496 76.5721C138.882 77.7218 139.761 76.0915 138.671 75.7522C137.688 75.4475 135.755 76.2925 134.482 75.702C134.36 77.0747 136.107 76.28 136.8 76.3428C138.983 76.5438 139.282 78.1867 137.137 78.5071C136.214 78.6454 134.772 78.3124 134.048 78.5668C133.446 78.7804 133.594 79.7134 133.238 79.9584C132.747 80.2945 131.815 79.9584 131.223 80.1469C130.7 80.3165 130.606 81.2401 130.202 81.3374C129.966 81.394 129.018 80.7814 128.351 80.7155C125.576 80.4359 122.78 81.3469 119.996 81.0421V81.9814C121.123 82.0882 122.462 81.7992 123.554 82.0474C124.408 82.2421 124.849 83.1845 125.513 83.2442C127.094 83.3793 129.721 82.795 131.172 82.7573C131.648 82.7447 134.476 83.4012 134.479 83.7122C132.993 85.3269 130.65 84.1269 128.974 84.1583C126.745 84.1991 122.852 84.2337 120.78 84.4913C119.593 84.6389 119.013 85.3488 117.653 85.4557C114.872 85.6755 110.775 85.1038 107.89 85.1101C103.988 85.1227 98.9679 85.8891 95.3053 85.4117C94.6975 85.3331 93.97 85.129 93.5448 84.6546C93.9889 84.3782 94.751 84.2368 95.2769 84.1866C99.9914 83.7248 106.142 83.885 111.023 83.8505C113.442 83.8347 116.283 84.4693 118.594 84.2023C120.15 84.0232 120.15 82.7793 118.594 82.6002C115.149 82.2013 111.625 82.9238 108.202 82.2861C104.3 81.5762 98.2089 83.2913 94.6534 82.6065C92.6567 82.2233 94.2471 81.4003 94.4235 80.8254C95.4344 77.5333 92.03 78.5888 91.3403 77.8977C90.8805 77.436 91.375 77.3323 91.8096 77.2758C93.3937 77.0779 98.6278 77.0716 99.5316 76.4936C100.719 75.7334 97.3996 74.6496 99.0844 73.5345C99.4875 73.2675 103.953 72.5481 104.718 72.5418C107.695 72.5073 110.683 72.8842 113.565 73.167C118.219 73.6256 120.893 71.923 126.162 72.8528C127.812 73.145 128.829 72.2309 129.78 74.2696C130.939 76.748 127.037 75.3627 125.822 75.3627C124.915 75.3627 124.143 75.7083 123.309 75.7271C120.903 75.7774 118.446 74.301 119.372 78.2119C120.805 77.9888 121.929 78.7836 123.296 78.8621C125.302 78.9783 127.642 78.1804 129.762 78.5291C128.3 74.7816 133.298 76.9805 134.117 75.6517C134.366 75.2496 134.032 73.9523 134.167 73.8172C134.574 73.4183 138.028 73.9586 138.674 73.767C139.587 73.4937 139.433 72.1398 140.035 71.9576C140.151 71.923 142.208 72.2403 142.444 72.322C142.979 72.5073 143.31 73.3083 143.773 73.1921C144.179 73.0916 144.418 71.4864 145.508 71.9356H145.499Z" fill="#B9E2F7"/>
<path d="M91.9593 75.0736C91.5215 75.7081 87.355 75.4474 86.4858 75.3531C85.7268 75.2715 83.853 74.549 83.6137 74.5615C83.0468 74.5898 82.1619 75.9405 81.4596 75.9625C79.4724 76.0285 80.499 71.7375 82.3382 71.9197C83.05 71.992 83.2704 72.7396 83.7932 73.0129C86.2118 74.2788 88.684 72.5354 90.3909 73.0003C91.005 73.1668 92.3813 74.461 91.9593 75.0704V75.0736Z" fill="#B9E2F7"/>
<path d="M149.559 86.0395C148.544 86.0143 146.806 86.4101 146.101 85.6185C145.436 84.874 146.469 84.6322 146.39 84.0919C146.258 83.1966 144.797 82.6563 146.919 81.7422C148.466 83.0709 150.336 83.5453 149.559 86.0395Z" fill="#B9E2F7"/>
<path d="M143.609 84.8144C142.753 85.2385 139.66 84.2207 140.145 83.0899C140.63 81.959 144.576 82.7224 143.609 84.8144Z" fill="#B9E2F7"/>
<path d="M144.55 71.6175C144.345 71.8217 142.805 71.6081 142.978 70.8385C143.252 69.6354 145.271 70.9013 144.55 71.6175Z" fill="#B9E2F7"/>
<path d="M84.7185 82.2987C84.4351 82.0977 84.2493 80.5207 85.1846 80.7312C86.1672 80.9511 85.4177 82.7982 84.7185 82.2987Z" fill="#B9E2F7"/>
<path d="M82.5105 76.9677C82.5609 77.0274 82.4916 77.3949 82.5105 77.5897H81.2539V76.6504C81.32 76.5751 82.4695 76.9175 82.5105 76.9677Z" fill="#B9E2F7"/>
</g>
<defs>
<clipPath id="clip0_3019_21927">
<rect width="154" height="120" fill="white"/>
</clipPath>
</defs>
</svg>
