<svg width="167" height="120" viewBox="0 0 167 120" fill="none" xmlns="http://www.w3.org/2000/svg">
<g clip-path="url(#clip0_3019_21873)">
<path d="M83.4611 2.53608C84.8644 1.51305 85.8095 1.20046 87.3656 2.12402C88.9217 3.04759 88.7654 6.59623 86.6586 4.66739C86.0511 4.74199 85.4222 4.80237 84.7721 4.845L47.5173 42.214C52.612 47.418 57.6215 52.6717 62.5492 57.968L62.8547 59.0123C65.1818 59.5487 67.6546 59.6375 70.2766 59.2787C74.0426 61.0157 67.8678 61.5237 66.166 61.0442C66.2903 61.3461 66.2548 61.7368 66.0523 62.2093L66.4644 61.95C72.8382 67.9816 79.187 74.0594 85.5075 80.1869C86.1505 79.5084 86.4667 79.4338 87.3727 79.2598C87.0423 78.1551 88.3995 76.7875 89.5044 77.1285C89.8668 75.4021 90.9682 74.2796 92.7019 73.9315C92.9364 72.4573 93.7145 71.6688 95.1889 71.445C95.1569 70.493 95.6579 69.9921 96.61 70.0241C97.246 68.0633 99.1894 65.321 101.229 65.051C101.374 63.8042 102.085 63.211 103.36 63.2749L104.853 61.1294C111.042 54.8314 117.138 48.6115 123.139 42.4627C113.966 33.3371 104.87 24.0197 95.8568 14.5141L94.4783 12.4787L93.7074 11.3064C90.8616 9.97081 90.7941 5.83606 93.7784 8.9833L94.4783 9.28168C111.077 24.5845 125.981 41.8197 142.441 57.2362C143.727 59.094 145.959 59.84 149.135 59.4741C150.154 59.8258 150.204 61.03 149.074 61.3354C147.17 60.8879 145.433 60.9447 143.862 61.5024C143.266 61.9926 142.299 63.3282 141.731 63.9889C140.967 64.8699 140.139 65.5803 139.244 66.1202C138.267 66.7952 137.791 66.6779 137.823 65.765C137.553 65.5022 137.67 65.0262 138.178 64.3441L138.157 63.346C139.18 62.3762 140.086 61.3106 140.867 60.1526C139.581 58.6109 138.16 57.2256 136.647 55.9077L136.757 55.1085L134.177 53.4922C131.435 50.5155 128.596 47.727 125.658 45.1304C121.689 48.9383 117.763 52.8351 113.887 56.8171L112.242 57.595C110.985 59.2219 110.494 59.8044 108.569 60.7032L107.979 61.5024L108.132 62.3691C106.171 64.1701 104.387 66.1202 102.781 68.2196L101.939 68.2516L101.705 70.0703C100.884 69.5943 100.014 69.6973 99.097 70.3829C99.5553 71.2816 99.2817 71.5622 98.3864 71.0933C96.9262 72.9369 95.26 74.6135 93.4125 76.0664L93.6612 76.4926C91.764 78.5174 89.8952 80.6203 88.0513 82.8013C90.4139 85.4512 92.8689 88.023 95.4198 90.5167L95.1925 91.3408L95.9208 91.8523C96.8765 91.561 97.6119 91.9162 97.3241 93.1169C99.3635 93.7918 101.335 96.2073 102.298 98.0899C103.254 97.3298 104.199 96.9745 105.14 97.0243C106.128 96.5945 107.375 95.7029 108.881 94.353C110.093 94.2713 110.381 95.2588 109.404 95.9586C107.407 98.3137 105.275 100.562 103.009 102.708C102.98 102.736 102.636 102.74 102.298 103.063C100.468 104.114 100.301 102.523 101.25 101.12C101.552 100.292 101.25 99.8838 100.522 99.5108C99.2604 100.012 96.9582 97.5535 97.3241 96.3138C96.7557 95.9799 96.308 95.9977 95.8142 96.424C95.7289 95.7029 95.5193 94.9533 95.1925 94.1825C92.3538 92.4419 89.7638 90.2325 87.4225 87.5648L44.9948 45.1694C41.4633 47.8798 38.1805 51.0377 35.1499 54.6502C34.2084 54.9628 33.2598 55.5916 32.3041 56.5329L32.5777 57.2575L29.6253 60.1241C30.247 60.5326 30.4318 60.9944 30.1724 61.5059C30.4637 61.3568 30.8546 61.2466 31.0606 61.4562C48.0857 78.9365 65.6721 96.7507 83.2408 114.061C84.3351 116.263 85.1238 116.135 86.6622 115.496C86.1328 114.661 86.5023 114.331 87.3727 114.785C88.1117 113.691 88.9395 112.981 89.8597 112.654C91.8457 111.208 92.7943 111.208 92.7019 112.654C91.4336 113.908 86.5769 119.51 85.6034 119.95C85.2055 120.131 84.8715 119.755 84.5589 119.559C66.1979 101.447 48.1639 83.0038 29.8065 64.8876C28.7193 63.8149 27.419 61.7191 25.909 61.1472C25.0564 61.2857 25.0564 60.8097 25.909 59.7263C42.7778 41.8837 61.6575 23.359 79.3256 6.21259C80.562 5.01195 82.143 3.68343 83.4646 2.53608H83.4611Z" fill="#010305"/>
<path d="M97.6704 1.47067C98.6225 1.22202 104.083 -0.291215 104.421 0.0497955C104.595 1.31082 104.303 2.40134 104.065 3.60198C104.758 4.37636 104.627 5.10456 103.671 5.78303C103.444 8.18431 102.627 8.75976 101.223 7.50939C98.9387 6.24481 96.4979 5.03707 94.1176 3.9572C92.9096 3.34978 91.2931 2.48304 93.3857 2.0035L97.6704 1.47067Z" fill="#030304"/>
<path d="M133.909 23.4938C134.456 25.0532 133.98 24.936 132.487 23.1386C129.951 21.1138 127.933 18.3147 125.353 16.2402C119.211 11.3063 111.814 8.31532 104.58 5.37055C103.287 5.38476 103.848 7.98496 102.8 8.56397C102.004 8.70961 101.493 7.65816 101.223 7.50897L102.999 7.86419C103.106 6.36516 103.777 5.06506 104.065 3.60156C105.145 5.0402 107.44 5.15387 109.135 5.81458C118.457 9.45912 127.961 15.3877 133.909 23.4938Z" fill="#222526"/>
<path d="M102.29 103.063C99.0537 106.175 95.8953 109.485 92.6977 112.654C92.0262 111.798 90.7543 112.679 89.8555 112.654C90.4985 111.318 91.5644 110.135 93.053 109.102C92.68 108.192 92.854 108.018 93.7636 108.391L94.2681 106.928L98.2756 103.162C99.7039 102.083 100.45 100.868 100.514 99.5107C100.67 99.6315 101.363 99.4539 101.555 100.09C101.843 101.056 100.258 102.935 102.29 103.063Z" fill="#070A14"/>
<path d="M132.488 23.1387C132.915 23.4797 133.398 23.7461 133.732 24.2043L133.909 23.4939C135.814 26.087 139.949 33.678 139.949 36.8146V47.2935C139.949 47.3646 138.784 47.2474 138.532 47.2935C139.917 38.4273 137.569 30.3461 132.488 23.1387Z" fill="#3A3637"/>
<path d="M94.4747 9.28506C93.4692 9.72553 92.9825 8.19454 92.8794 8.21585C92.0374 8.40412 91.4796 9.49109 92.208 10.031C93.0677 10.6704 94.3112 10.7912 94.4711 12.482L93.4763 12.4891L86.6798 5.62276L86.6549 4.66722C88.3496 6.03836 87.4579 2.65313 87.3619 2.53235C87.3406 2.50749 86.9001 2.87692 86.7331 2.78101C86.6407 2.72772 86.6656 2.24463 86.4311 2.20555C85.6957 2.08478 84.2212 2.31567 83.4609 2.53235C84.2461 1.85033 84.8785 0.475638 86.1931 1.01202C88.879 2.10964 92.1049 7.31715 94.4747 9.28151V9.28506Z" fill="#0D1117"/>
<path d="M8.81453 61.1157C8.4557 61.542 2.10327 61.6734 1.21151 61.5064C0.422785 61.3573 0.103032 60.7001 0 59.9435C0.273567 58.718 6.81785 58.8032 7.96541 59.0164C8.9673 59.2011 9.18047 60.6788 8.81453 61.1157Z" fill="#292522"/>
<path d="M158.109 61.1078C157.981 60.9515 157.985 59.6443 158.12 59.4205C158.446 58.8806 164.344 58.8841 165.328 59.0369C166.757 59.2571 167.865 60.408 166.057 61.1398C164.966 61.5838 158.631 61.7472 158.109 61.1043V61.1078Z" fill="#272120"/>
<path d="M24.129 59.3714C24.7294 59.9575 25.2588 60.9059 24.129 61.1475C21.9618 61.3357 19.759 61.4743 17.5882 61.4671C16.3377 61.4636 15.2327 60.7034 16.0072 59.4211C16.4762 58.6467 22.9175 59.0304 24.1254 59.3678L24.129 59.3714Z" fill="#151313"/>
<path d="M125.383 80.6845C125.272 80.8302 125.155 80.8266 125.027 80.6845C128.79 75.1609 133.906 70.1239 139.239 66.1206C139.949 65.4137 140.94 64.6464 141.726 63.9893C136.652 69.8965 130.659 74.9549 125.383 80.6845Z" fill="#C8C8C8"/>
<path d="M125.381 80.6846C125.189 80.8941 123.881 83.1143 123.512 83.4375C123.256 83.6613 122.549 83.5796 122.137 84.0414C122.038 84.1551 121.121 85.7429 120.801 86.1336C119.433 87.796 115.689 90.4211 114.012 92.0516V91.6964C117.064 87.4089 120.734 83.7288 125.025 80.6846H125.381Z" fill="#D9D9D8"/>
<path d="M143.859 61.5029C145.6 60.0678 147.06 61.137 149.007 61.1512C149.444 61.0979 149.383 59.9292 148.296 59.7303C146.2 59.3502 143.102 60.0784 142.438 57.2402C142.736 57.5173 144.26 59.0163 144.392 59.0163H150.076C150.723 59.0163 151.003 61.0198 149.65 61.4283C148.054 61.9114 145.706 60.7249 143.859 61.5029Z" fill="#1E1C23"/>
<path d="M97.6694 1.4707C96.6533 1.73712 93.779 2.15983 93.3989 2.35165C92.1483 2.98749 94.1734 3.5807 94.1166 3.95723C93.8927 3.85422 89.5228 2.72107 90.5673 1.82947L97.6694 1.4707Z" fill="#2A2A35"/>
<path d="M110.106 95.9592C107.764 98.2077 105.267 100.534 103 102.708C105.1 100.442 107.207 98.1402 109.395 95.9592C109.349 94.9681 109.377 94.9042 110.106 95.6039V95.9592Z" fill="#C2C3C6"/>
<path d="M114.014 92.0515C112.695 93.3303 111.441 94.6766 110.105 95.9589V95.6037C110.908 93.8134 112.223 92.4991 114.014 91.6963V92.0515Z" fill="#CCCCCB"/>
<path d="M24.1289 59.3711C25.3653 59.7192 24.875 60.1597 25.3724 60.4367C25.614 60.3302 25.6708 59.975 25.9053 59.7263V61.1472C24.8821 60.76 24.9603 61.0761 24.1289 61.1472V59.3711Z" fill="#B5B5B2"/>
<path d="M86.6574 4.66713C88.9845 6.59241 92.1572 10.1908 94.4736 12.4819C104.198 22.1048 113.602 32.0794 123.443 41.5921L123.973 42.4979L123.443 43.4037C116.831 50.1138 110.031 56.6427 103.356 63.2782C101.899 64.287 101.071 63.3422 102.29 62.2126L101.832 61.5519C102.205 60.8095 102.386 60.1736 102.29 59.3708C102.137 58.3904 101.828 57.6338 101.363 57.101C100.645 50.842 99.7673 44.6115 98.737 38.4129C98.5132 38.2921 98.3071 38.1572 98.1543 37.9795C97.6818 37.429 94.598 25.8914 94.1077 24.0479C93.3758 22.9254 93.4966 22.1474 94.4736 21.7176C94.4878 21.0107 95.0492 20.4317 96.1541 19.9735L90.7219 14.4499C89.7058 13.5334 89.3007 12.6418 89.4997 11.7715L89.0058 10.8621C87.972 10.0203 86.9381 9.30984 85.9113 8.73083C85.3145 24.3711 85.3287 40.0682 85.5454 55.7334C85.0125 57.1152 85.1475 57.7368 85.9469 57.5947C87.7624 57.9748 88.2029 58.5893 88.7749 60.2091C89.9935 61.1043 90.3168 62.1664 88.7039 62.7312C88.576 66.2869 88.2313 69.832 87.67 73.3664C89.3469 74.5209 90.395 73.6044 90.8142 70.6206C91.9689 68.5319 99.0177 65.2781 96.6089 70.0274C96.1363 70.4963 95.6603 70.9758 95.1877 71.4483C93.4078 71.0113 92.6866 72.3434 92.7008 73.9348C91.6243 74.9898 90.5797 76.0768 89.5032 77.1318C88.0217 77.249 85.7266 77.5793 87.3715 79.2631C86.5722 79.9806 85.9469 81.6643 84.5577 80.4957L66.0547 62.2126C65.671 61.6549 65.6496 61.2641 65.9943 61.0368C68.3711 61.7472 74.688 60.3903 69.6146 59.2536C67.2378 59.6621 64.9853 59.5804 62.8571 59.0156C57.6629 53.1971 51.5521 48.0855 46.5391 42.1924L84.3303 4.29415C85.1581 3.5695 85.9575 4.08812 86.6574 4.66713Z" fill="#FEFEFD"/>
<path d="M95.1844 94.1824C95.3479 94.5163 95.9625 95.9514 95.9412 96.0544C95.7351 97.1201 93.0314 102.026 92.2818 103.372C91.1591 105.386 90.1003 107.141 88.7361 109.009C88.4909 109.347 88.157 109.492 87.7235 109.457C87.5032 110.064 87.4428 110.665 87.7235 111.233C88.6011 112.228 87.2901 113.748 86.5156 114.632L86.6577 115.496C85.908 116.107 85.9578 117.193 84.3306 116.224C67.2913 98.3776 48.7882 81.7959 32.122 63.6336C31.3475 62.7882 30.9673 62.472 30.1679 61.5023C29.7451 59.9038 31.7063 56.9555 33.0102 59.0158C30.1999 61.8717 39.6753 60.6746 39.8565 60.259C40.0519 59.8115 34.0298 59.4704 33.4792 59.6729L33.0102 59.0158L33.5182 58.1881C35.1277 58.2236 34.7191 57.673 32.2996 56.5292C34.2252 54.8277 43.0256 44.7289 44.6385 44.498C44.9263 44.4553 45.1821 44.434 45.4308 44.6188C58.999 58.2947 72.7235 71.8143 86.3095 85.4725C89.2121 88.3924 92.3209 91.227 95.1809 94.186L95.1844 94.1824Z" fill="#BAE0F5"/>
<path d="M136.749 55.1089L136.128 55.6133C135.2 55.1196 134.255 54.8247 133.289 54.7217C133.559 57.7517 132.213 58.0856 129.48 58.2277C128.095 57.9897 126.965 58.1354 126.091 58.6575C126.123 58.5155 126.169 58.3911 126.258 58.3201C126.585 58.0537 134.007 57.8192 134.632 57.9471L135.151 58.6575C137.208 57.6381 136.163 63.5667 134.44 61.8545L134.032 62.565C131.53 62.2488 129.022 62.1458 126.507 62.2524L126.269 61.8545C126.805 62.6253 126.048 62.231 126.095 62.2275C128.429 62.0641 134.469 61.8332 134.451 65.4067C134.437 68.5575 109.304 92.1866 104.92 96.0088C103.737 96.5949 103.048 97.1775 102.287 98.0868C100.71 97.2556 99.0577 94.6838 97.4092 93.7176C97.228 93.5152 97.3559 93.1599 97.3133 93.1138C97.0894 92.5241 97.1569 91.97 97.3381 91.3909C99.516 84.3754 101.25 77.2603 101.161 69.8434C101.623 69.4029 101.886 68.8772 101.935 68.2485C103.051 66.1775 106.217 63.3464 107.975 61.4993C108.075 61.1903 108.196 61.1938 108.331 61.4993C109.364 60.5295 110.665 60.5295 112.239 61.4993L112.757 60.8031C122.147 61.3323 120.208 59.2294 111.958 59.7587C110.43 59.6912 110.523 58.9701 112.239 57.5919C116.083 53.1481 120.84 49.1377 124.833 44.7863C125.377 44.3032 126.091 44.2925 126.649 44.7863L136.757 55.1054L136.749 55.1089Z" fill="#BAE0F5"/>
<path d="M85.9474 20.2972C86.6544 20.0983 86.8604 19.2706 86.5691 17.8142L86.967 17.0327C85.8799 15.6865 86.7219 14.3473 88.3811 14.7025C88.7825 17.9172 89.1378 21.0645 89.4505 24.1442C90.6939 23.686 91.3157 24.1193 91.3157 25.4514C92.8398 26.7764 93.6676 28.3464 93.8026 30.1652C95.1207 30.698 95.1314 31.4582 94.8614 32.6943C95.7034 33.6037 95.8455 34.8221 95.2913 36.3531C96.5667 35.7101 96.89 36.005 97.3164 37.3441C98.0554 37.5075 98.3183 38.218 98.098 39.4755L98.3822 40.5411C98.6309 40.6335 98.8334 40.7365 98.8796 40.8892C100.155 45.159 101.235 52.48 101.328 56.7355C101.352 57.9539 101.246 59.4494 100.095 59.3748C98.5243 59.1475 97.0073 59.1439 95.54 59.3677C95.1278 60.7282 96.4992 61.1083 99.6612 60.5151C100.894 60.5612 102.379 61.4884 101.224 62.5647C102.486 63.062 101.839 64.1276 101.224 65.0512C99.7501 66.5147 98.2472 68.3903 96.6058 70.0243V68.2517C96.112 68.2162 95.6323 68.2375 95.1634 68.408C94.9111 68.5004 91.9019 70.1983 91.774 70.3475C90.932 71.3173 91.2304 74.5853 88.9708 74.6279C88.7257 74.6314 87.1234 73.9707 87.0701 73.8819C86.7219 73.3242 87.3223 72.2621 87.301 71.6227C87.1802 67.964 87.6243 68.3725 88.0613 65.5663C88.2141 64.5823 87.873 63.2644 88.0755 62.4617C88.1928 61.9999 89.3332 62.0532 89.1485 61.3321C87.8481 61.0195 87.6563 58.9912 87.3934 58.8136C86.459 58.1848 86.0362 59.5524 85.9509 57.5952C85.6312 57.5312 85.6454 57.4104 85.9509 57.2399C85.9367 53.702 86.1712 50.1888 86.6579 46.7113C85.7591 44.0045 84.6577 36.4099 89.3368 39.6211C92.616 47.173 93.1525 38.1256 92.5272 34.9322C88.7044 41.6281 84.9668 34.6622 86.5194 29.952C86.2174 27.2097 86.0291 24.4639 85.9509 21.7216C85.3896 21.2669 85.3931 20.759 85.9509 20.3007L85.9474 20.2972Z" fill="#FEFEFE"/>
<path d="M99.0901 70.3833C99.4986 70.0778 100.678 69.2998 100.948 69.9073C102.039 72.3547 98.312 91.9912 96.8127 92.2292C96.4219 92.2932 95.5372 91.6396 95.182 91.3412C94.0166 89.8777 87.4262 83.7786 87.348 82.9758C87.2983 82.4714 87.483 82.2831 87.7033 81.9101C88.3144 80.8764 92.2047 77.342 93.4056 76.0668C95.2495 74.6175 96.9228 72.9337 98.3795 71.0937C98.6175 70.8735 98.8414 70.6177 99.0901 70.3833Z" fill="#BDE0F2"/>
<path d="M136.753 55.1086C137.506 55.542 141.741 59.6945 141.741 60.2593C140.775 61.6873 139.378 63.1046 138.174 64.3443C136.877 66.4259 134.738 68.8591 132.489 69.6726C132.379 70.0385 132.255 70.3972 132.088 70.7311C131.921 71.065 131.758 71.3812 131.52 71.6334C124.268 79.2209 116.939 86.7799 109.418 94.101C108.018 95.156 106.589 96.1293 105.133 97.0244C104.156 97.8769 103.456 98.7046 102.291 98.0901L102.109 96.6692C104.824 95.7066 106.845 93.5575 108.917 91.5718C115.582 85.1921 123.33 77.7254 129.523 70.9691C130.049 70.3972 133.854 65.5876 133.829 65.2288C133.815 65.0441 132.092 63.3284 131.765 63.1188C129.381 61.5736 128.18 63.0264 125.743 62.5646C125.629 62.4616 126.201 61.8578 126.276 61.8578H134.447C135.637 61.8578 135.882 58.6608 135.158 58.6608H126.098C126.19 56.8066 127.974 57.9504 129.022 57.858C129.58 57.8118 132.244 57.1405 132.433 56.8279C132.941 55.9718 131.527 53.4142 134.351 54.1282C134.476 54.1602 136.643 55.0447 136.756 55.1086H136.753Z" fill="#C7E5F9"/>
<path d="M139.24 66.1205C134.44 70.8911 129.818 75.9032 125.029 80.6845C121.359 84.3503 117.688 88.034 114.015 91.6963C112.711 92.9964 111.407 94.3071 110.107 95.6037C109.958 95.7529 109.545 95.8097 109.396 95.9589C109.819 93.5399 107.041 96.3532 106.447 96.7368C106.135 96.9393 105.364 97.806 105.133 97.0246C114.196 89.1458 123.7 78.3081 132.489 69.6727L133.253 69.694L137.414 65.6445L137.819 65.7653L139.24 66.1205Z" fill="#080C0E"/>
<path d="M97.3144 96.3141C98.4264 97.4543 99.1974 98.4845 100.512 99.5111C100.839 99.9871 101.276 100.268 101.091 100.939C100.764 102.133 95.0442 107.091 93.7616 108.392C93.3495 107.933 93.0368 107.212 92.8201 106.228C92.1628 107.901 90.7204 110.565 88.7877 110.523C88.2583 110.658 88.2583 110.423 88.7877 109.812C88.642 109.418 88.713 109.091 88.9227 108.757C91.4913 104.644 94.0103 100.573 95.8364 96.0548C96.3729 96.0122 96.8667 95.9979 97.3144 96.3141Z" fill="#C9E1F0"/>
<path d="M97.3153 93.1173C96.3987 92.0942 96.2565 92.691 95.1836 91.3412C95.5815 91.5579 96.2921 91.9877 96.6367 91.4904C96.8499 91.1849 97.9157 87.9382 98.0791 87.3094C99.4825 81.9243 100.52 75.7577 100.513 70.2057L99.0881 70.3833C100.037 69.4988 100.001 68.2448 101.572 69.6728C101.444 69.0228 101.66 68.7528 101.93 68.252C101.667 76.6458 100.46 85.3451 97.3117 93.1173H97.3153Z" fill="#1A3243"/>
<path d="M112.236 57.5947C111.87 58.021 111.476 58.5361 111.171 59.0121C113.494 59.2145 116.603 58.6071 118.791 59.3886C120.049 59.8397 119.992 60.8379 118.987 61.321C118.106 61.7437 113.604 61.5341 112.24 61.5021C110.734 60.5466 109.43 60.5466 108.332 61.5021H107.977C108.076 61.3991 108.055 60.607 108.495 60.4365L112.24 57.5947H112.236Z" fill="#14212A"/>
<path d="M93.7617 108.392C93.5307 108.626 93.2856 108.871 93.0511 109.102C91.0331 110.871 89.1394 112.764 87.3666 114.786C87.1428 114.981 86.9793 115.233 86.656 115.496L84.8867 115.326C85.1141 114.438 86.013 114.306 86.4571 113.709C87.0646 112.889 87.3737 111.734 87.7219 111.234C87.2707 110.598 87.6259 110.36 88.7877 110.523C89.4947 109.742 90.9691 108.342 91.5127 107.568C91.8609 107.07 91.8254 105.799 92.5466 105.575C93.918 105.149 94.1205 107.486 93.7617 108.392Z" fill="#D6EAF3"/>
<path d="M95.1824 94.1826C96.1807 95.2128 95.765 95.7953 95.893 95.9623C95.9533 96.044 96.2767 95.2483 97.3141 96.3139C96.234 96.1221 96.4614 96.3601 96.0564 96.9995C93.3172 101.358 92.7096 105.614 88.7873 109.812C88.0519 111.237 86.7231 111.269 87.7215 109.457C90.4181 105.535 93.6902 100.317 95.2712 95.8379C95.5092 95.163 95.4346 94.822 95.1824 94.1826Z" fill="#112238"/>
<path d="M32.2985 56.5298C33.986 56.2243 35.0128 52.9847 35.496 56.1711H34.0784C34.4621 58.3592 37.6312 57.4072 39.0488 58.4835C36.8745 58.789 35.1549 58.5155 33.0126 59.0164C32.6182 59.1087 32.0817 58.8778 31.5985 59.1869C30.888 59.6415 31.1154 61.2116 30.1703 61.5029C29.8648 61.1299 28.6533 60.6788 28.7741 59.9541L32.302 56.5298H32.2985Z" fill="#D2E8EF"/>
<path d="M62.8516 59.0162C64.7417 59.9149 70.5612 58.0677 71.7656 59.517C73.4816 61.5844 68.3691 61.4565 67.2748 61.5027C66.5927 61.5311 65.8501 61.1404 66.0491 62.2131C63.5337 59.3039 68.4082 61.112 69.3816 61.0409C69.6587 61.0196 71.6945 60.2488 71.0266 59.7266C68.5432 59.0908 64.8482 60.6573 62.8551 59.0162H62.8516Z" fill="#211E1F"/>
<path d="M137.818 65.7656C137.665 66.0285 133.817 69.9927 133.558 70.1597C132.851 70.6108 132.769 70.1881 132.488 69.673C134.325 67.8685 136.386 66.1883 138.173 64.3447C138.198 64.874 138.08 65.3109 137.818 65.7656Z" fill="#121B25"/>
<path d="M87.3664 79.2632C86.8015 79.1069 86.027 79.7357 86.0199 78.8192C86.0021 77.0467 86.6771 77.0325 88.4322 76.5955C89.1215 76.425 89.6473 76.0236 89.5016 77.1319C88.7626 77.8566 88.1729 78.5457 87.3699 79.2632H87.3664Z" fill="#FEFEFE"/>
<path d="M92.6978 73.9348C91.3513 72.7341 92.5486 71.1037 93.9555 70.7449C94.5382 70.5957 95.4157 70.4714 95.1848 71.4483C94.3534 72.2759 93.5398 73.1071 92.6978 73.9348Z" fill="#FEFEFE"/>
<path d="M93.0517 109.102C91.9858 110.157 90.9236 111.606 89.8542 112.654C89.1116 113.378 88.1524 114.089 87.3672 114.785C88.5965 112.679 90.9449 110.331 93.0517 109.102Z" fill="#C9E1F0"/>
<path d="M93.4062 76.0668C95.0476 74.3298 96.6287 72.7207 98.3802 71.0938C97.3961 72.9515 95.2644 75.0829 93.4062 76.0668Z" fill="#1A3243"/>
<path d="M102.288 62.2126C102.185 63.3635 102.203 63.3812 103.354 63.2782C102.715 63.9141 101.826 64.454 101.222 65.0543C101.144 64.2622 101.336 63.3244 101.222 62.5678C101.262 61.5803 101.638 61.559 102.288 62.2126Z" fill="#A9A4AA"/>
<path d="M89.4997 11.7721C90.3062 12.6317 91.0345 13.8004 91.8055 14.6174C92.516 15.3704 96.8718 19.4519 96.9358 19.8107C97.0885 20.6525 95.0883 21.4021 94.4737 21.7182C94.1326 22.7554 93.3048 23.1107 91.9867 22.7839C92.3953 24.5244 90.4128 24.3326 89.2475 24.0236C89.1409 21.1001 88.8922 18.1838 88.5049 15.2816C87.5528 14.9087 87.8334 14.319 88.4339 13.5482C87.6523 11.9 87.6523 10.9515 88.4339 10.7064C89.0236 10.4897 89.3114 11.2357 89.4997 11.7721Z" fill="#020203"/>
<path d="M89.4993 11.7723C89.1866 11.4384 88.8029 11.101 88.4334 10.7067L87.3676 11.0619C86.7316 11.4065 86.316 10.9624 86.117 9.72629C87.1438 13.1861 86.6357 16.788 85.9465 20.2976C85.9465 20.77 85.9465 21.246 85.9465 21.7185C86.355 25.26 86.3977 28.7554 86.0779 32.1974C86.5647 34.8331 86.8062 37.6323 85.9998 40.197C86.3977 45.916 86.2485 51.5249 85.95 57.2439C85.9571 57.3611 85.9465 57.4819 85.95 57.5991L85.2395 58.1319C85.108 41.4118 84.8771 25.0611 85.5272 8.40132C85.5485 7.81166 85.108 7.11188 85.2466 6.45117C85.9429 6.69982 85.7582 7.69799 86.3302 8.38356C87.1935 9.4137 89.6947 9.90745 89.5064 11.7795L89.4993 11.7723Z" fill="#A4A4A3"/>
<path d="M102.289 59.371C100.403 60.6995 97.3936 60.7564 95.5391 59.371C96.2887 58.5078 100.552 59.3355 100.868 59.0158C100.666 55.2966 100.282 51.5562 99.7527 47.8726C99.3974 45.4074 98.5092 43.0487 98.3813 40.5409C98.1006 39.7025 97.4825 37.8554 98.7366 38.4095C99.099 40.0293 99.5218 41.3827 100.069 42.9386L102.289 59.3675V59.371Z" fill="#27272A"/>
<path d="M94.4713 21.7178C93.9811 22.3465 94.1694 22.7266 94.3825 23.3838C96.2016 28.9749 97.4379 32.591 98.7347 38.4131C98.1698 38.7789 98.3475 39.8943 98.3794 40.5444C97.7009 39.6847 97.5623 38.3953 97.3136 37.3474C95.5976 34.5945 94.315 30.6551 94.4713 27.4013C93.5902 27.3906 93.3806 26.8755 94.1161 26.3356C93.3842 26.3321 92.9685 25.5754 92.8761 24.0729L91.9844 22.7834C92.7944 22.3927 93.6862 22.1192 94.4713 21.7178Z" fill="#39393A"/>
<path d="M87.0139 61.1469C86.0901 62.2233 85.4968 62.344 85.2375 61.5022C84.2889 61.5412 80.3737 61.6691 79.894 61.3423C79.1302 60.8201 79.3043 59.0156 80.0859 59.0156H86.8362C87.7315 59.0156 87.1951 60.6603 87.0139 61.1469Z" fill="#1A1818"/>
<path d="M102.289 59.3712C102.406 59.5914 103.071 59.5808 103.039 60.2592C103.025 60.5363 102.417 62.0709 102.289 62.2129C102.087 62.4367 101.536 62.5078 101.223 62.5682C100.722 59.2184 94.7573 63.7226 94.8248 59.5524C94.8177 59.2149 95.2938 59.3996 95.5389 59.3712C98.4309 59.0124 101.621 61.3 101.401 57.2363C101.643 58.0356 101.895 58.6288 102.289 59.3712Z" fill="#1B1D1C"/>
<path d="M87.0122 61.1475C86.6249 62.1883 86.0849 62.0781 85.9783 62.4334C85.8966 62.7069 85.9641 67.0263 85.9321 68.06C85.8859 69.6159 86.2092 77.1927 85.5875 77.8427C85.4418 77.9955 84.6211 77.9564 84.9018 77.3419L85.2358 61.5027C85.8646 61.4778 86.4615 61.5346 87.0122 61.1475Z" fill="#B7B7B6"/>
<path d="M56.0066 61.0589C55.1646 61.7551 47.1992 62.1068 47.1992 60.2632C47.1992 58.2953 55.6229 58.8352 56.3086 59.7126C56.568 60.043 56.2624 60.8457 56.0031 61.0589H56.0066Z" fill="#0F151F"/>
<path d="M33.0089 59.0157C34.1245 58.8061 39.2796 58.9482 40.1075 59.5556C43.1344 61.7828 34.2311 61.559 33.2754 61.3992C31.197 61.0511 31.2325 59.346 33.0089 59.0157Z" fill="#0C1017"/>
<path d="M87.7221 109.457V110.523C87.7683 110.576 88.6707 109.937 88.7879 109.812V110.523C88.6281 110.7 88.0667 110.743 87.7221 111.233H86.6562C86.7344 110.384 87.3775 109.961 87.7221 109.457Z" fill="#283F50"/>
<path d="M134.976 59.0156C135.075 60.1665 135.253 61.5022 133.732 61.5022H126.449C126.388 61.0013 126.353 59.0156 126.982 59.0156H134.976Z" fill="#081422"/>
<path d="M112.236 61.5024C110.854 61.4668 109.707 60.8239 108.328 61.5024C109.692 59.2716 110.602 60.4296 112.236 61.5024Z" fill="#8CA2A6"/>
<path d="M85.9479 21.7178C86.7579 23.2203 86.0829 25.2096 86.3245 26.8471C86.63 28.9216 88.0654 29.7457 86.328 32.1967C87.1523 34.0794 87.838 38.8073 90.7477 36.2853C93.4195 33.9693 90.3498 33.7064 90.7016 32.3708C90.9112 31.5786 91.9877 30.8966 92.6627 31.3442C93.1637 31.6781 93.5261 38.9814 93.423 40.0293C93.1459 42.8675 91.5507 44.7786 89.4936 41.7912C89.0815 41.1944 88.8861 39.9121 88.4349 39.6315C88.076 39.4077 86.456 39.7451 86.3423 39.8766C86.2108 40.0293 86.2215 43.4003 86.3138 43.9047C86.6016 45.4322 87.6177 45.553 87.3797 48.1993C87.2376 49.7765 86.4986 50.0642 86.3138 51.0375C85.9586 52.9166 86.8397 55.4529 85.9443 57.2396C85.3439 45.8052 85.9195 33.273 85.9443 21.7178H85.9479Z" fill="#FEFEFD"/>
<path d="M87.3656 11.0612L87.8772 11.1927L88.4315 13.5478C88.8258 16.9685 89.5186 20.4 89.4973 23.8491C90.755 24.2043 91.1636 23.1778 91.9843 22.7835C93.8815 22.5135 93.679 25.0995 94.116 26.3357C93.8317 26.833 93.949 27.2095 94.4712 27.4013C95.5726 30.7581 96.4928 33.8805 97.3135 37.3474C96.5283 35.4967 95.3559 38.1893 94.6453 36.6299C94.0627 35.3547 95.2102 34.9497 95.1285 34.3885C95.0752 34.0155 94.3042 33.4898 94.1657 32.8184C94.052 32.2749 94.457 31.5503 94.3007 31.2874C94.1444 31.0245 93.4338 30.9286 93.2278 30.5947C92.9009 30.069 93.1105 29.014 92.7836 28.197C92.2401 26.8472 89.9272 26.2753 90.5596 24.2008C87.6818 25.5471 88.8933 21.3342 88.8009 19.3911C88.7725 18.7908 88.57 15.4695 88.4279 15.3239C88.2254 15.1143 87.021 15.4731 87.0174 15.8532C87.0174 15.981 87.6214 16.521 87.6569 16.9756C87.7067 17.5831 86.9997 18.0981 87.0174 18.702C87.0316 19.2597 87.8452 19.6895 87.7209 20.4674C87.5575 21.494 86.3069 20.1904 85.9445 20.2969C85.9551 16.6311 85.9338 12.951 85.9445 9.28516C86.4632 9.57288 87.0885 10.5497 87.3621 11.0612H87.3656Z" fill="#FEFEFD"/>
<path d="M88.4336 10.7066C87.954 11.1862 88.3377 12.703 88.4336 13.5484C87.8047 12.8664 87.8047 11.8789 87.3678 11.0619C87.2896 9.45272 87.5774 9.79373 88.4336 10.7066Z" fill="#46474B"/>
<path d="M94.1177 26.3359C94.2456 26.7018 94.3522 27.0322 94.473 27.4016L94.2563 27.6893C92.693 27.6005 92.5331 26.6237 94.1177 26.3359Z" fill="#FEFEFE"/>
</g>
<defs>
<clipPath id="clip0_3019_21873">
<rect width="167" height="120" fill="white"/>
</clipPath>
</defs>
</svg>
