<svg width="91" height="120" viewBox="0 0 91 120" fill="none" xmlns="http://www.w3.org/2000/svg">
<g clip-path="url(#clip0_3019_21998)">
<path d="M91 0V117.095C91 117.116 90.7413 117.374 90.7209 117.374H0.279141C0.258671 117.374 0 117.116 0 117.095V0H91Z" fill="#111915"/>
<path d="M46.1525 119.046C46.2363 119.131 46.1897 119.852 45.8511 119.959C45.0397 120.219 44.5875 119.086 44.9429 119.044C45.1848 119.09 46.0874 118.981 46.1525 119.046Z" fill="#393536"/>
<path d="M52.4788 1.11471L89.318 1.04042C89.7869 0.351408 90.6057 1.475 89.8837 1.85758C89.3533 36.0335 89.5822 70.4508 89.8911 104.645C89.9209 107.923 90.0791 111.638 89.8725 114.869C89.8372 115.417 89.8986 116.182 89.2268 116.254L80.2068 116.26L78.3328 116.481C53.6884 116.724 29.1798 116.806 4.80893 116.724C4.05711 116.652 3.32389 116.496 2.60743 116.26C2.57766 116.26 2.47158 116.091 2.31526 116.08C1.79048 116.043 1.15032 116.676 1.10938 115.617V2.12687L1.30477 1.11471C2.04915 0.876991 2.81028 0.71913 3.58815 0.6467L12.8575 0.518555C25.2942 0.707987 37.7271 0.795275 50.1638 0.815704C50.9454 0.815704 51.7177 0.958707 52.4788 1.11657V1.11471Z" fill="#BAE2F8"/>
<path d="M80.2075 116.26C80.241 116.26 80.4996 116.453 80.8365 116.458C84.1601 116.518 87.5172 116.256 90.8148 116.631C90.986 117.014 90.2845 117.188 90.1635 117.188H1.67578L2.23406 117.001L1.76883 116.631L2.60811 116.26C16.2228 116.904 30.846 116.249 44.5798 116.269C56.3912 116.288 68.3589 116.07 80.2093 116.26H80.2075Z" fill="#0E0E0F"/>
<path d="M89.5108 0.186044C90.0095 0.264045 89.9202 0.899202 89.5108 1.04035L52.4781 1.11464C35.5919 1.72565 18.1214 0.299332 1.3022 1.11464C0.609934 1.14806 1.02492 1.54922 0.928154 2.22894C0.433144 2.14537 1.131 1.10721 0.373594 1.30221C0.354985 1.88722 0.397786 2.48152 0.373594 3.06839C0.364289 3.29682 0.515026 3.75741 0.1875 3.71655V0.371762L1.19985 0.176758L89.5108 0.186044Z" fill="#060912"/>
<path d="M89.5132 0.185547L90.8233 0.477125C90.7954 3.32233 90.8326 6.16939 90.8233 9.01459C90.8158 11.1894 90.8233 13.353 90.8251 15.498C90.8866 48.7472 90.747 81.9944 90.8307 115.244C90.8084 115.6 90.3376 115.693 90.0733 115.888C89.9058 114.672 90.2334 113.437 90.2669 112.276C91.2904 76.6718 89.4741 40.9061 90.2669 5.28537C89.9877 4.28992 90.2743 3.47462 90.265 2.49774C90.2613 2.16159 90.412 1.78272 89.8854 1.85887C89.8872 1.72887 89.7421 1.18471 89.6732 1.142L52.4805 1.116L89.3904 0.939563L89.5132 0.187404V0.185547Z" fill="#0E0E0F"/>
<path d="M50.0595 58.3153C49.3076 58.5568 47.3965 58.7183 46.8028 58.3153C46.7749 58.2949 47.4969 58.4453 47.082 58.6868C38.2481 58.761 28.3404 60.0908 19.955 62.9081C19.2404 63.1477 17.7368 63.2814 18.0513 64.2583C17.3348 64.0002 17.024 63.3019 17.3069 62.5868C17.5637 62.7856 17.6456 62.9174 18.0029 62.8394C19.7447 62.4606 21.909 61.4614 23.7793 60.9692C28.921 59.6135 35.2687 58.4936 40.5687 58.3172C40.8981 58.3562 40.9762 58.423 40.8031 58.5159C43.094 58.5958 43.1405 58.5308 40.9409 58.3172H50.0595V58.3153Z" fill="#284658"/>
<path d="M72.7642 62.0299C72.9466 61.5786 72.954 60.8469 73.6928 61.1905C74.2139 61.4319 75.8925 63.5064 76.5829 64.0691C76.9402 64.3607 80.0219 66.0786 79.4617 66.6729C78.321 66.4054 77.1635 66.1027 75.9967 65.9542C75.2504 65.8594 71.4932 65.761 71.3536 65.5716C70.961 65.033 71.7947 64.149 72.0198 63.7014C71.8542 63.1071 72.1017 62.5499 72.7642 62.0299Z" fill="#070F12"/>
<path d="M17.3062 62.5875C17.5444 63.152 17.7788 63.7092 18.0505 64.2589C18.2366 64.6341 18.7354 64.9906 18.6088 65.5571C16.6716 65.5144 14.7604 66.0344 12.8399 66.1161C12.0285 66.3315 10.069 66.6175 11.1651 65.7447C12.0453 65.0928 12.946 64.3351 13.7722 63.6108C14.2412 63.2003 15.9979 61.2131 16.3124 61.124C16.9898 60.9364 17.1219 62.1529 17.3043 62.5856L17.3062 62.5875Z" fill="#080F13"/>
<path d="M50.0574 58.3158C55.4318 58.4217 61.8242 59.5861 67.0329 60.9678C68.1104 61.2539 71.1977 62.5409 71.9607 62.552C72.2994 62.5576 72.4706 62.149 72.7609 62.0283C72.5022 62.6709 72.3403 63.0553 72.0165 63.6998C71.9719 62.9717 71.2145 62.903 70.6692 62.7229C64.1038 60.5481 53.9691 58.6278 47.0799 58.6854L46.8008 58.3139C47.8857 58.3306 48.9744 58.2935 50.0574 58.3139V58.3158Z" fill="#1C3547"/>
<path d="M45.9589 65.7402C44.3045 66.3011 44.7623 61.6191 45.0489 61.2087C45.2889 60.8651 45.8267 60.7425 46.0668 61.0917C46.2492 61.3573 46.1692 65.5935 45.9589 65.7402Z" fill="#0F1D2E"/>
<path d="M46.1503 89.9801C46.02 90.7434 44.8477 90.58 44.8477 89.9801V86.08C44.8477 85.7012 46.1503 85.7012 46.1503 86.08C46.1503 87.1758 46.3159 89.0033 46.1503 89.9801Z" fill="#111C2D"/>
<path d="M46.1514 7.33572C46.0491 7.82788 45.461 8.32189 45.0702 7.67187C44.7353 7.11286 44.6497 3.58422 45.2154 3.24621C45.5113 3.06978 46.1514 3.17564 46.1514 3.4375C46.1514 4.44966 46.3282 6.48885 46.1514 7.33758V7.33572Z" fill="#101F2C"/>
<path d="M46.1519 28.0439V32.2226C46.1519 32.8076 45.294 32.9246 44.987 32.2709C44.7562 31.7806 44.7507 28.2594 45.0614 28.0699C45.2717 27.9418 45.8579 28.0959 46.1519 28.0439Z" fill="#101A2E"/>
<path d="M45.9559 40.8505C45.8386 40.9619 44.9919 40.9155 44.8728 40.5552C44.7239 40.102 44.7648 36.2985 45.1538 36.2075C45.459 36.1369 46.0098 36.1797 46.1233 36.5214C46.2573 36.9225 46.1345 40.6815 45.9559 40.8523V40.8505Z" fill="#142235"/>
<path d="M44.8487 11.7935C44.9529 11.4574 45.7903 11.1305 46.0564 11.7025C46.2481 12.113 46.1439 15.9778 45.9634 16.1598C45.7177 16.4068 44.8468 15.9053 44.8468 15.5079C44.8468 14.7409 44.6905 12.2987 44.8468 11.7935H44.8487Z" fill="#0F192C"/>
<path d="M44.8493 53.0227C44.9777 52.616 46.152 52.5472 46.152 53.2084V56.9228C46.152 57.4632 44.8493 57.4632 44.8493 56.9228C44.8493 56.1297 44.6874 53.5371 44.8493 53.0227Z" fill="#0E192A"/>
<path d="M46.1268 94.1855C46.2887 94.4399 46.592 98.9399 45.1479 98.6278C44.7013 98.5313 44.6976 94.0425 45.1554 93.957C45.3675 93.9663 46.0505 94.061 46.1287 94.1855H46.1268Z" fill="#121E2F"/>
<path d="M45.9397 110.53C46.3007 110.749 46.2858 114.72 45.7703 115.329C45.5917 115.201 45.1916 115.201 45.0818 115.099C44.7245 114.767 44.7487 110.72 45.0613 110.53C45.1841 110.456 45.815 110.456 45.9378 110.53H45.9397Z" fill="#121E28"/>
<path d="M44.8501 44.851C44.9916 44.3941 46.1528 44.5315 46.1528 44.851V48.7511C46.1528 49.1299 44.8501 49.1299 44.8501 48.7511C44.8501 47.9469 44.6864 45.3821 44.8501 44.851Z" fill="#101D2D"/>
<path d="M45.9401 77.4727C46.0759 77.5544 46.1448 78.2416 46.1615 78.4589C46.2266 79.315 46.4258 82.3775 45.1473 82.1008C44.6932 82.0024 44.7472 77.6659 45.0636 77.4727C45.1864 77.3984 45.8172 77.3984 45.9401 77.4727Z" fill="#142237"/>
<path d="M44.8472 69.2731C44.8788 69.2378 45.6511 69.1115 45.7758 69.1709C46.589 69.5498 45.9507 72.8537 45.9638 73.7322C45.6976 73.7805 44.8472 73.7359 44.8472 73.4517C44.8472 72.8649 44.7076 69.4291 44.8472 69.2731Z" fill="#061124"/>
<path d="M45.0581 19.8977C45.3856 19.6953 46.0556 19.8309 46.1505 20.336C46.2714 20.9786 46.2975 25.7478 45.019 24.0652C44.725 23.6771 44.7622 20.0816 45.0581 19.8977Z" fill="#131E31"/>
<path d="M45.058 102.357C45.3855 102.154 46.0573 102.29 46.1503 102.795C46.2434 103.3 46.1447 106.667 45.6795 106.788C44.3247 107.137 44.8477 102.487 45.058 102.357Z" fill="#0F1B2D"/>
<path d="M40.9422 58.3154C42.0867 58.2968 43.2368 58.3302 44.385 58.3154V58.6886C43.3298 58.6608 42.2691 58.7221 41.2139 58.6886C40.8566 58.6775 40.4677 58.8781 40.5719 58.3172C40.6966 58.3135 40.8194 58.3191 40.9441 58.3172L40.9422 58.3154Z" fill="#1C3547"/>
<path d="M11.1669 65.7441L10.9809 66.1137C11.5987 66.0989 12.2258 66.1416 12.8418 66.1156C12.5385 66.3997 10.3463 66.7842 10.2365 66.6709C9.75635 66.1824 11.0311 65.8426 11.1669 65.7441Z" fill="#345061"/>
</g>
<defs>
<clipPath id="clip0_3019_21998">
<rect width="91" height="120" fill="white"/>
</clipPath>
</defs>
</svg>
