<svg width="196" height="120" viewBox="0 0 196 120" fill="none" xmlns="http://www.w3.org/2000/svg">
<g clip-path="url(#clip0_3019_21617)">
<path d="M99.1136 1.11159C98.3712 1.11159 97.6288 1.11159 96.8864 1.11159C96.4186 0.500216 94.7556 0.500216 94.2879 1.11159C62.8648 1.10048 31.4231 1.119 0 1.11159L0.423182 120L182.265 119.867V110.974C182.265 110.933 182.781 110.418 182.822 110.418H196L182.473 1.45989L181.356 1.09306C154.313 1.119 127.266 1.119 100.227 1.11159C100.443 0.322361 99.7336 0.289014 99.1174 0V1.11159H99.1136Z" fill="#FCFCFC"/>
<path d="M94.2879 1.1113C95.034 1.1113 96.1402 1.1113 96.8864 1.1113C97.6325 1.1113 98.3712 1.1113 99.1136 1.1113C99.4848 1.1113 99.8561 1.1113 100.227 1.1113C127.263 1.12242 154.313 1.11871 181.356 1.09277L182.473 1.4596L196 110.418H182.822C182.781 110.418 182.265 110.933 182.265 110.974V119.866L0.423182 120L0 1.1113C31.4231 1.12242 62.8648 1.10389 94.2879 1.1113ZM2.59848 4.44607C2.85833 31.1132 2.24955 57.8173 2.59848 84.4807C2.59848 84.7289 2.59477 84.9735 2.59848 85.2217C2.60591 85.5923 2.57992 85.9628 2.59848 86.3333C2.6653 87.7154 2.03795 89.1012 3.84205 88.4861C4.30977 88.3268 4.34318 87.8932 4.45455 87.8154C5.4828 87.0892 9.05758 82.7873 10.0227 83.7396C10.8097 86.7779 7.03076 87.3412 5.93939 89.6681L4.82576 90.4091C4.59561 90.3795 4.32091 90.4017 4.08333 90.4091C3.18871 90.4388 2.59477 90.4203 2.59848 91.5207C2.76924 100.158 2.205 108.865 2.9697 117.462C32.288 117.462 61.6286 117.45 90.947 117.462C91.1957 117.462 91.4407 117.462 91.6894 117.462C105.046 117.462 118.424 117.473 131.78 117.462C132.152 117.462 132.523 117.462 132.894 117.462C135.611 117.462 138.343 117.462 141.061 117.462C141.432 117.462 141.803 117.462 142.174 117.462C154.543 117.45 166.927 117.469 179.295 117.462C180.55 117.024 179.667 116.439 179.667 116.35C179.685 109.588 180.324 100.814 179.663 94.3071C179.403 91.7468 178.954 91.932 177.439 90.4129C176.768 89.7385 176.363 88.8196 175.212 88.5602C174.993 87.934 173.389 85.7293 175.405 85.57C176.99 85.444 178.048 88.4268 179.667 88.5602V3.70501L100.023 3.68649C97.3727 4.43866 94.4067 3.73836 91.8527 4.05331C89.8705 4.29416 87.8659 9.66314 85.0113 8.89244C84.8814 6.95086 86.6706 6.26908 87.6098 4.44978C87.6655 4.34233 88.1852 4.40161 87.9773 3.71242C87.7323 3.70131 87.4836 3.71983 87.2386 3.71242C86.3773 3.67537 85.505 3.72725 84.6401 3.71242C81.8003 3.66796 78.942 3.71983 76.1022 3.71242C69.799 3.6939 63.4736 3.71983 57.1704 3.71242C39.6046 3.6939 22.024 3.72354 4.45826 3.71242C4.23553 3.73095 3.77523 3.66055 3.71583 3.71242C2.83606 3.6976 2.42773 3.46417 2.6022 4.45349L2.59848 4.44607ZM182.822 107.454C184.808 108.065 189.923 106.998 192.288 107.454L182.633 28.9011C181.422 29.9238 181.831 33.0547 181.875 34.6628C182.573 58.4324 182.295 82.276 182.247 106.175C182.209 106.601 182.414 107.328 182.822 107.454Z" fill="#1C1C1F"/>
<path d="M96.8875 1.11185C96.1414 1.11185 95.0352 1.11185 94.2891 1.11185C94.7568 0.500476 96.4198 0.500476 96.8875 1.11185Z" fill="#B4B4B5"/>
<path d="M99.1133 1.11159V0C99.7332 0.289014 100.442 0.322362 100.227 1.11159C99.8557 1.11159 99.4845 1.11159 99.1133 1.11159Z" fill="#B4B4B5"/>
<path d="M4.45479 3.70557C4.24691 4.82828 5.02275 4.41699 5.73547 4.44663C21.6679 5.07654 39.9241 4.9802 55.8825 4.44663C56.599 4.4244 57.3711 4.82458 57.1632 3.70557C63.4664 3.71298 69.7918 3.68705 76.095 3.70557C75.8871 4.82828 76.663 4.41699 77.3757 4.44663C78.8605 4.50592 80.3565 4.4207 81.8414 4.44663C82.8399 4.46516 84.4844 5.62863 84.6292 3.70557C85.4941 3.72039 86.3665 3.66852 87.2277 3.70557L87.5989 4.44663C86.6634 6.26964 84.8705 6.94772 85.0004 8.88929C87.8587 9.6637 89.8596 4.29472 91.8418 4.05017C94.3958 3.73892 97.3655 4.43552 100.012 3.68334L179.656 3.70187V88.5534C178.037 88.42 176.979 85.4335 175.394 85.5632C173.379 85.7262 174.978 87.9272 175.201 88.5534C175.636 89.7835 174.54 90.4616 177.428 90.406C178.943 91.9252 179.388 91.7436 179.652 94.3003C180.313 100.807 179.678 109.581 179.656 116.343L179.285 117.455C166.916 117.462 154.532 117.444 142.163 117.455C142.49 116.351 140.76 116.276 141.05 117.455C138.332 117.455 135.6 117.455 132.883 117.455C133.21 116.351 131.48 116.276 131.769 117.455C118.413 117.466 105.035 117.455 91.6785 117.455L91.1217 8.51506L90.9361 117.455C61.6177 117.447 32.2771 117.458 2.95881 117.455C2.19411 108.858 2.76207 100.151 2.5876 91.5139C3.34858 91.3175 4.29888 91.3694 4.07244 90.4023C4.31002 90.3949 4.58472 90.3727 4.81487 90.4023C4.87426 90.4097 5.57585 91.0878 5.9285 90.7728C6.03987 90.6728 5.82457 89.8873 5.9285 89.6612C7.01987 87.3343 10.7951 86.7711 10.0118 83.7327C9.04669 82.7842 5.47563 87.0823 4.44366 87.8086C2.8957 87.7011 3.7829 86.1041 2.5876 86.3265C2.56904 85.9559 2.59502 85.5854 2.5876 85.2149C3.6901 85.4409 3.74949 84.27 2.5876 84.4738C2.23866 57.8104 2.84744 31.1063 2.5876 4.43922C3.86457 4.80975 3.6307 3.75745 3.70123 3.69816C3.76063 3.64629 4.22093 3.71669 4.44366 3.69816L4.45479 3.70557ZM100.202 11.4534C101.259 9.98236 95.5725 5.1877 94.3067 4.96167C91.7082 4.4911 94.444 7.61467 95.0417 8.32979C95.7581 9.18572 99.1064 12.9725 100.202 11.4571V11.4534ZM80.1635 13.3505C79.2392 12.7021 73.6413 18.16 73.1105 19.0604C72.7875 19.605 72.4943 20.1905 72.9174 20.7722C74.5062 22.9695 78.5376 16.6112 80.067 16.1962C80.7983 15.3032 80.505 14.3361 80.1635 13.3505ZM104.923 15.9775C103.954 16.2999 104.263 17.3115 104.663 17.9932C105.024 18.6009 110.013 23.3215 110.454 23.3622C111.16 23.4326 112.114 22.8546 112.051 22.1135C111.988 21.3725 109.508 19.4568 108.758 18.7232C107.707 17.6931 106.898 15.3217 104.923 15.9775ZM64.4612 31.7325C64.9846 31.2508 65.6008 30.2837 66.2542 29.6316C67.5757 28.3199 69.7065 27.8642 68.3293 25.352C67.8133 25.0444 67.3344 25.1445 66.8221 25.3816C66.4992 25.5298 61.8405 29.9391 61.6586 30.243C60.4187 32.355 62.2005 33.8038 64.4575 31.7325H64.4612ZM115.83 27.8049C115.139 28.772 121.138 34.9302 122.018 35.1599C122.972 35.4082 123.903 34.3559 123.439 33.3554C123.206 32.8478 117.968 27.564 117.407 27.4825C117.095 27.4343 115.904 27.7048 115.83 27.8086V27.8049ZM57.1669 37.0533C57.0184 36.9051 55.374 37.0533 54.9434 37.246C54.4125 37.4831 49.8132 42.3037 49.7315 42.8151C49.6573 43.2893 49.6759 44.0119 50.0842 44.3046C51.7398 45.4977 55.0733 39.9842 56.818 39.4877C57.2486 39.1246 57.282 37.1682 57.1632 37.0496L57.1669 37.0533ZM131.279 44.2231C131.825 44.7492 133.21 46.9131 133.874 47.028C134.539 47.1429 135.76 45.7904 135.318 44.8419C135.159 44.4973 130.262 39.6248 129.917 39.4692C128.08 38.6244 127.036 39.9842 128.046 41.6145C128.154 41.7924 130.734 43.7006 131.276 44.2268L131.279 44.2231ZM59.023 79.6643C58.0467 80.1312 57.8425 78.9047 57.6755 78.901C54.3086 78.7862 48.9557 75.7626 45.418 74.1619C39.9464 71.6831 36.8542 70.6197 32.2549 66.555C31.9393 66.2771 31.2192 66.2808 30.963 65.9769C29.8754 64.6727 35.5512 62.6422 33.9847 60.3819C32.5667 58.3329 29.3 64.1354 27.8337 63.1942C23.1119 58.1736 18.958 53.7457 15.5243 47.6801C14.8265 46.4426 13.0818 41.9999 12.4433 41.4923C11.9756 41.118 11.738 40.8624 11.3111 41.4997C10.5241 42.6743 12.4359 44.7566 12.9444 45.8127C14.9898 50.0701 17.5623 54.6943 20.7844 58.2588C22.0614 59.6705 26.6124 62.8941 26.7127 64.6801C26.7721 65.7324 25.8143 66.9551 27.4774 67.648C28.3312 68.0037 28.8397 66.8217 30.0721 67.2182C30.6846 67.4146 31.0818 68.089 31.5867 68.3298C39.5046 72.1277 45.2287 77.0484 54.5684 79.8496C55.3034 80.0682 58.0727 80.2757 58.2768 80.4091C58.3474 80.4535 58.0987 81.5503 59.3905 81.1501C59.1937 81.9542 58.9599 83.6735 59.0193 84.4849C59.0378 84.7295 59.0044 84.9814 59.0193 85.2223C59.4944 85.3853 59.6949 84.8703 59.758 84.8555C60.5449 84.6405 61.5324 84.559 62.3565 84.4849C62.4418 84.4775 63.136 84.5405 63.8413 84.4849C64.5466 84.4293 68.1214 83.9773 68.2958 84.1144C68.3552 84.1626 68.255 84.6405 68.2958 84.8517C68.6856 85 68.9937 84.4849 69.0346 84.4849C69.4763 84.4553 71.5291 84.4071 71.633 84.4849C71.6924 84.5294 71.5959 85.0111 71.633 85.2223C72.0451 85.3779 72.3309 84.8592 72.3718 84.8555C72.6056 84.8332 72.8766 84.8443 73.1142 84.8555C73.1773 84.8555 74.1462 85.6929 74.2315 85.037C74.3949 83.755 73.7712 84.0588 73.1142 83.7439C72.2456 83.3215 71.2655 83.114 70.4192 82.6212C67.958 81.1872 64.335 77.3781 61.9778 76.3333C61.7699 76.2406 61.3096 75.6367 60.8679 75.9627C60.8159 75.9998 60.6192 76.9669 60.5672 77.2188L60.8679 77.4448C60.6674 77.8191 60.3148 78.8084 60.1255 79.2975C59.5204 79.2308 59.3385 79.2049 59.0118 79.668L59.023 79.6643ZM146.692 68.6299C146.956 68.415 147.687 68.604 148.092 68.352C149.135 67.7036 150.968 65.3915 152.335 65.662C153.508 65.8954 156.414 71.3459 157.951 69.6711C160.319 67.0885 153.942 65.2285 154.465 63.2498C154.592 62.7681 160.167 56.9767 161.099 55.754C164.18 51.7004 166.552 47.2096 168.761 42.6298C169.091 41.8702 168.471 41.3329 167.662 41.5516C166.689 41.8109 165.928 44.9382 165.398 45.9646C158.708 58.8294 146.785 68.7337 133.722 74.7437C132.174 75.4551 121.19 79.7829 120.503 79.6199C119.363 79.3494 119.286 76.4703 119.156 76.3444C118.038 75.2735 115.837 78.1377 115.054 78.7121C113.699 79.6977 112.036 80.8167 110.599 81.6763C109.894 82.0987 104.563 84.0329 105.803 85.226C111.03 84.8666 116.16 84.1663 121.394 84.8555C121.665 83.9773 120.648 81.78 121.064 81.1909C121.212 80.9797 123.016 80.7352 123.536 80.5202C129.175 78.1674 135.255 76.0479 141.087 72.8354C141.855 72.413 146.132 69.9675 146.391 69.6859C146.729 69.3265 146.562 68.7448 146.696 68.6336L146.692 68.6299ZM40.7296 55.4687C41.1899 55.1019 42.5671 53.29 43.239 52.6045C44.2562 51.567 45.4143 51.7004 45.3252 49.8366C45.2547 48.3323 44.1262 48.1729 42.9495 48.8918C42.6117 49.0993 42.363 49.8366 41.9658 50.2146C41.008 51.1298 37.927 53.6494 37.9196 54.6461C37.9047 56.3654 39.6234 56.3468 40.7296 55.4687ZM145.757 54.9685C144.198 54.5794 141.139 48.5657 139.546 51.0149C138.355 52.8527 140.723 53.8346 141.811 55.0129C142.486 55.7466 143.604 57.6215 144.405 57.9772C147.249 59.2407 147.208 56.7433 145.753 54.9648L145.757 54.9685ZM21.898 71.5127C21.1111 70.9569 14.4738 77.104 14.4664 77.9969C14.459 79.0492 15.7545 79.5495 16.6974 79.1122C17.0092 78.9677 21.3635 74.8585 21.6939 74.4584C22.5365 73.4357 22.2507 72.6576 21.898 71.5164V71.5127ZM165.802 74.9771C164.893 74.2101 162.695 73.3542 162.565 75.0401C162.454 76.4481 166.886 79.5198 167.577 81.1724C170.249 82.2951 170.528 81.2354 169.666 78.8084C167.989 78.0747 166.971 75.9664 165.802 74.9771Z" fill="#FCFCFC"/>
<path d="M182.823 107.454C182.415 107.328 182.211 106.602 182.248 106.175C182.296 82.2763 182.575 58.4326 181.877 34.6631C181.829 33.055 181.424 29.924 182.634 28.9014L192.289 107.454C189.925 106.998 184.809 108.065 182.823 107.454Z" fill="#B4B4B5"/>
<path d="M91.6877 117.458C91.439 117.458 91.194 117.458 90.9453 117.458L91.1309 8.51855L91.6877 117.458Z" fill="#B4B4B5"/>
<path d="M57.1686 3.70547C57.3765 4.82447 56.6007 4.4243 55.8879 4.44653C39.9295 4.9801 21.6733 5.07643 5.74089 4.44653C5.02445 4.41689 4.25233 4.82818 4.46021 3.70547C22.026 3.71659 39.6066 3.68694 57.1723 3.70547H57.1686Z" fill="#B4B4B5"/>
<path d="M84.6349 3.70571C84.4901 5.62877 82.8456 4.4653 81.8471 4.44678C80.3622 4.41713 78.8625 4.50606 77.3814 4.44678C76.6687 4.41713 75.8928 4.82842 76.1007 3.70571C78.9405 3.71313 81.7988 3.66125 84.6386 3.70571H84.6349Z" fill="#B4B4B5"/>
<path d="M2.60004 86.3337C3.79534 86.1114 2.90814 87.7084 4.4561 87.8158C4.34474 87.8936 4.31133 88.3272 3.8436 88.4865C2.03951 89.1016 2.66686 87.7158 2.60004 86.3337Z" fill="#B4B4B5"/>
<path d="M177.438 90.4093C174.55 90.4649 175.645 89.7868 175.211 88.5566C176.362 88.816 176.766 89.7349 177.438 90.4093Z" fill="#B4B4B5"/>
<path d="M4.08252 90.4092C4.30896 91.3763 3.35866 91.3244 2.59767 91.5208C2.59396 90.4203 3.1879 90.4388 4.08252 90.4092Z" fill="#B4B4B5"/>
<path d="M5.93786 89.668C5.83392 89.894 6.04551 90.6795 5.93786 90.7796C5.58892 91.0945 4.88361 90.4164 4.82422 90.409L5.93786 89.668Z" fill="#B4B4B5"/>
<path d="M3.71178 3.70521C3.64125 3.76449 3.87512 4.8168 2.59815 4.44627C2.42368 3.45695 2.83201 3.69039 3.71178 3.70521Z" fill="#B4B4B5"/>
<path d="M131.779 117.458C131.489 116.279 133.219 116.354 132.893 117.458C132.521 117.458 132.15 117.458 131.779 117.458Z" fill="#B4B4B5"/>
<path d="M141.06 117.458C140.771 116.279 142.5 116.354 142.174 117.458C141.803 117.458 141.431 117.458 141.06 117.458Z" fill="#B4B4B5"/>
<path d="M179.297 117.458L179.668 116.347C179.668 116.436 180.552 117.021 179.297 117.458Z" fill="#B4B4B5"/>
<path d="M87.2344 3.70488C87.4794 3.71599 87.7281 3.69376 87.9731 3.70488C88.1773 4.39406 87.6613 4.33478 87.6056 4.44223L87.2344 3.70117V3.70488Z" fill="#B4B4B5"/>
<path d="M2.59931 84.481C3.7612 84.2772 3.70181 85.4481 2.59931 85.222C2.59559 84.9738 2.59931 84.7292 2.59931 84.481Z" fill="#B4B4B5"/>
<path d="M146.693 68.63C146.56 68.7412 146.727 69.3192 146.389 69.6823C146.125 69.9639 141.849 72.4094 141.084 72.8318C135.252 76.0443 129.172 78.1638 123.533 80.5166C123.014 80.7353 121.206 80.9798 121.061 81.1873C120.649 81.7765 121.666 83.9737 121.391 84.8519C116.157 84.159 111.027 84.863 105.8 85.2224C104.557 84.033 109.891 82.0951 110.596 81.6727C112.033 80.8131 113.692 79.6941 115.051 78.7085C115.838 78.1378 118.039 75.2699 119.153 76.3408C119.283 76.4667 119.361 79.3495 120.5 79.6163C121.187 79.7793 132.171 75.4515 133.719 74.7401C146.782 68.7301 158.706 58.8295 165.395 45.961C165.929 44.9346 166.687 41.8073 167.659 41.548C168.468 41.333 169.092 41.8666 168.758 42.6262C166.549 47.206 164.177 51.6968 161.096 55.7504C160.168 56.9731 154.593 62.7608 154.463 63.2462C153.939 65.2249 160.317 67.0849 157.948 69.6675C156.411 71.3423 153.505 65.8881 152.332 65.6584C150.966 65.3879 149.132 67.7037 148.089 68.3484C147.684 68.6004 146.953 68.4114 146.689 68.6263L146.693 68.63Z" fill="#1C1C1F"/>
<path d="M58.2822 80.4054C58.0781 80.272 55.3088 80.0645 54.5738 79.8459C45.2341 77.0447 39.51 72.1241 31.5921 68.3261C31.0872 68.0816 30.69 67.4072 30.0775 67.2145C28.8451 66.8181 28.3366 68 27.4828 67.6443C25.8197 66.9514 26.7775 65.7324 26.7181 64.6764C26.6179 62.8904 22.0631 59.6668 20.7898 58.2551C17.5677 54.6906 14.9989 50.0627 12.9498 45.809C12.4413 44.753 10.5295 42.6706 11.3165 41.496C11.7434 40.8587 11.9847 41.1144 12.4487 41.4886C13.0835 41.9999 14.8282 46.4426 15.5297 47.6765C18.9635 53.742 23.1173 58.1699 27.8391 63.1906C29.3054 64.128 32.5684 58.3292 33.9901 60.3782C35.5566 62.6385 29.8808 64.669 30.9685 65.9732C31.2209 66.2771 31.9447 66.2771 32.2603 66.5513C36.8596 70.6197 39.9518 71.6831 45.4235 74.1583C48.9611 75.759 54.314 78.7862 57.6809 78.8973C57.8479 78.9048 58.0521 80.1275 59.0284 79.6606C58.8985 79.8459 59.3773 80.6574 58.286 80.4017L58.2822 80.4054Z" fill="#1C1C1F"/>
<path d="M61.9908 76.3291C64.348 77.3777 67.9748 81.1868 70.4322 82.617C71.2785 83.1098 72.2548 83.3173 73.1272 83.7397V84.8513C72.8896 84.8402 72.6186 84.8291 72.3848 84.8513L71.6423 84.4808C71.5384 84.403 69.4856 84.4511 69.0438 84.4808L68.3014 84.1102C68.1269 83.9731 64.5744 84.4215 63.8469 84.4808C63.6316 83.8546 62.7258 84.0287 62.362 84.4808C61.5379 84.5549 60.5505 84.6364 59.7635 84.8513L59.0211 84.4808C58.9617 83.6693 59.1956 81.95 59.3923 81.146C59.552 80.5013 59.8972 79.9158 60.1348 79.2933C60.3241 78.8042 60.6767 77.8149 60.8772 77.4407C61.0999 77.022 61.6233 76.6403 61.9908 76.3291Z" fill="#1C1C1F"/>
<path d="M145.756 54.9681C147.211 56.7466 147.252 59.244 144.409 57.9805C143.607 57.6248 142.49 55.7499 141.814 55.0162C140.726 53.838 138.358 52.8523 139.55 51.0182C141.142 48.569 144.201 54.5827 145.76 54.9718L145.756 54.9681Z" fill="#1C1C1F"/>
<path d="M64.4599 31.732C62.2029 33.8033 60.4211 32.3545 61.6609 30.2425C61.8391 29.9386 66.5015 25.5293 66.8245 25.3811C67.3368 25.144 67.8156 25.0439 68.3316 25.3515C69.7088 27.8637 67.578 28.3194 66.2565 29.6311C65.6032 30.2795 64.987 31.2503 64.4636 31.732H64.4599Z" fill="#1C1C1F"/>
<path d="M80.1636 13.3502C80.5052 14.3321 80.8021 15.3029 80.0671 16.1959C78.534 16.6109 74.5064 22.9729 72.9176 20.772C72.4944 20.1865 72.7877 19.6048 73.1106 19.0601C73.6452 18.1597 79.2393 12.7018 80.1636 13.3502Z" fill="#1C1C1F"/>
<path d="M165.802 74.9766C166.971 75.9659 167.988 78.0742 169.666 78.8079C170.527 81.2348 170.249 82.2908 167.576 81.1718C166.882 79.5193 162.453 76.4476 162.565 75.0396C162.694 73.3536 164.892 74.2096 165.802 74.9766Z" fill="#1C1C1F"/>
<path d="M40.7281 55.4681C39.6219 56.3462 37.9032 56.3685 37.9181 54.6455C37.9255 53.6451 41.0065 51.1292 41.9643 50.2139C42.3578 49.836 42.6102 49.0986 42.948 48.8911C44.1247 48.1723 45.2532 48.3317 45.3237 49.836C45.4091 51.6998 44.2509 51.5664 43.2375 52.6039C42.5656 53.2893 41.1922 55.1012 40.7281 55.4681Z" fill="#1C1C1F"/>
<path d="M57.1649 37.0527C57.2837 37.1676 57.2503 39.1277 56.8197 39.4908C55.075 39.9873 51.7415 45.5008 50.0859 44.3077C49.6776 44.0113 49.659 43.2887 49.7332 42.8182C49.8149 42.3068 54.4142 37.4862 54.9451 37.2491C55.3757 37.0564 57.0201 36.9082 57.1686 37.0564L57.1649 37.0527Z" fill="#1C1C1F"/>
<path d="M131.281 44.2226C130.739 43.6965 128.159 41.7882 128.052 41.6104C127.038 39.9801 128.085 38.6239 129.922 39.465C130.268 39.6243 135.164 44.4931 135.324 44.8377C135.765 45.7863 134.555 47.1424 133.88 47.0238C133.204 46.9053 131.83 44.7451 131.285 44.2189L131.281 44.2226Z" fill="#1C1C1F"/>
<path d="M21.8965 71.5128C22.2492 72.654 22.535 73.4322 21.6924 74.4548C21.362 74.855 17.0077 78.9642 16.6959 79.1087C15.753 79.5459 14.4575 79.0457 14.4649 77.9934C14.4723 77.1004 21.1096 70.9533 21.8965 71.5091V71.5128Z" fill="#1C1C1F"/>
<path d="M115.829 27.8047C115.903 27.7009 117.094 27.4341 117.406 27.4786C117.967 27.5638 123.205 32.8439 123.438 33.3515C123.902 34.3519 122.967 35.4042 122.017 35.156C121.137 34.9262 115.138 28.768 115.829 27.8009V27.8047Z" fill="#1C1C1F"/>
<path d="M104.922 15.9772C106.897 15.3213 107.707 17.6927 108.757 18.7228C109.507 19.4564 111.987 21.3795 112.05 22.1131C112.113 22.8468 111.159 23.4322 110.454 23.3618C110.012 23.3174 105.023 18.5968 104.663 17.9928C104.258 17.3148 103.954 16.2995 104.922 15.9772Z" fill="#1C1C1F"/>
<path d="M100.203 11.4529C99.1081 12.9684 95.7598 9.18158 95.0434 8.32566C94.4457 7.61053 91.7099 4.49067 94.3084 4.95754C95.5742 5.18727 101.261 9.98193 100.203 11.4492V11.4529Z" fill="#1C1C1F"/>
<path d="M60.1373 79.2938C59.8997 79.9163 59.5545 80.5017 59.3949 81.1464C58.1031 81.5466 58.3518 80.4498 58.2812 80.4054C59.3726 80.661 58.8937 79.8496 59.0237 79.6643C59.3503 79.2011 59.5322 79.2271 60.1373 79.2938Z" fill="#B4B4B5"/>
<path d="M73.1289 83.7402C73.7822 84.0589 74.4096 83.7551 74.2463 85.0334C74.1609 85.6892 73.192 84.8518 73.1289 84.8518V83.7402Z" fill="#B4B4B5"/>
<path d="M61.9924 76.3295C61.6249 76.6408 61.1015 77.0224 60.8788 77.4411L60.5781 77.2151C60.6301 76.9669 60.8268 75.9998 60.8788 75.959C61.3243 75.6329 61.7809 76.2369 61.9887 76.3295H61.9924Z" fill="#B4B4B5"/>
<path d="M63.8481 84.4812C63.1428 84.5367 62.4487 84.4738 62.3633 84.4812C62.7271 84.0291 63.6328 83.855 63.8481 84.4812Z" fill="#B4B4B5"/>
<path d="M69.0457 84.4809C69.0048 84.4809 68.693 84.9996 68.307 84.8477C68.2661 84.6328 68.3664 84.1548 68.307 84.1104L69.0494 84.4809H69.0457Z" fill="#B4B4B5"/>
<path d="M59.764 84.851C59.6972 84.8695 59.5005 85.3809 59.0253 85.2178C59.0067 84.9733 59.0402 84.725 59.0253 84.4805L59.7677 84.851H59.764Z" fill="#B4B4B5"/>
<path d="M72.3858 84.851C72.345 84.8547 72.0592 85.3734 71.6471 85.2178C71.6063 85.0066 71.7028 84.5249 71.6471 84.4805L72.3895 84.851H72.3858Z" fill="#B4B4B5"/>
</g>
<defs>
<clipPath id="clip0_3019_21617">
<rect width="196" height="120" fill="white"/>
</clipPath>
</defs>
</svg>
