<svg width="114" height="120" viewBox="0 0 114 120" fill="none" xmlns="http://www.w3.org/2000/svg">
<g clip-path="url(#clip0_3019_21711)">
<path d="M12.1107 60.1755L12.4894 60.3559L12.6655 118.412C37.7493 118.353 64.0449 118.408 89.5926 118.509C93.7467 118.526 97.899 118.684 102.047 118.862C103.134 117.147 104.206 119.2 102.994 119.812C102.932 119.817 102.867 119.806 102.805 119.812L11.2416 119.865L11.058 118.57C11.0883 99.1259 11.0618 79.7067 10.9766 60.3141L11.164 60.1793C11.1716 59.6152 12.0141 59.6589 12.1107 60.1793V60.1755Z" fill="#070609"/>
<path d="M102.426 1.30105C102.364 0.809156 102.742 0.873729 103.562 1.49096L103.576 58.5387C103.74 59.1008 105.844 58.6735 105.844 59.5092C105.427 60.9867 103.782 59.0856 103.553 60.831L103.566 119.698C103.536 119.917 103.17 119.791 102.994 119.81C103.772 119.273 103.488 118.564 102.618 118.479V119.051L102.048 118.861C101.705 118.735 101.712 118.426 102.076 117.928C102.049 99.0787 102.04 79.5608 102.076 60.7322C100.285 60.0827 99.7623 58.8217 102.055 58.4399L102.049 1.53844L102.428 1.30105H102.426Z" fill="#101818"/>
<path d="M103.562 0.351375C103.877 1.13574 103.689 0.913534 103.562 1.49089C103.553 1.53837 103.398 1.65422 103.362 1.94479C103.206 3.20015 103.576 4.59985 103.278 5.85711C102.167 4.79927 103.314 2.78423 102.805 1.43011C102.708 1.17372 102.563 1.35035 102.424 1.30097L102.269 1.51178C72.3534 1.47759 42.3789 1.47189 12.3458 1.49089L12.1091 1.11105L12.4878 1.29147V58.6089L12.1091 58.8444C12.3893 58.1854 13.2906 58.6791 13.4098 59.2983C13.5102 59.8263 12.4802 60.8366 12.1091 60.1738C12.0598 60.1776 11.2116 60.1776 11.1624 60.1738C10.9844 60.3276 10.6796 60.2422 10.2441 59.9174C7.59331 59.982 8.37907 58.6848 10.6436 58.9678C10.9636 58.7988 11.081 58.5272 11.0753 58.1797C11.0829 38.8403 11.0507 19.5255 10.9806 0.229827L103.426 0.172852L103.561 0.349476L103.562 0.351375Z" fill="#06070F"/>
<path d="M102.804 119.81L10.9762 119.998C11.0728 119.51 10.7812 119.001 10.7774 118.566C10.6998 101.703 10.891 84.7568 10.9819 67.8749C10.9952 65.2844 10.8058 62.7547 10.785 60.1737C10.1526 60.1832 8.40688 60.32 8.49965 59.321C8.6019 58.2252 11.0633 59.5432 10.9819 58.1891C10.7945 39.7594 10.7509 21.324 10.9724 2.9133C10.98 2.35494 10.4404 0.415868 10.9611 0.0531232L103.539 -0.00195312C103.621 0.1063 103.532 0.279126 103.56 0.349396L10.9876 0.366489C11.3038 2.58664 11.122 4.85426 11.1542 7.0991C11.2754 15.4688 11.1712 23.962 11.1542 32.3431C11.1353 40.5779 11.7752 50.1327 11.1712 58.1872C11.1391 58.6088 11.0103 58.9981 10.9724 59.414C10.5067 58.962 9.64706 59.1425 8.98437 59.226C8.64166 59.2697 8.67574 59.1501 8.70035 59.604C9.00709 59.7445 10.2567 59.6173 10.3684 59.6571C10.4158 59.6742 10.5805 60.1243 11.1637 60.1737L11.3417 119.725L102.804 119.808V119.81Z" fill="#34323D"/>
<path d="M110.095 60.1761C109.467 60.047 109.133 59.2683 109.813 58.9436C110.222 58.7479 113.526 58.7707 113.867 59.0157C114.123 59.2 113.924 59.8647 113.977 60.1761C112.843 60.0166 111.148 60.3945 110.095 60.1761Z" fill="#1E1A21"/>
<path d="M4.68118 59.0835C4.74177 59.1461 4.91407 59.7938 4.89513 59.8773L4.43882 60.1812C3.20054 59.8887 1.87705 60.1375 0.648227 59.997C-0.4348 59.8716 -0.018251 58.9904 0.856502 58.867C1.43588 58.7853 4.38013 58.772 4.68118 59.0854V59.0835Z" fill="#2B262B"/>
<path d="M102.429 1.30051L102.434 58.7376C102.402 58.9351 100.904 58.7262 100.904 59.5086C100.904 60.2911 102.809 59.8353 102.436 61.2103L102.44 118.015L102.05 118.86C72.9919 118.955 43.8941 118.824 14.8625 118.655C13.9726 118.649 13.1547 119.05 12.2913 118.777L12.1133 60.1753C12.3727 60.1544 13.077 59.6758 13.0524 59.3377C12.9634 58.8363 12.1133 58.9009 12.1133 58.8458V1.1106L101.59 1.103C101.91 1.05932 102.15 1.19796 102.429 1.30051Z" fill="#BCE2F8"/>
<path d="M11.9229 2.63086V58.277H11.3548C11.2526 54.5869 11.4362 50.8835 11.4722 47.199C11.6104 32.5316 11.5158 17.6686 11.5442 2.91194L11.9229 2.63086Z" fill="#070609"/>
<path d="M53.766 93.7911C54.0329 94.7122 53.8834 95.4149 53.0086 94.5508C52.3667 93.6563 51.5677 92.7162 50.8331 91.89C50.4866 91.4988 48.5137 89.6965 48.4777 89.4933C48.3792 88.9368 49.7538 88.6633 50.1666 88.4734C50.3427 87.841 50.7214 87.6511 51.3026 87.9037C51.6889 87.7346 52.4993 87.2731 52.8041 87.2181C53.4573 87.1041 53.1468 89.3508 53.1998 89.894C53.3115 91.0753 53.5388 92.6231 53.766 93.7892V93.7911Z" fill="#0B0E12"/>
<path d="M46.7614 45.3623C47.6986 40.1414 49.8268 30.955 52.4038 26.4274C52.5761 26.1235 52.7768 25.7437 53.1971 25.8006C53.4792 26.1406 51.4021 30.9455 51.1125 31.7793C49.3573 36.8292 47.8577 42.1374 47.1401 47.4514C47.0151 47.8692 46.8618 48.0838 46.5039 47.7647L46.7614 45.3623Z" fill="#233E54"/>
<path d="M48.0864 77.6485C48.0221 78.1062 48.0391 78.5658 48.1394 79.0273L47.8971 79.1678C46.8046 75.6392 46.1286 71.5749 45.8162 67.8658C45.6193 65.5393 45.7632 63.2166 45.625 60.9357C45.7973 60.3317 46.0491 60.0772 46.3824 60.176C46.4013 65.9818 46.9125 71.9623 48.0864 77.6485Z" fill="#3A4F5A"/>
<path d="M47.1383 47.4514C46.6366 51.1624 46.4245 55.1032 46.381 58.8465C46.2428 59.1219 45.8338 59.346 45.5384 59.3992C44.2736 59.2074 43.166 59.3403 42.2155 59.7961C40.9904 58.197 45.3775 59.0953 45.6255 58.8484C45.4248 54.2923 45.9606 49.8235 46.7596 45.3623C46.754 45.8371 46.7748 46.3138 46.7634 46.7924C46.7521 47.2121 46.3336 47.8521 47.1383 47.4514Z" fill="#39505F"/>
<path d="M48.086 77.6484C48.7619 80.9264 49.9302 84.0962 50.875 87.3001C50.9715 87.6249 50.7443 88.0199 51.3048 87.904C50.9507 88.0598 50.5645 88.2915 50.1687 88.4738C50.4755 88.1054 50.2956 87.9515 50.1839 87.6135C49.4057 85.2319 48.0993 81.6025 47.8967 79.1678C47.8607 78.731 47.7793 77.9352 48.086 77.6484Z" fill="#2B3D4E"/>
<path d="M17.5068 60.1761C16.6415 60.0603 16.6017 59.2455 17.2228 58.9417C17.5163 58.7973 20.9206 58.7612 21.2633 58.879C21.8105 59.0651 21.8919 60.178 21.4829 60.178C20.292 60.178 18.6163 60.3262 17.5068 60.178V60.1761Z" fill="#192E3D"/>
<path d="M51.2105 60.1756C50.5554 60.0863 50.1957 59.3532 50.6577 59.0152C50.9682 58.7873 54.3081 58.7493 54.7682 58.886C55.4877 59.0987 55.3419 60.1775 54.9954 60.1775C53.8613 60.1775 52.2652 60.3199 51.2086 60.1775L51.2105 60.1756Z" fill="#071828"/>
<path d="M68.0621 60.1753C67.407 60.086 67.0472 59.3529 67.5092 59.0149C67.8936 58.7338 71.7277 58.7528 71.9171 59.0623C72.0477 59.2769 71.8906 59.8752 71.9436 60.1753C70.7242 60.0575 69.2455 60.3348 68.0621 60.1753Z" fill="#192D3F"/>
<path d="M84.5351 58.8467H88.5113C88.7366 58.8467 89.2743 60.0432 88.142 60.1856C87.6517 60.2464 84.7869 60.0849 84.3761 59.9577C83.7702 59.7697 84.1356 59.0974 84.5351 58.8486V58.8467Z" fill="#142738"/>
<path d="M93.2463 58.8467H96.8438C97.2301 58.8467 97.2301 60.1761 96.8438 60.1761H93.4357C93.3334 60.1761 92.6253 59.8267 92.5874 59.6956C92.4814 59.1904 92.8885 59.0689 93.2463 58.8467Z" fill="#041524"/>
<path d="M34.3599 60.1758C33.8562 60.0903 33.6764 59.3439 33.9092 59.0571C34.1705 58.7343 37.6052 58.7609 38.1145 59.0685C38.6768 59.4085 38.4023 60.1758 38.1467 60.1758C37.0769 60.1758 35.316 60.3372 34.3599 60.1758Z" fill="#081A2E"/>
<path d="M46.3823 58.8464C46.3766 59.2889 46.3823 59.7333 46.3823 60.1758C46.1266 60.4949 46.1323 60.9887 45.6249 60.9355C45.6097 60.6829 45.6381 60.4265 45.6249 60.1758C44.752 60.0391 42.7734 60.5253 42.2149 59.796C42.0994 58.5634 44.557 59.1161 45.3485 59.0458C45.782 59.0078 46.0093 58.5805 46.3804 58.8464H46.3823Z" fill="#132232"/>
<path d="M57.5504 49.7324C57.7398 50.7789 57.344 51.8899 57.344 52.8642C57.344 54.9305 57.558 57.0671 57.5675 59.1296C57.575 60.8104 56.7836 60.7705 56.7931 59.1296C56.8082 56.4366 56.9388 53.6656 56.9691 50.9631C56.9729 50.6801 57.0203 49.5596 57.5504 49.7305V49.7324Z" fill="#9CBFD4"/>
<path d="M57.1761 43.8426C57.1231 43.3602 56.9697 42.9177 56.9697 42.422C56.9735 40.4146 57.1988 38.1488 57.1893 36.149C57.1875 35.6875 56.627 32.833 57.2689 32.833C57.8577 32.833 57.3598 34.9734 57.3541 35.3836C57.3295 37.1631 57.3484 38.9408 57.3541 40.7203C57.3579 41.6034 58.0243 43.1513 57.1742 43.8445L57.1761 43.8426Z" fill="#9DB9CF"/>
<path d="M63.4214 59.2262C63.4404 59.2775 63.4082 59.3516 63.4214 59.4161L63.4593 60.0011C62.0109 60.1473 60.5208 60.1701 59.0666 59.9859C58.8527 59.7884 58.8546 59.6972 58.8773 59.4161C58.9322 59.2699 59.0193 59.1484 59.1651 59.0819C60.0682 58.6793 62.6149 58.8711 63.4214 59.2262Z" fill="#0A1A2A"/>
<path d="M25.3644 59.416C25.3758 59.2736 25.4326 59.1558 25.5424 59.0666C25.7052 58.9336 29.439 58.8007 29.6719 58.9374C30.0222 59.1425 30.0998 59.7636 29.7363 60.0446C29.4693 60.2517 25.6333 60.2706 25.3644 59.6078C25.3531 59.5509 25.3644 59.4787 25.3644 59.4179V59.416Z" fill="#0E1E32"/>
<path d="M57.3617 77.4602C57.0966 77.7413 57.0171 77.4413 56.9849 77.1792C56.8581 76.1802 57.1648 75.166 57.1553 74.3076C57.1497 73.7416 56.7672 70.8777 56.9849 70.6251C57.2443 70.5738 57.4394 70.6916 57.5189 70.9422C57.7253 71.5937 57.3617 73.6106 57.3541 74.5279C57.3485 75.1489 57.784 77.0139 57.3598 77.4621L57.3617 77.4602Z" fill="#9BB8CE"/>
<path d="M76.1083 59.9862C76.0136 59.9482 75.775 60.0982 75.7201 59.8703C75.6595 59.6158 75.7618 58.8467 76.0136 58.8467H80.4631V60.178C79.1396 60.0261 77.2973 60.4667 76.1083 59.9862L76.4074 59.6709L79.7966 59.5589C79.8799 59.2816 80.039 59.1069 80.2738 59.0366L80.0579 59.4164H76.6592L76.3904 59.0366C76.3677 59.3709 76.2862 59.7108 76.1064 59.9862H76.1083Z" fill="#50687A"/>
<path d="M53.7652 93.791C53.8352 94.1557 54.5642 95.8117 54.3313 96.07C53.5133 96.0548 53.3221 94.9894 53.0078 94.5507H53.7671V93.791H53.7652Z" fill="#283C55"/>
<path d="M57.55 83.5379C57.4061 84.3298 57.9211 85.6764 57.1751 86.1948C57.0482 85.4086 56.7926 84.5501 57.124 83.7715C57.2395 83.4999 57.1732 83.4847 57.55 83.536V83.5379Z" fill="#93ACC7"/>
<path d="M57.5516 104.618C57.5402 105.209 57.5913 105.807 57.5288 106.4C57.508 106.593 57.4531 107.292 57.1748 107.275C57.0309 106.588 56.5329 104.734 57.5497 104.618H57.5516Z" fill="#99B7C8"/>
<path d="M57.3611 69.2922C56.7287 68.825 56.8423 67.0455 57.2702 66.4453C57.6811 67.3854 57.522 68.3236 57.3611 69.2922Z" fill="#99B5CA"/>
<path d="M57.3613 111.454C57.1152 111.505 57.0584 111.1 57.0319 110.933C56.4923 107.427 58.2304 108.985 57.3613 111.454Z" fill="#97B8CA"/>
<path d="M57.3637 79.1689C57.5644 79.5507 57.7499 81.6341 57.2709 81.6341C56.9149 81.6341 56.7199 79.3513 57.3637 79.1689Z" fill="#94ACC4"/>
<path d="M57.5507 45.5535C57.42 46.2922 57.9048 47.5533 57.1758 48.0205C56.9296 47.2893 56.9126 46.7044 57.119 45.9637C57.2118 45.6294 57.0565 45.4718 57.5507 45.5535Z" fill="#96B1C6"/>
<path d="M25.3658 59.4161C25.3658 59.2262 25.3601 59.0344 25.3658 58.8464L29.7945 58.835C29.9535 59.1445 30.4136 60.0903 29.8229 60.1777C29.2321 60.265 25.6744 60.2499 25.4491 59.9935C25.3582 59.8909 25.3923 59.7276 25.3677 59.6079C26.2955 60.0884 28.435 60.1682 29.4385 59.9878C30.1561 59.8586 29.8399 59.0914 29.5957 59.0306C28.8156 58.8388 26.0929 58.9356 25.3677 59.418L25.3658 59.4161Z" fill="#42596D"/>
<path d="M57.5533 100.441C58.0134 102.349 56.6615 103.92 57.0061 101.119C57.0478 100.777 57.1008 100.302 57.5533 100.441Z" fill="#92ABC3"/>
<path d="M57.3629 26.7502C56.5885 26.2507 57.1168 25.0162 57.1774 24.2812C57.9007 24.7541 57.5125 26.0456 57.3629 26.7502Z" fill="#99B0CB"/>
<path d="M57.3608 31.3078C57.0446 31.3078 56.9972 30.6716 56.984 30.4551C56.9386 29.7486 57.0351 29.1408 57.1771 28.4609C57.4422 28.5274 57.5577 29.5017 57.5596 29.7049C57.5672 30.2728 57.3721 30.7533 57.3627 31.3078H57.3608Z" fill="#9DB4CD"/>
<path d="M57.1751 5.66878C56.9839 5.30983 56.7889 3.39355 57.2679 3.39355C57.622 3.39355 57.8132 5.50165 57.1751 5.66878Z" fill="#91B3C5"/>
<path d="M57.5509 96.262C57.5244 96.6114 57.7062 98.3473 57.2688 98.3454C56.6799 98.3454 57.0416 95.6277 57.5509 96.262Z" fill="#8CA0BD"/>
<path d="M57.3607 64.7342C56.7075 64.2499 57.0029 63.1123 57.1752 62.457C57.8852 62.8843 57.516 64.0789 57.3607 64.7342Z" fill="#91B3C5"/>
<path d="M57.5534 7.76052C57.5042 8.33787 57.6254 9.00449 57.5534 9.56664C57.5194 9.83063 57.4531 10.1136 57.1766 9.84772C56.9646 9.64261 56.7355 7.58579 57.5515 7.76052H57.5534Z" fill="#99B2C6"/>
<path d="M63.4251 59.416C63.4611 59.5812 63.7603 59.8338 63.6145 60.1757C62.7132 60.0219 59.5967 60.4682 59.0703 59.9858C60.248 59.8832 61.6226 60.1244 62.7719 59.9953C63.1998 59.9478 63.4289 59.9307 63.4251 59.416Z" fill="#41576B"/>
<path d="M57.3642 20.2949C57.5403 20.6349 57.7542 22.3688 57.2714 22.3802C56.9192 22.3897 56.7356 20.4355 57.3642 20.2949Z" fill="#95ADC6"/>
<path d="M57.553 12.1287C57.5397 12.4553 57.6893 14.0241 57.2708 14.0222C56.913 14.0222 56.6668 11.9919 57.553 12.1287Z" fill="#96ADC6"/>
<path d="M57.5508 92.0834C57.5508 92.5487 57.5811 93.0178 57.5281 93.485C57.5054 93.6825 57.4543 94.3757 57.174 94.3606C57.015 93.6465 56.9146 93.2191 57.1172 92.4937C57.2119 92.1594 57.0548 91.9999 57.5489 92.0834H57.5508Z" fill="#91ADC6"/>
<path d="M58.8789 59.4158C58.9225 58.8897 59.0512 58.8916 59.5321 58.8365C60.7326 58.696 62.1924 58.9581 63.425 58.846C63.4534 58.9638 63.3909 59.1385 63.425 59.2259C62.0977 58.9828 60.0585 58.7321 58.8808 59.4158H58.8789Z" fill="#41576B"/>
<path d="M57.3618 115.442L57.0039 113.998L57.1781 112.975C57.8957 113.442 57.5227 114.745 57.3637 115.442H57.3618Z" fill="#94B9CB"/>
<path d="M57.552 88.0957C57.4706 88.6826 57.838 89.6682 57.1772 89.993C57.037 89.4061 56.5959 88.1546 57.552 88.0957Z" fill="#8DA8C4"/>
<path d="M57.5519 16.3068C57.5481 16.9373 57.6655 17.6609 57.2698 18.2041C56.6317 17.942 57.1278 15.7769 57.5519 16.3068Z" fill="#92A9C3"/>
<path d="M76.1086 59.9857C75.8075 59.8604 75.8094 59.0361 76.3926 59.0361H80.274V59.9876C79.3785 59.7863 76.7561 60.2554 76.1086 59.9876V59.9857Z" fill="#0C1C2B"/>
</g>
<defs>
<clipPath id="clip0_3019_21711">
<rect width="114" height="120" fill="white"/>
</clipPath>
</defs>
</svg>
