<svg width="219" height="120" viewBox="0 0 219 120" fill="none" xmlns="http://www.w3.org/2000/svg">
<g clip-path="url(#clip0_3019_21965)">
<path d="M103.574 4.25301C104.692 3.16141 106.175 1.05851 107.399 0.218815C108.623 -0.620882 108.992 1.06216 109.778 1.89091C137.65 31.273 167.769 58.6398 195.817 87.8686C196.113 88.1132 197.041 88.9529 197.289 88.9529H202.587C202.652 88.9529 202.934 90.1285 202.923 90.1942C202.682 91.3478 198.382 90.7856 198.203 91.702C201.469 98.3246 204.899 107.627 210.621 112.508C212.491 114.104 215.827 114.805 215.378 117.433C206.993 117.725 198.345 117.039 189.99 117.437C184.524 117.696 179.968 119.003 174.656 120.003L19.3652 119.992C18.291 119.857 18.2509 118.521 18.0938 117.612V92.0561C17.7723 90.3 15.0869 91.6837 15.898 88.9529C17.1 89.0149 18.3568 88.9492 19.3725 88.2264C25.4007 82.0236 31.6883 76.0617 37.8188 69.9684L38.3084 69.9429C48.8487 59.4613 59.462 48.9797 70.1557 38.4944C70.9412 37.8044 72.0226 37.7022 71.7961 38.9325C67.3973 43.6567 62.8926 48.2787 58.2783 52.8058C47.6175 64.7915 36.4707 76.3319 24.8417 87.4341L24.29 88.3651C26.252 90.5154 25.039 91.7458 20.6475 92.0525L21.3782 92.392V116.802L20.6475 117.243C21.4403 116.703 21.5938 116.929 21.1956 117.791L21.5463 117.061H174.554L175.01 117.791L175.902 117.035C186.636 116.298 192.123 105.338 193.859 96.0428C194.202 94.1955 194.487 92.3263 193.698 90.5958L126.693 23.347C122.276 18.798 117.983 14.1359 113.804 9.36421C112.624 8.62309 111.641 7.60815 110.881 6.44353C110.121 6.89623 109.635 6.40702 109.42 4.98318L108.883 5.15477C108.473 4.74588 107.122 4.21285 106.734 4.58889C99.6173 11.803 92.3542 18.8674 84.9413 25.7931C83.8489 26.0632 83.6772 25.3148 84.1741 24.3838C91.0901 18.0204 97.5567 11.3101 103.574 4.25301Z" fill="#030304"/>
<path d="M103.575 4.25293C103.794 5.82645 102.647 6.04185 101.971 6.86329C97.5355 12.2301 91.8179 17.9619 86.787 23.0731C86.1221 23.7485 83.8021 24.6868 84.942 25.793C80.8209 30.4223 76.371 34.7631 71.7895 38.9361C71.2671 38.3665 70.6058 39.02 70.2003 39.3596C61.41 46.7964 52.9157 56.2959 44.9804 64.1562C42.6641 66.4489 40.3953 68.9169 37.9876 71.06L37.8086 69.9683C59.7879 48.1289 81.4018 25.9062 103.571 4.25293H103.575Z" fill="#0E0D0C"/>
<path d="M204.41 48.4282C203.643 48.8882 203.117 49.8995 201.882 49.4906L198.93 35.2851C199.459 34.69 202.7 39.144 203.171 39.6223C204.209 40.6701 208.644 44.1202 208.966 44.7846C209.985 46.8912 207.808 46.1756 206.964 46.9678C207.048 48.8005 206.587 49.246 205.594 48.304L204.406 48.4282H204.41Z" fill="#030303"/>
<path d="M211.72 59.381C211.27 57.6724 212.359 58.5596 212.816 59.7461C217.478 71.0418 219.955 81.3373 218.661 93.6991C218.311 95.1667 217.945 95.4113 217.565 94.4292C217.58 94.3088 217.551 94.1846 217.565 94.0642C218.081 90.9573 218.45 87.6569 217.931 84.5719C217.178 76.4196 215.319 70.7315 213.181 63.0319L212.085 60.4763C211.928 60.082 211.822 59.6147 211.72 59.381Z" fill="#201B1D"/>
<path d="M218.66 93.6992C218.448 95.7254 216.567 107.321 215.189 107.938C214.305 108.332 214.199 107.806 214.301 107.054C214.795 103.337 217.027 98.7411 217.568 94.433C218.174 94.5608 218.382 94.1592 218.664 93.7029L218.66 93.6992Z" fill="#37393A"/>
<path d="M0 88.9531H7.30694C8.30799 88.9531 8.42856 91.1436 6.94159 91.1436H0" fill="#1B171B"/>
<path d="M212.813 59.7465C212.43 59.3449 212.557 58.8265 211.903 59.02L211.717 59.3814C210.899 57.5085 207.472 50.4624 206.409 49.17C205.798 48.4288 205.334 48.323 204.41 48.4288C205.718 47.6476 206.529 48.5274 206.599 48.4288C206.715 48.2682 206.346 47.549 206.968 46.9648C206.803 47.7717 207.121 48.1988 207.461 48.845C209.492 52.704 211.144 55.6977 212.813 59.7428V59.7465Z" fill="#302B2B"/>
<path d="M215.328 88.9934C215.499 89.2015 215.499 90.5706 215.156 90.8188C214.265 91.4687 209.168 91.7498 210.436 89.3147C211.035 88.161 214.962 88.548 215.328 88.9898V88.9934Z" fill="#1E1F28"/>
<path d="M217.562 94.0645C217.917 90.9722 217.921 87.6901 217.928 84.5723C217.932 84.627 218.268 84.9666 218.308 85.4521C218.542 88.1501 218.337 91.4724 217.562 94.0645Z" fill="#37393A"/>
<path d="M213.182 63.0322C212.225 62.4334 212.375 61.2104 212.086 60.4766C213.222 61.1885 212.941 62.156 213.182 63.0322Z" fill="#302B2B"/>
<path d="M58.2714 52.8098C74.2553 36.7241 90.3306 20.7151 106.504 4.79009C107.48 3.87007 109.007 4.46881 107.593 5.34867C108.138 5.53486 108.127 6.26504 107.593 6.44393C107.823 23.059 107.94 39.8128 107.944 56.7126C108.075 39.3162 108.404 22.1572 108.93 5.23549L109.42 4.98724C109.88 5.40708 110.319 5.94011 110.881 6.44758C111.641 7.60855 112.628 8.62714 113.804 9.36826C140.591 36.3225 167.539 63.1271 194.254 90.1617C195.682 92.8013 194.498 96.5215 193.786 99.3363C191.528 108.263 185.383 117.799 174.996 117.799H21.1886C21.1485 117.799 20.6406 117.291 20.6406 117.251V92.0602C20.6406 90.5597 23.8739 91.2059 24.4804 90.4209C25.0869 89.636 23.589 89.3074 23.5671 88.4166C23.5561 87.8872 23.9726 87.3506 24.2941 86.9453C35.7002 75.6496 46.9748 64.2151 58.2677 52.8098H58.2714Z" fill="#FEFEFD"/>
<path d="M207.698 114.874H189.979C189.785 114.874 188.908 114.539 189.102 114.009C189.643 112.542 192.153 109.84 193.146 107.821C194.893 104.276 195.707 100.351 196.924 96.6201L207.698 114.878V114.874Z" fill="#AFAEAD"/>
<path d="M109.422 4.98342L108.136 90.7749L107.212 89.5154C107.5 62.4954 106.887 35.4608 107.223 8.44443C107.23 7.82744 106.989 6.8198 107.595 6.44011L107.975 6.52408C108.238 7.71061 108.11 7.31997 107.595 5.34485C107.5 5.26089 107.913 4.19118 106.861 4.78992L58.2734 52.806C62.811 48.2242 67.25 43.4963 71.7913 38.9327C76.1535 34.5481 80.5596 30.1561 84.9438 25.7897C92.0352 18.7289 99.2983 11.7777 106.317 4.61468C107.625 3.45736 108.381 4.0269 109.422 4.97977V4.98342Z" fill="#59565F"/>
<path d="M113.806 9.36404C112.607 9.05007 111.186 7.62259 110.883 6.44336C111.942 7.40353 112.812 8.36371 113.806 9.36404Z" fill="#59565F"/>
<path d="M132.44 55.3654C132.663 56.6249 132.426 57.0703 131.388 56.0992H130.248C130.033 56.1795 129.693 56.3329 129.517 56.4606C128.703 57.1945 127.972 57.3186 127.325 56.8257L124.406 43.3176C125.21 42.4888 127.066 45.7563 127.504 46.2419C128.403 47.2276 129.452 48.2426 130.424 49.1662C131.129 49.8416 134.234 51.9847 134.464 52.4374C135.257 53.9963 133.412 54.6206 132.444 55.3617L132.44 55.3654Z" fill="#020203"/>
<path d="M140.475 75.8105C140.135 73.4703 141.144 74.529 141.571 76.1756C144.07 81.4255 144.848 93.1557 144.49 98.9898C144.249 102.896 143 111.771 141.286 115.137C141.023 115.652 140.789 116.101 140.114 115.97C139.555 115.309 141.56 109.968 141.831 108.745C144.202 98.0843 143.223 90.0415 141.571 79.4613C141.312 78.3186 140.946 77.2234 140.475 76.1756C140.439 76.066 140.512 75.92 140.475 75.8105Z" fill="#1E201F"/>
<path d="M141.572 76.1751C141.108 75.2003 140.626 74.1014 140.476 75.81C138.803 70.7938 135.007 61.6301 132.142 57.3038C131.627 56.5262 131.375 55.964 130.246 56.0954C131.499 55.5952 131.773 56.1283 132.04 56.0516C132.076 56.0406 132.201 55.5478 132.438 55.3652C135.964 61.9696 139.829 68.8771 141.572 76.1751Z" fill="#383634"/>
<path d="M89.2775 89.0001C89.6758 89.6426 89.4091 90.9606 88.4153 91.1431C87.4216 91.3257 81.028 91.2527 80.7211 90.8C80.6006 90.6211 80.6042 90.413 80.5567 90.2158C79.9539 87.6237 83.7389 88.9052 85.087 88.9161C85.8396 88.9234 88.7149 88.0874 89.2775 89.0001Z" fill="#221D1E"/>
<path d="M121.842 88.9566C121.842 89.957 122.145 90.9208 120.929 91.1471C119.983 91.3224 113.542 91.2603 113.235 90.804C113.034 90.5082 112.935 89.2012 113.11 88.9895C113.786 88.179 120.425 88.7303 121.839 88.9566H121.842Z" fill="#1A1819"/>
<path d="M97.5476 91.1435C96.985 90.9866 96.1885 89.7307 97.0069 89.1392C97.8801 88.5113 103.349 88.347 104.416 88.661C105.804 89.0699 105.523 91.1435 104.855 91.1435C103.232 91.1435 98.7094 91.4685 97.5476 91.1435Z" fill="#1F1C1D"/>
<path d="M137.92 91.1441H129.7C129.09 91.1441 128.608 89.2457 130.241 88.7382C131.194 88.4425 132.557 88.9865 133.722 88.9792C135.838 88.9646 138.165 87.3399 137.92 91.1441Z" fill="#19181A"/>
<path d="M170.379 89.0076C170.591 89.1427 170.854 90.3767 170.792 90.7637C170.481 91.2164 163.908 91.315 162.955 91.1324C161.8 90.9097 161.095 89.767 162.25 88.9857C162.918 88.533 170.032 88.7849 170.379 89.004V89.0076Z" fill="#171515"/>
<path d="M40.313 89.008C40.4701 89.1103 40.8099 90.1033 40.5871 90.4282C39.7687 91.6257 31.7749 91.2095 31.5813 90.5706C31.5155 90.3589 31.5484 89.1139 31.6434 88.9971C31.9466 88.6283 39.9404 88.778 40.3094 89.0117L40.313 89.008Z" fill="#0B070A"/>
<path d="M49.3211 91.1432C48.1739 90.9898 47.3847 89.7084 48.0643 88.9746C48.6781 88.3138 51.747 88.9636 52.6019 88.9819C53.6577 89.0074 55.2762 88.4525 56.1604 88.949C56.9934 89.4163 56.8947 91.1432 56.259 91.1432C54.1765 91.1432 51.2574 91.406 49.3174 91.1432H49.3211Z" fill="#2A272A"/>
<path d="M186.511 88.9532C186.434 89.4096 186.676 90.4939 186.467 90.7421C186.076 91.2094 178.634 91.3737 178.083 90.9867C177.681 90.7056 177.586 89.154 177.757 88.9715C178.324 88.38 185.178 89.2854 186.507 88.9532H186.511Z" fill="#100F11"/>
<path d="M64.4828 88.9531H72.7031C73.4301 88.9531 73.4265 91.1436 72.7031 91.1436H65.3962C64.4207 91.1436 63.8909 89.8184 64.4828 88.9531Z" fill="#191517"/>
<path d="M153.627 88.9534C153.974 89.063 154.405 89.8515 154.332 90.1911C153.974 91.8303 147.375 91.0198 145.954 90.7789C145.129 90.6766 145.012 89.9501 145.45 89.3368C146.25 88.2123 152.154 88.7307 153.627 88.9534Z" fill="#121113"/>
<path d="M153.629 88.9529C153.274 88.8398 146.658 88.8288 146.201 88.9347C145.712 89.0515 145.515 90.3476 145.957 90.7784C145.021 90.6214 144.199 91.0084 145.043 89.318C145.617 88.1643 150.22 88.5659 151.627 88.5842C152.244 88.5915 153.253 88.3505 153.633 88.9566L153.629 88.9529Z" fill="#6E716C"/>
<path d="M107.594 5.34855C107.623 5.37411 108.285 4.9214 108.321 4.97982V13.5593C107.81 14.1508 107.963 13.1468 107.956 12.8365C107.923 11.3688 107.686 10.0837 107.623 8.77671C107.572 7.73621 107.908 7.79828 107.591 6.44016C107.517 6.13349 107.638 5.68808 107.591 5.3449L107.594 5.34855Z" fill="#1D161F"/>
<path d="M141.573 79.4606C140.729 78.5953 140.802 77.1715 140.477 76.1748C141.653 77.0802 141.39 78.2923 141.573 79.4606Z" fill="#383634"/>
<path d="M129.516 56.4609C128.903 56.9027 128.424 58.6222 127.324 56.826L129.516 56.4609Z" fill="#383634"/>
</g>
<defs>
<clipPath id="clip0_3019_21965">
<rect width="219" height="120" fill="white"/>
</clipPath>
</defs>
</svg>
