<svg width="115" height="120" viewBox="0 0 115 120" fill="none" xmlns="http://www.w3.org/2000/svg">
<g clip-path="url(#clip0_3019_21763)">
<path d="M24.0229 88.9694C19.4196 84.6649 12.2249 78.8683 8.38081 74.3331C7.92416 73.7946 6.76485 72.6513 7.09851 71.9889L49.3565 28.6453C49.9715 28.3106 50.0888 27.9872 50.5102 28.8127L51.6567 38.3443C52.734 39.091 56.1229 33.6431 57.3599 33.3211C58.3156 33.0722 60.4533 35.8566 61.4684 36.5372C62.2983 37.5778 62.7351 37.8717 63.5368 36.8466C63.722 34.4433 64.0019 32.0499 64.3765 29.6663C64.894 28.6439 65.7225 28.1559 66.7588 28.9237L83.6436 46.6623L85.3034 48.7618C85.5465 51.1313 82.5281 48.9137 81.8255 47.7479L81.0196 48.0544C78.1242 45.4472 75.3758 42.6868 72.7716 39.7716C72.9568 39.406 72.9653 39.0403 72.7362 38.7071L71.9219 38.9082L67.5533 34.1395L66.5552 35.453C66.7955 37.6974 66.6739 39.953 66.1904 42.2185C64.9265 59.064 63.2964 75.8913 61.5405 92.6918C61.4528 93.5271 61.269 94.354 61.0739 95.1809C60.8788 96.0078 60.6343 96.8318 60.3755 97.6489C58.9448 99.5009 58.901 96.5478 59.0607 95.2006C59.4 92.1631 59.5951 89.1227 59.6474 86.0768C59.3209 83.6538 59.441 81.1225 60.0108 78.483C59.8694 76.5086 59.7379 74.5202 59.9062 72.5416L62.5923 43.1986C62.1428 41.6068 61.0853 40.2497 59.4198 39.1261L59.6474 38.3443C58.8812 38.1882 58.1559 37.8436 57.473 37.3092C55.5347 38.6578 53.7152 40.2089 52.013 41.9597C52.3862 42.5236 52.5206 43.2465 52.4145 44.1268C53.5611 51.497 54.5267 59.2834 54.7487 66.963C54.7798 68.0542 54.4942 69.1244 54.1931 70.165L54.6836 77.3608C53.612 79.0118 52.9108 76.7013 52.7764 75.4596C52.1742 68.5141 51.5564 61.5657 50.9216 54.616C50.4847 53.7343 50.2429 52.6487 50.1949 51.362L49.4442 51.0877L48.1138 34.231C46.0751 35.8074 44.1976 37.6636 42.4799 39.8011L41.4718 39.7927C40.222 41.5322 38.9468 43.2661 37.4581 44.813L10.845 72.197C16.7264 78.4239 22.9951 84.5791 29.6498 90.664L29.8378 91.5021C31.3576 93.3134 29.9269 94.1782 28.383 92.5863C27.7341 92.8071 27.1233 92.3824 26.5493 91.3109C25.4084 90.9466 24.2435 90.1845 24.0201 88.9694H24.0229Z" fill="#010305"/>
<path d="M87.6416 92.2253C83.2504 96.3808 78.7673 100.6 74.1908 104.882C74.0693 105.003 73.9477 105.122 73.8275 105.243C71.8949 106.803 70.0781 108.49 68.3745 110.306C64.8839 113.373 61.3169 116.416 58.2052 119.907C57.2721 120.428 55.6915 118.612 54.9224 117.899C49.5641 113.704 44.3628 108.999 40.0169 103.796C36.3891 100.42 32.7316 97.0544 29.1109 93.671C28.397 93.46 27.7565 93.2421 28.3842 92.5867L29.8376 92.9467V91.5025L30.6251 91.2185C38.8547 98.6154 47.1013 106.185 55.3607 113.929L54.6608 103.911C54.7202 103.224 54.9323 102.584 55.2871 101.989V101.628C55.8894 100.355 56.0195 98.7968 55.6788 96.9504C55.7904 96.6002 56.0308 96.3583 56.3772 96.2036C57.1166 96.4455 57.6934 97.6254 56.7405 98.0121L56.9271 101.917C57.4375 102.353 57.8602 101.895 58.1953 100.543C57.3583 99.8951 57.5591 97.7252 58.478 97.4186L58.922 95.1194C58.232 93.9438 57.9634 92.7006 59.0619 91.8006C58.9715 89.777 59.168 87.8688 59.6487 86.0786C60.2269 89.2638 58.922 93.4474 59.2669 96.4047C59.3631 97.2232 59.3857 97.6563 60.3753 97.6507C61.4018 98.344 61.5431 101.041 60.3753 101.629L60.1901 105.256C60.2184 105.593 60.0205 105.692 59.6487 105.607C59.3235 105.313 59.1213 104.977 59.1284 104.569C58.7396 105.628 57.938 106.582 56.7546 105.869C56.4394 106.492 56.6557 113.633 58.6307 113.522L58.922 114.285L59.708 114.385C64.0625 110.751 68.1045 106.603 72.0419 102.535C80.0043 95.7114 87.6925 88.5353 95.1078 81.009C98.4867 78.3048 101.553 75.4726 104.306 72.5124C103.268 71.4409 102.561 70.2976 102.182 69.0854C101.768 68.9026 101.361 68.7085 100.979 68.4737C100.597 68.2388 100.247 68.0068 99.9472 67.7101C93.6742 61.4804 87.3249 55.0482 81.3432 48.7116C81.0562 48.3136 81.3771 48.0098 81.8239 47.7497C82.1745 47.9944 84.3248 49.2277 84.5426 49.1967C85.945 48.997 83.3409 47.2533 83.6406 46.6641L108.01 71.8135C108.074 72.2565 107.975 72.6615 107.839 73.0792C107.478 74.1845 102.321 78.2218 101.087 79.3848C96.5809 83.6275 92.0837 87.9222 87.6402 92.2267L87.6416 92.2253Z" fill="#03060C"/>
<path d="M2.57255 2.54512C1.82042 1.86168 1.1206 1.03199 2.475 0.991211C5.71115 1.78715 8.80027 2.2245 12.182 1.95168C14.2843 1.84481 15.0803 2.4045 14.5699 3.62935C14.4653 4.02029 14.3465 4.34091 14.2066 4.71357C14.4215 6.11701 13.938 7.20264 12.7518 7.96764C12.3517 8.81843 12.2457 9.83796 11.4822 10.4905C11.1047 10.5172 7.05001 5.96373 6.21163 5.25217C5.08343 4.29169 3.77144 3.417 2.57255 2.54372V2.54512Z" fill="#030203"/>
<path d="M104.729 2.18386L113.65 1.13901C114.417 1.10245 111.561 4.01621 110.91 3.99231C108.637 6.12138 106.245 8.16888 103.819 10.1306C103.077 9.61733 103.205 8.62592 102.913 7.9692C101.492 7.08607 101.007 6.12138 101.458 5.07653C99.6355 1.05042 100.96 2.35824 104.729 2.18386Z" fill="#020203"/>
<path d="M30.9309 18.8182C31.5714 20.1907 31.4922 20.8249 30.2042 19.541C28.01 16.6694 23.6641 12.8275 20.6541 10.7786C19.919 10.278 15.1093 7.37548 14.6583 7.30235C13.7761 7.16032 13.3816 7.45282 12.7539 7.96892C13.2869 6.83688 13.7577 5.91719 14.2087 4.71484C14.179 5.4686 14.0093 6.02829 14.8279 6.45157C15.8755 6.99298 17.3685 7.29814 18.6833 8.04064C23.5411 10.7814 27.5605 14.4658 30.9323 18.8182H30.9309Z" fill="#2A2F33"/>
<path d="M30.9298 18.8184C34.2692 23.1285 37.5209 28.5398 38.1967 34.0059C36.1382 32.7192 35.9049 29.8547 34.8771 27.7298C33.6867 25.2689 31.829 21.6717 30.2031 19.5426L30.927 19.904L30.9312 18.8198L30.9298 18.8184Z" fill="#383737"/>
<path d="M93.4584 11.5861C88.9724 14.7108 84.4003 20.1615 81.8243 24.9653C81.5642 24.8176 81.3224 24.6967 81.0977 24.6038C83.5435 20.1291 85.1679 16.6515 89.4588 13.3946L91.5879 11.6199C92.9621 10.5694 93.5856 10.5596 93.4584 11.5875V11.5861Z" fill="#323839"/>
<path d="M54.9215 117.899C53.7961 117.399 52.1448 116.447 51.1976 115.717C49.9577 114.763 48.9045 113.15 47.8879 112.239C45.4831 110.086 42.0561 107.447 40.0527 104.957C39.6032 104.399 39.4745 104.552 40.016 103.796C45.0165 108.452 49.9309 113.26 54.9215 117.899Z" fill="#E4EAE9"/>
<path d="M81.8245 24.9657C80.4857 27.4632 79.4904 30.3489 78.5799 33.039C75.553 35.3551 78.242 29.6767 78.8528 28.3379C79.4635 26.9992 80.4065 25.8671 81.0978 24.6043C81.8415 24.1431 81.8867 24.001 81.8245 24.9657Z" fill="#323036"/>
<path d="M102.912 7.96884C102.432 7.62149 102.041 7.18556 101.36 7.28962C101.019 7.34165 96.0087 10.0656 95.2778 10.5001C93.7043 11.0331 93.7043 10.5507 95.2778 9.05306C96.2675 8.44978 97.2218 7.64259 98.2213 7.09977C99.3099 6.50774 101.31 6.61321 101.457 5.07617C101.907 6.06758 102.47 6.97743 102.912 7.96884Z" fill="#363D3D"/>
<path d="M87.6436 92.2247C84.9248 94.8586 82.421 97.764 79.65 100.366C78.0468 101.87 76.0025 103.725 74.1914 104.881C78.1528 100.927 82.0421 96.909 86.1831 93.1219C86.6313 92.7113 86.931 92.2163 87.6421 92.2247H87.6436Z" fill="#BCBFBF"/>
<path d="M14.5694 3.63121C14.8677 2.34167 13.9389 2.27417 12.9365 2.18417C11.1806 2.02808 9.27056 2.29105 7.48495 2.17995C6.03441 2.08995 4.1767 1.43745 2.76009 1.4487C1.67572 1.45714 2.66395 2.01823 2.57205 2.54699C2.02775 2.15183 0.934893 1.9212 0.387759 1.18995C0.0753126 0.769479 -0.372857 -0.188181 0.551758 0.0326008C2.99336 0.619009 5.26673 1.54714 7.89212 1.77495C9.28753 1.89589 14.5624 1.39807 14.9172 2.40495C15.1731 3.13058 14.6359 3.38511 14.5708 3.6298L14.5694 3.63121Z" fill="#444446"/>
<path d="M104.73 2.18407C108.087 1.24329 111.675 1.45844 114.908 0.015625C115.638 0.790472 111.934 4.01783 110.912 3.99111C111.773 3.18532 112.744 2.41048 113.456 1.46407C110.548 1.83532 107.664 2.04766 104.732 2.18407H104.73Z" fill="#404145"/>
<path d="M64.3769 29.6664L63.646 38.343C62.5503 38.5034 61.6087 37.5837 61.4688 36.536C64.3204 38.4485 63.441 34.9005 63.653 33.1033C63.7732 32.0824 63.9344 30.5397 64.3769 29.665V29.6664Z" fill="#C8CCD3"/>
<path d="M95.2747 9.05469C95.214 10.0461 93.7874 10.6283 95.2747 10.5017C94.7262 10.828 93.9189 11.2653 93.4566 11.5859C92.3016 10.6395 91.1536 12.5056 90.3703 13.0513C90.0268 13.2903 89.5631 13.3142 89.457 13.3944C90.8765 11.4313 93.2403 10.2936 95.2733 9.05469H95.2747Z" fill="#4C5456"/>
<path d="M73.828 105.243C71.9674 107.109 70.2836 108.628 68.375 110.306C69.9924 108.589 71.6917 106.28 73.828 105.243Z" fill="#BCBFBF"/>
<path d="M24.0233 88.9692C25.3509 90.2109 27.1054 91.3865 28.3863 92.5847C28.6577 92.8378 28.8415 93.4158 29.113 93.6689C26.325 93.69 27.3839 92.7703 26.5922 91.634C26.2076 91.0828 25.5898 91.5412 25.1346 91.3008C24.849 91.1503 23.2853 89.4965 24.0247 88.9678L24.0233 88.9692Z" fill="#E2E9EA"/>
<path d="M41.4722 39.791C42.0646 39.8698 42.4208 40.3395 42.5438 41.1987C44.8045 39.3959 46.2154 39.4226 46.7753 41.2788C48.739 47.8601 50.536 54.4076 49.7202 61.1928C49.7782 62.7622 50.6434 65.7674 51.2528 67.2482C51.2754 67.3016 51.4422 67.296 51.6514 67.2735L52.1067 67.58C52.9182 74.5874 53.741 81.6032 54.5766 88.6289C54.5384 93.1008 54.7745 97.5544 55.2863 101.988C55.422 105.435 55.8461 108.847 56.0285 112.279C56.0497 112.68 56.3523 115.345 55.4743 115.002C47.4341 107.947 39.8237 100.434 32.0239 93.1247C31.3863 92.527 30.4715 92.0967 29.8382 91.5018C24.0077 86.0329 16.3196 79.5712 11.155 73.7451C10.762 73.3021 10.089 72.4822 10.246 71.8691C20.5482 61.0705 30.8603 50.2761 41.4722 39.7924V39.791Z" fill="#BBE1F6"/>
<path d="M66.5568 35.4521L67.268 35.9092C66.8382 37.8653 71.2237 40.9717 72.7365 38.7076C75.1399 41.0786 79.4463 46.0933 81.8257 47.7484C81.8172 48.4572 82.3149 48.7539 82.7277 49.1997C89.0007 55.9863 96.0215 62.1808 102.184 69.0827C104.103 71.7785 104.028 73.6714 101.962 74.7612L101.21 76.0071C95.3754 80.1697 90.102 85.5134 85.3814 90.8783C81.9727 93.2942 78.9854 96.0463 76.4236 99.1358C72.5739 101.775 69.366 105.104 66.1921 108.548C58.9224 115.751 59.8159 106.87 60.3772 101.628C60.4762 100.32 60.2669 98.9558 60.3772 97.6494C61.9281 79.25 64.2651 60.6747 65.4696 42.1459L66.5568 35.4536V35.4521Z" fill="#BBE1F6"/>
<path d="M59.6479 38.3443C61.0165 39.6775 63.3379 41.2131 63.3167 43.2254C62.2592 54.9831 61.2978 66.7535 60.0113 78.4831L59.3284 84.6031L58.9212 84.8112C59.1446 84.8478 59.3185 84.8844 59.3185 84.9209C59.3185 87.4775 59.1573 90.0369 58.9212 92.5864C58.4109 93.1475 57.9627 93.8661 57.5753 94.7422L56.7398 94.3949C56.6436 93.3317 56.522 92.2475 56.3764 91.1408C56.351 89.9666 56.0414 89.0933 55.4433 88.5223C54.9796 82.3615 54.5625 76.2429 54.195 70.1665C53.9051 63.8608 53.2873 57.4792 52.7388 51.1834C52.521 48.6887 51.6897 45.5612 51.6261 43.1861C51.6063 42.4154 51.8551 42.3859 52.0135 41.9598L53.4612 40.7434C55.244 37.959 57.3067 37.1589 59.6479 38.3443Z" fill="#FCFDFD"/>
<path d="M41.4702 39.7916C43.3816 37.903 45.5673 35.0469 47.6484 33.4607C48.0132 33.1822 48.1093 32.7589 48.7398 32.9221L50.196 51.3623L50.9227 59.3175C51.6734 61.7404 52.1456 64.8103 51.6494 67.2727L51.6452 70.8881C50.4208 70.2975 51.0839 68.4623 50.8365 67.1756C50.6131 66.0098 49.4029 64.4517 49.1838 63.3956C48.6819 60.9684 49.2926 57.6932 49.4383 55.2182C48.5603 50.2598 47.1465 45.3843 45.8133 40.5271C44.6554 39.7115 41.8491 44.4969 41.4688 39.7902L41.4702 39.7916Z" fill="#C9E3F3"/>
<path d="M50.9235 54.6172C52.0531 61.5641 52.6865 68.4716 53.1234 75.3904L54.1908 77.7585C54.547 75.202 54.3138 72.7508 54.195 70.1662L56.0103 84.4523C55.9933 86.6868 56.2068 88.92 56.3765 91.139C56.5659 91.7142 56.7638 92.4961 56.3765 92.9475L55.5367 93.0305C55.6583 95.7516 55.7389 98.4839 55.811 101.197C55.818 101.471 55.5975 101.597 55.285 101.627C55.2893 101.748 55.2808 101.869 55.285 101.988L52.3797 75.0459C52.6215 72.4344 51.8778 69.7485 51.6502 67.2735C51.407 64.6368 51.0451 61.9663 50.9235 59.3183C50.5828 57.6392 50.5828 56.0727 50.9235 54.6172Z" fill="#0C1216"/>
<path d="M66.5554 35.4519C66.5554 33.9472 66.0619 32.6295 67.9225 33.5225C68.3777 33.7405 71.8655 37.8467 72.7364 38.7059C73.1648 39.7213 71.7015 40.3695 71.0088 40.4624C70.5762 40.52 66.7872 37.8088 66.6345 37.5458C66.4027 37.145 66.5554 36.0256 66.5554 35.4519Z" fill="#CAE3F1"/>
<path d="M59.6501 38.3446C58.5417 39.1321 56.8607 38.1506 56.0294 38.5106C54.9832 38.9634 53.568 41.7 52.0156 41.9615C52.0651 41.8293 51.9421 41.572 52.1174 41.347C53.6316 40.8618 56.2909 36.854 57.3611 36.5756C58.4257 36.2985 59.052 37.761 59.6515 38.3446H59.6501Z" fill="#EBECE5"/>
<path d="M59.6481 86.0772C59.4473 88.967 59.1773 92.1311 58.9214 95.118C58.8338 97.6872 57.4723 99.4844 56.6735 96.0349C56.5519 95.5117 56.477 94.8578 56.7399 94.3952C57.6957 94.0957 57.4751 93.0297 57.4695 92.2267L58.9214 92.5867V84.8115C58.9214 83.0115 59.8163 80.2707 60.0114 78.4834C59.8234 80.9964 59.822 83.5684 59.6481 86.0772Z" fill="#D5D2DF"/>
<path d="M50.9259 54.6174C50.9768 56.1769 50.8538 57.7617 50.9259 59.3185C50.3279 56.7619 50.1978 53.9761 50.1992 51.3633C50.6064 52.3533 50.7563 53.5725 50.9259 54.6174Z" fill="#BBE1F6"/>
<path d="M58.9219 114.282C58.1754 111.723 58.543 108.03 59.6486 105.604C60.3597 104.799 59.9271 103.287 60.0218 102.163C60.0713 101.584 60.3724 101.66 60.3753 101.627C61.003 104.229 58.8455 113.482 64.1882 109.578C66.2467 108.074 69.3075 103.982 71.4098 102.115C72.8067 100.876 75.2949 99.8738 76.2648 98.9921C76.6253 98.6645 76.925 97.4087 77.4622 96.7449C79.4613 94.2769 83.5571 92.5177 85.3017 90.8007C85.9944 90.12 87.0731 88.0261 87.8564 87.1936C90.5397 84.3446 95.9644 79.1977 98.9419 76.8872C99.5356 76.4273 100.942 75.9633 101.013 75.8733C101.212 75.6244 101.057 74.9297 101.273 74.5162C101.796 73.5136 103.497 73.979 102.826 71.5195C102.616 70.7545 101.337 70.1147 102.182 69.0811C102.766 69.735 105.1 72.0187 105.102 72.5151C105.105 73.2815 100.197 77.0587 99.2684 77.9348C90.5567 86.1516 81.8676 94.3627 73.0937 102.525C71.3674 104.129 60.4035 115.364 59.4648 115.361C59.1099 115.361 58.9685 114.319 58.9205 114.282H58.9219Z" fill="#C7DAE9"/>
<path d="M58.9224 114.283C58.8531 114.231 58.1391 114.288 57.6429 113.944C55.5279 112.478 56.1344 106.533 56.0156 104.159L57.65 105.596L59.6476 102.712C59.6561 103.674 59.6434 104.641 59.6491 105.603C59.6674 108.493 59.3507 111.431 58.9224 114.281V114.283Z" fill="#010305"/>
<path d="M56.3763 92.9479C56.6463 93.8592 56.7679 95.392 56.3763 96.202C56.2929 97.6954 56.4951 99.2522 56.3763 100.74C56.2887 101.85 56.5559 101.671 55.2849 101.626C55.1703 98.7754 54.5158 91.8328 54.9187 89.5096C55.077 88.5984 55.7019 88.3523 55.9621 89.1988C56.3028 90.307 55.5224 91.9649 56.3749 92.9465L56.3763 92.9479Z" fill="#010305"/>
<path d="M56.7402 94.3951C56.8603 96.5467 57.1473 95.9448 58.1992 97.6464L58.9216 95.118C58.7435 97.1908 58.5668 98.5014 58.1949 100.542C58.0069 101.664 57.5884 102.248 56.9395 102.291L56.7402 98.0106C56.6596 97.3792 56.398 96.4722 56.3768 96.2022C56.292 95.132 56.4546 94.0197 56.3768 92.9481C56.333 92.3518 56.4221 91.7359 56.3768 91.1396C57.0738 91.8723 56.6822 93.3573 56.7402 94.3937V94.3951Z" fill="#C0C3CA"/>
<path d="M56.7421 98.0107C56.8934 99.1962 57.3939 100.559 57.1069 101.986L58.1955 100.542C58.1404 100.846 58.1701 104.787 57.1097 103.795C56.4622 103.189 56.8482 99.1161 56.7407 98.0107H56.7421Z" fill="#8B9097"/>
<path d="M58.9243 101.263C59.1731 100.642 58.3164 98.3564 59.4615 98.3761C60.3663 99.1059 60.3989 101.324 58.9243 101.263Z" fill="#010305"/>
</g>
<defs>
<clipPath id="clip0_3019_21763">
<rect width="115" height="120" fill="white"/>
</clipPath>
</defs>
</svg>
