<svg width="36" height="36" viewBox="0 0 36 36" fill="none" xmlns="http://www.w3.org/2000/svg">
<circle cx="18" cy="18" r="18" fill="#F2F2F2"/>
<path d="M16.9688 5.80078C16.3425 5.80078 15.8304 6.40078 15.8304 7.13407V11.8008C15.8304 12.1741 15.5802 12.4676 15.2609 12.4676C14.9416 12.4676 14.692 12.1741 14.692 11.8008V7.13407C14.692 6.40078 14.1798 5.80078 13.5536 5.80078C12.9273 5.80078 12.4152 6.40078 12.4152 7.13407V11.8008C12.4152 12.1741 12.165 12.4676 11.8457 12.4676C11.5264 12.4676 11.2768 12.1741 11.2768 11.8008V7.13407C11.2768 6.40078 10.7646 5.80078 10.1384 5.80078C9.51214 5.80078 9 6.40078 9 7.13407V10.0274C9 12.4008 9.95625 14.6409 11.5714 16.0676L12.2925 16.6955L11.483 27.1436C11.3721 28.5712 12.3311 29.8008 13.5536 29.8008C14.7761 29.8008 15.735 28.5712 15.6241 27.1436L14.813 16.6955L15.5357 16.0676C17.1509 14.6409 18.1071 12.4008 18.1071 10.0274V7.13407C18.1071 6.40078 17.595 5.80078 16.9688 5.80078Z" fill="#27498C"/>
<path d="M26.1434 5.80078V19.0865H19.8434C19.8434 19.0865 18.2684 5.80078 26.1434 5.80078Z" fill="#27498C"/>
<path d="M22.8864 19.5156L22.0357 28.0245C22.0138 28.2453 22.0479 28.4675 22.136 28.6775C22.224 28.8876 22.3641 29.0813 22.5479 29.2469C22.7318 29.4126 22.9555 29.5469 23.2058 29.6418C23.4561 29.7366 23.7277 29.7901 24.0044 29.7989C24.2811 29.8077 24.5572 29.7718 24.8161 29.6932C25.0751 29.6146 25.3115 29.495 25.5112 29.3415C25.711 29.1881 25.87 29.004 25.9786 28.8002C26.0873 28.5964 26.1434 28.3772 26.1436 28.1556V19.5156H22.8864Z" fill="#27498C"/>
</svg>
