<svg width="36" height="36" viewBox="0 0 36 36" fill="none" xmlns="http://www.w3.org/2000/svg">
<circle cx="18" cy="18" r="18" fill="#27498C"/>
<path d="M27.9539 26.6307L24.7835 20.3644C24.5106 19.8439 23.9659 19.4976 23.3719 19.4976H17.5014V13.8757C17.5014 13.0089 16.7836 12.291 15.9167 12.291C15.0499 12.291 14.332 13.0089 14.332 13.8757V21.0834C14.332 21.9502 15.0499 22.6681 15.9167 22.6681H22.4054L25.1298 28.0675C25.4026 28.6122 25.9715 28.9344 26.5413 28.9344C26.789 28.9344 27.0367 28.885 27.2592 28.7612C28.0273 28.3645 28.3495 27.4231 27.9539 26.6307Z" fill="#F2F2F2"/>
<path d="M20.0028 25.3684C18.9135 26.3098 17.5261 26.8544 16.0894 26.8544C12.8204 26.8544 10.1946 24.2046 10.1946 20.9597C10.1946 19.1273 11.0363 17.4177 12.4981 16.2792C13.1918 15.7345 13.3156 14.7438 12.771 14.0502C12.2263 13.3565 11.2356 13.2327 10.5419 13.7773C8.28773 15.511 7 18.1115 7 20.9345C7 25.9372 11.0613 29.9997 16.0652 29.9997C18.2691 29.9997 20.3742 29.2074 22.0586 27.7455C22.7271 27.1757 22.7764 26.185 22.2076 25.5165C21.6619 24.8731 20.6471 24.8228 20.0028 25.3684Z" fill="#F2F2F2"/>
<path d="M18.5926 8.7001C18.5926 10.1909 17.3832 11.3992 15.8925 11.3992C14.4016 11.3992 13.1934 10.1908 13.1934 8.7001C13.1934 7.20935 14.4017 6 15.8925 6C17.3833 6 18.5926 7.20932 18.5926 8.7001Z" fill="#F2F2F2"/>
</svg>
