<svg width="36" height="36" viewBox="0 0 36 36" fill="none" xmlns="http://www.w3.org/2000/svg">
<circle cx="18" cy="18" r="18" fill="#F2F2F2"/>
<path d="M19.6016 7.20117V29.0232H17.5508V7.20117H19.6016Z" fill="#27498C"/>
<path d="M11.0805 10.596C12.078 10.6013 12.8832 9.7963 12.8779 8.7984C12.8832 7.8098 12.078 7.00488 11.0805 7.00098C10.0923 7.0048 9.28702 7.8098 9.2832 8.79808C9.28703 9.79628 10.0923 10.601 11.0805 10.596Z" fill="#27498C"/>
<path d="M10.8144 22.0063V28.2907C10.8199 29.4246 9.12428 29.4246 9.12358 28.2907V22.0063H6.87357L9.28318 13.6584H8.89724L7.48559 18.4248C7.14981 19.4664 5.72349 19.0392 6.04755 17.9326L7.61879 12.753C7.79036 12.1602 8.537 11.1135 9.829 11.1152H12.3056C13.5836 11.1138 14.3328 12.1686 14.529 12.753L16.1 17.9186C16.4144 19.0333 14.9992 19.4944 14.6617 18.4111L13.251 13.6583H12.838L15.261 22.0059H13.0112V28.3035C13.0105 29.424 11.3218 29.4183 11.3204 28.3035V22.0059L10.8144 22.006L10.8144 22.0063Z" fill="#27498C"/>
<path d="M23.9153 11.1016C22.6517 11.1066 21.6343 12.1533 21.6387 13.4582V19.0234C21.6344 20.1046 23.1953 20.1046 23.1965 19.0234V13.938H23.569V28.037C23.5645 29.4792 25.6432 29.436 25.6462 28.037V19.7824H26.0058V28.037C26.001 29.436 28.0912 29.4792 28.0954 28.037V13.938H28.4554V19.0234C28.452 20.1135 30.0046 20.113 30 19.0234V13.4986C30.0019 12.288 29.0803 11.109 27.6964 11.115L23.9153 11.1016Z" fill="#27498C"/>
<path d="M25.8184 10.596C26.8062 10.6013 27.6114 9.7963 27.6157 8.7984C27.6115 7.8098 26.8062 7.00488 25.8184 7.00098C24.8203 7.0048 24.015 7.8098 24.0215 8.79808C24.015 9.79628 24.8202 10.601 25.8184 10.596Z" fill="#27498C"/>
</svg>
