<svg width="36" height="36" viewBox="0 0 36 36" fill="none" xmlns="http://www.w3.org/2000/svg">
<circle cx="18" cy="18" r="18" fill="#F2F2F2"/>
<path d="M11.3856 11.843H20.2426V8.12337C20.2426 7.96563 20.3371 7.82899 20.4737 7.7697L23.5191 6.05057C23.704 5.94607 23.9381 6.01238 24.0426 6.19626C24.1471 6.38113 24.0808 6.61524 23.8969 6.71974L21.0143 8.34743V11.844H23.7081C23.9211 11.844 24.094 12.0169 24.094 12.2299L23.8207 15.9958C23.8207 16.0169 23.8187 16.035 23.8157 16.054L23.3796 22.0585C23.3796 22.0766 23.3776 22.0937 23.3756 22.1118L22.829 29.6423C22.8139 29.8452 22.6451 30.001 22.4452 30L12.6468 30.001C12.4358 30.001 12.2649 29.8322 12.2609 29.6222L11.7133 22.0834L11.2753 16.0429L11.2723 16.0048L11.001 12.2571C10.9859 12.0451 11.1457 11.8602 11.3848 11.8442L11.3856 11.843ZM12.0176 15.6099H23.0758L23.2929 12.6146H11.7994L12.0164 15.6099H12.0176Z" fill="#27498C"/>
</svg>
