<svg width="36" height="36" viewBox="0 0 36 36" fill="none" xmlns="http://www.w3.org/2000/svg">
<circle cx="18" cy="18" r="18" fill="#27498C"/>
<path d="M16.9688 5.7998C16.3425 5.7998 15.8304 6.3998 15.8304 7.13309V11.7998C15.8304 12.1731 15.5802 12.4667 15.2609 12.4667C14.9416 12.4667 14.692 12.1731 14.692 11.7998V7.13309C14.692 6.3998 14.1798 5.7998 13.5536 5.7998C12.9273 5.7998 12.4152 6.3998 12.4152 7.13309V11.7998C12.4152 12.1731 12.165 12.4667 11.8457 12.4667C11.5264 12.4667 11.2768 12.1731 11.2768 11.7998V7.13309C11.2768 6.3998 10.7646 5.7998 10.1384 5.7998C9.51214 5.7998 9 6.3998 9 7.13309V10.0264C9 12.3998 9.95625 14.6399 11.5714 16.0667L12.2925 16.6945L11.483 27.1427C11.3721 28.5702 12.3311 29.7998 13.5536 29.7998C14.7761 29.7998 15.735 28.5702 15.6241 27.1427L14.813 16.6945L15.5357 16.0667C17.1509 14.6399 18.1071 12.3998 18.1071 10.0264V7.13309C18.1071 6.3998 17.595 5.7998 16.9688 5.7998Z" fill="#F2F2F2"/>
<path d="M26.1434 5.7998V19.0855H19.8434C19.8434 19.0855 18.2684 5.7998 26.1434 5.7998Z" fill="#F2F2F2"/>
<path d="M22.8864 19.5146L22.0357 28.0235C22.0138 28.2444 22.0479 28.4665 22.136 28.6765C22.224 28.8866 22.3641 29.0803 22.5479 29.246C22.7318 29.4117 22.9555 29.546 23.2058 29.6408C23.4561 29.7356 23.7277 29.7891 24.0044 29.7979C24.2811 29.8067 24.5572 29.7708 24.8161 29.6922C25.0751 29.6136 25.3115 29.494 25.5112 29.3406C25.711 29.1871 25.87 29.003 25.9786 28.7992C26.0873 28.5954 26.1434 28.3762 26.1436 28.1546V19.5146H22.8864Z" fill="#F2F2F2"/>
</svg>
