<svg width="36" height="36" viewBox="0 0 36 36" fill="none" xmlns="http://www.w3.org/2000/svg">
<circle cx="18" cy="18" r="18" fill="#27498C"/>
<path d="M11.3856 11.842H20.2426V8.12239C20.2426 7.96465 20.3371 7.82801 20.4737 7.76872L23.5191 6.04959C23.704 5.9451 23.9381 6.01141 24.0426 6.19528C24.1471 6.38015 24.0808 6.61426 23.8969 6.71877L21.0143 8.34646V11.8431H23.7081C23.9211 11.8431 24.094 12.0159 24.094 12.2289L23.8207 15.9948C23.8207 16.0159 23.8187 16.034 23.8157 16.0531L23.3796 22.0575C23.3796 22.0756 23.3776 22.0927 23.3756 22.1108L22.829 29.6413C22.8139 29.8443 22.6451 30 22.4452 29.999L12.6468 30C12.4358 30 12.2649 29.8312 12.2609 29.6212L11.7133 22.0824L11.2753 16.042L11.2723 16.0038L11.001 12.2561C10.9859 12.0441 11.1457 11.8593 11.3848 11.8432L11.3856 11.842ZM12.0176 15.6089H23.0758L23.2929 12.6137H11.7994L12.0164 15.6089H12.0176Z" fill="#F2F2F2"/>
</svg>
