<svg width="25" height="24" viewBox="0 0 25 24" fill="none" xmlns="http://www.w3.org/2000/svg">
<path fill-rule="evenodd" clip-rule="evenodd" d="M6.55859 2L17.8086 2C20.2248 2 22.1836 3.95874 22.1836 6.37498L22.1836 17.625C22.1836 20.0413 20.2248 22 17.8086 22H6.55859C4.14235 22 2.18359 20.0413 2.18359 17.625L2.18359 6.37498C2.18359 3.95874 4.14235 2 6.55859 2ZM17.8086 4L6.55859 4C5.24691 4 4.18359 5.06332 4.18359 6.37498V17.625C4.18359 18.9367 5.24691 20 6.55859 20H17.8086C19.1203 20 20.1836 18.9367 20.1836 17.625L20.1836 6.37498C20.1836 5.06332 19.1203 4 17.8086 4ZM12.1836 7.62507C12.7359 7.62507 13.1836 8.07279 13.1836 8.62507V8.66462C13.1836 9.21691 12.7359 9.66462 12.1836 9.66462C11.6313 9.66462 11.1836 9.21691 11.1836 8.66462V8.62507C11.1836 8.07279 11.6313 7.62507 12.1836 7.62507ZM12.1836 11.0001C12.7359 11.0001 13.1836 11.4478 13.1836 12.0001L13.1836 16.5C13.1836 17.0523 12.7359 17.5 12.1836 17.5C11.6313 17.5 11.1836 17.0523 11.1836 16.5V12.0001C11.1836 11.4478 11.6313 11.0001 12.1836 11.0001Z" fill="black"/>
</svg>
