<svg width="19" height="24" viewBox="0 0 19 24" fill="none" xmlns="http://www.w3.org/2000/svg">
<path fill-rule="evenodd" clip-rule="evenodd" d="M13.6864 18.3701C13.9767 18.2063 14.239 18.0251 14.4603 17.8294L13.4484 16.381C13.4387 16.3878 13.429 16.3946 13.4192 16.4013C13.3731 16.4334 13.3266 16.4645 13.2797 16.4948C13.1472 16.5806 13.0122 16.6595 12.8754 16.7319C12.868 16.7358 12.8606 16.7397 12.8532 16.7436C12.8268 16.7574 12.8003 16.7709 12.7738 16.7843C12.263 17.0408 11.7289 17.2085 11.2009 17.3056C10.8368 17.3726 10.4755 17.406 10.1267 17.4118C10.0896 17.4124 10.0527 17.4127 10.0159 17.4127C9.5404 17.4127 9.09017 17.3716 8.66667 17.2931C7.9909 17.1678 7.3832 16.9471 6.84961 16.6457C5.26761 15.7518 4.33712 14.1478 4.21593 12.2143C4.20692 12.0706 4.20238 11.925 4.20238 11.7778C4.20238 9.47554 5.26312 7.68212 6.9127 6.72727C7.68268 6.28157 8.58095 6.01858 9.55952 5.97182C9.65794 5.96712 9.75716 5.96461 9.85714 5.96431C9.86375 5.96429 9.87037 5.96429 9.87698 5.96429C10.2412 5.96429 10.5929 5.99267 10.9295 6.04762C10.9837 6.05645 11.0374 6.06597 11.0907 6.07617C11.2382 6.10437 11.3826 6.13776 11.5238 6.17619C12.3229 6.39369 13.0174 6.77242 13.5675 7.28344C13.6034 7.31684 13.6387 7.3508 13.6734 7.38531C13.9216 7.6321 14.1376 7.90735 14.3175 8.20811C14.7155 8.87367 14.9365 9.66417 14.9365 10.5476C14.9365 11.0986 14.8568 11.5954 14.7207 12.0225C14.645 12.2604 14.5517 12.4767 14.4449 12.6687C14.3535 12.8332 14.2522 12.9799 14.1435 13.1071C14.1172 13.1379 14.0906 13.1675 14.0635 13.196C14.0491 13.211 14.0347 13.2258 14.0202 13.2402C13.7315 13.526 13.4014 13.6825 13.0714 13.6825C12.9916 13.6825 12.9184 13.667 12.8532 13.6392C12.8401 13.6337 12.8274 13.6277 12.815 13.6212C12.8071 13.617 12.7994 13.6127 12.7918 13.6083C12.7857 13.6047 12.7797 13.601 12.7738 13.5971C12.7688 13.5939 12.7638 13.5906 12.7589 13.5872C12.6399 13.5045 12.5592 13.3759 12.529 13.2332C12.5286 13.2309 12.5281 13.2287 12.5277 13.2264C12.5199 13.1875 12.5159 13.1475 12.5159 13.1071C12.5159 13.0278 12.5159 12.9484 12.5357 12.869L13.5675 8.04762H11.5238L11.3651 8.84127C11.3623 8.8346 11.3595 8.82796 11.3566 8.82136C11.1945 8.44813 10.8904 8.17978 10.5375 8.01048C10.328 7.90995 10.1013 7.84435 9.87698 7.81245C9.83719 7.80679 9.79747 7.8022 9.75794 7.79865C9.6911 7.79266 9.62479 7.78968 9.55952 7.78968C9.5516 7.78968 9.54369 7.78971 9.53577 7.78976C9.25949 7.79162 8.98821 7.82593 8.7255 7.89007C7.1303 8.27959 5.85113 9.76947 5.68818 11.7778C5.67658 11.9207 5.67064 12.0663 5.67064 12.2143C5.67064 14.1703 6.93719 15.5593 8.54772 15.6246C8.58717 15.6262 8.62682 15.627 8.66667 15.627C8.83966 15.627 9.01265 15.6127 9.18254 15.5842C9.20623 15.5802 9.22985 15.576 9.25341 15.5715C9.44231 15.5351 9.6268 15.481 9.80251 15.409C10.2584 15.2223 10.6553 14.9156 10.9173 14.4888C10.9279 14.4716 10.9383 14.4541 10.9484 14.4365C10.9705 14.5137 11.0006 14.5917 11.039 14.6688C11.091 14.7729 11.1581 14.8753 11.241 14.9718C11.3029 15.0437 11.3736 15.1124 11.4535 15.1761C11.5921 15.2867 11.7583 15.3821 11.9533 15.453C11.9925 15.4673 12.0329 15.4806 12.0744 15.4928C12.0849 15.4959 12.0955 15.4989 12.1061 15.5019C12.2537 15.5428 12.4159 15.5704 12.593 15.5817C12.6516 15.5854 12.7119 15.5873 12.7738 15.5873H12.8532C12.8652 15.5871 12.8772 15.5868 12.8893 15.5864C12.95 15.5845 13.0107 15.581 13.0714 15.5757C13.6904 15.5222 14.3077 15.2935 14.8635 14.9143C15.6132 14.4029 16.251 13.6177 16.6296 12.6195C16.8648 11.9996 17 11.2975 17 10.5278C17 9.15149 16.5894 7.90216 15.864 6.87346C15.6566 6.57942 15.4236 6.30341 15.167 6.04762C15.1289 6.00963 15.0903 5.9721 15.0512 5.93501C13.7811 4.73123 11.973 4.00458 9.87698 4.00002C9.87037 4.00001 9.86376 4 9.85714 4C8.3968 4 7.0232 4.36749 5.84549 5.03434C3.55094 6.33359 2 8.76919 2 11.8373C2 14.8544 3.5136 17.1949 5.90859 18.4113C7.08885 19.0108 8.48317 19.3373 10.0159 19.3373C10.8552 19.3373 11.8334 19.1479 12.712 18.819C13.057 18.6899 13.3866 18.5392 13.6864 18.3701ZM16.0125 16.5589C17.7876 15.3323 19 13.1195 19 10.5278C19 5.53535 14.9241 2 9.85714 2C4.5109 2 0 6.02706 0 11.8373C0 14.6155 1.05369 17.0348 2.91148 18.747C4.75454 20.4455 7.26483 21.3373 10.0159 21.3373C11.0029 21.3373 12.0684 21.1444 13.0364 20.8247C13.9894 20.51 14.9999 20.0223 15.7855 19.3274L17.1211 18.1458L16.0125 16.5589ZM10.6949 12.4328C10.6977 12.4256 10.7005 12.4183 10.7033 12.4109C10.8416 12.0457 10.9223 11.6164 10.9286 11.1429C10.9286 11.0543 10.9239 10.969 10.9146 10.8871C10.9025 10.7807 10.8826 10.6802 10.8552 10.5863C10.705 10.0714 10.3279 9.75397 9.75794 9.75397C9.7086 9.75397 9.65999 9.75604 9.61214 9.7601C9.6022 9.76095 9.5923 9.76188 9.58242 9.7629C9.57477 9.76368 9.56714 9.76452 9.55952 9.76542C9.47939 9.77479 9.40148 9.78984 9.32598 9.81022C8.47736 10.0393 7.93254 10.9418 7.93254 12.0357C7.93254 12.8376 8.189 13.437 8.76872 13.6224C8.89186 13.6618 9.02959 13.6825 9.18254 13.6825C9.30828 13.6825 9.43038 13.6649 9.5477 13.6311C9.94289 13.5171 10.284 13.2186 10.5284 12.7864C10.5839 12.6883 10.6344 12.5832 10.6794 12.4718C10.6847 12.4589 10.6898 12.4459 10.6949 12.4328Z" fill="#0D0D0D"/>
</svg>
