<svg width="23" height="28" viewBox="0 0 23 28" fill="none" xmlns="http://www.w3.org/2000/svg">
<path fill-rule="evenodd" clip-rule="evenodd" d="M2.38367 6.00608C3.58988 4.75917 5.22565 4.0587 6.93124 4.0587C8.63333 4.0587 10.2659 4.7563 11.4714 5.99842C12.0586 5.37819 12.7576 4.88268 13.529 4.53999C14.3138 4.19141 15.1578 4.00793 16.0119 4.00025C16.866 3.99258 17.713 4.16086 18.5034 4.49529C19.2939 4.82972 20.0121 5.32359 20.616 5.9481C21.22 6.5726 21.6976 7.31522 22.021 8.13263C22.3444 8.95004 22.5072 9.82587 22.4998 10.709C22.4923 11.5922 22.3149 12.4649 21.9778 13.2764C21.643 14.0822 21.1575 14.8115 20.5492 15.4224L12.8094 23.4269C12.4546 23.7939 11.9734 24 11.4716 24C10.9698 24 10.4886 23.7939 10.1338 23.4269L2.38337 15.4114C1.17751 14.1641 0.5 12.4726 0.5 10.7089C0.5 8.94525 1.17781 7.25337 2.38367 6.00608ZM19.222 14.0283C19.6557 13.5952 20.0016 13.0771 20.2396 12.5043C20.4775 11.9315 20.6028 11.3154 20.608 10.692C20.6132 10.0686 20.4984 9.45039 20.2701 8.87339C20.0418 8.29639 19.7046 7.77219 19.2783 7.33137C18.852 6.89054 18.3451 6.54193 17.7871 6.30586C17.2291 6.06979 16.6312 5.951 16.0283 5.95642C15.4255 5.96184 14.8297 6.09135 14.2757 6.33741C13.7218 6.58347 13.2208 6.94114 12.802 7.38956L11.4716 8.76402L10.1413 7.38956C9.28984 6.50939 8.13518 6.01494 6.93124 6.01494C5.72729 6.01494 4.57263 6.50939 3.72119 7.38956C2.87 8.27 2.39183 9.46397 2.39183 10.7089C2.39183 11.9539 2.87 13.1478 3.72119 14.0283L11.4716 22.0438L19.222 14.0283Z" fill="#0D0D0D"/>
</svg>
