<svg width="25" height="24" viewBox="0 0 25 24" fill="none" xmlns="http://www.w3.org/2000/svg">
<path fill-rule="evenodd" clip-rule="evenodd" d="M3.5 7C3.5 6.44772 3.94772 6 4.5 6H20.5C21.0523 6 21.5 6.44772 21.5 7C21.5 7.55228 21.0523 8 20.5 8H4.5C3.94772 8 3.5 7.55228 3.5 7ZM5.96154 12C5.96154 11.4477 6.40925 11 6.96154 11H18.0385C18.5907 11 19.0385 11.4477 19.0385 12C19.0385 12.5523 18.5907 13 18.0385 13H6.96154C6.40925 13 5.96154 12.5523 5.96154 12ZM9.65385 17C9.65385 16.4477 10.1016 16 10.6538 16H14.3462C14.8984 16 15.3462 16.4477 15.3462 17C15.3462 17.5523 14.8984 18 14.3462 18H10.6538C10.1016 18 9.65385 17.5523 9.65385 17Z" fill="#0D0D0D"/>
</svg>
