<svg width="25" height="24" viewBox="0 0 25 24" fill="none" xmlns="http://www.w3.org/2000/svg">
<path d="M23.242 7.62074C23.075 6.28839 22.418 5.063 21.396 4.17347C20.3731 3.28392 19.0541 2.79105 17.6872 2.78909H6.58941C5.19944 2.78516 3.85745 3.29081 2.82759 4.20587C1.79663 5.12192 1.15163 6.38262 1.01664 7.74036L0.166667 16.0829C0.0556705 17.1767 0.455657 18.2607 1.25464 19.0305C2.05362 19.8003 3.16458 20.1734 4.27664 20.0438C5.38862 19.9151 6.38059 19.2976 6.97352 18.3658L9.88852 13.7854H14.4083L17.3243 18.3658H17.3233C17.9173 19.2976 18.9093 19.9142 20.0202 20.0438C21.1322 20.1734 22.2432 19.8003 23.0422 19.0305C23.8412 18.2608 24.2412 17.1768 24.1302 16.0829C24.1302 16.0829 23.2532 7.66068 23.2422 7.62047L23.242 7.62074ZM9.44447 12.2147C9.16948 12.2147 8.91249 12.3541 8.7665 12.5839L5.6165 17.5332V17.5322C5.10152 18.3422 4.08554 18.6967 3.16558 18.3884C2.24561 18.0801 1.66261 17.1896 1.75961 16.2391L2.60958 7.89655C2.70458 6.92649 3.16558 6.02615 3.90255 5.37224C4.63853 4.71832 5.59651 4.35701 6.58946 4.35997H17.6873C19.1172 4.35997 20.4372 5.10814 21.1521 6.32365C21.8661 7.53915 21.8661 9.03547 21.1521 10.251C20.4372 11.4665 19.1172 12.2147 17.6873 12.2147L9.44447 12.2147ZM22.0071 17.8228C21.5661 18.3 20.9231 18.5474 20.2701 18.4904C19.6161 18.4335 19.0281 18.0791 18.6801 17.5322L16.2952 13.7855H17.6872C19.3991 13.7846 21.0151 13.0138 22.0741 11.6942L22.5371 16.2391C22.5991 16.8175 22.406 17.3938 22.0071 17.8228ZM10.1485 8.28707C10.1485 8.49522 10.0645 8.69552 9.91446 8.84278C9.76446 8.99006 9.56047 9.07253 9.34849 9.07253H8.54851V9.858C8.54851 10.292 8.19053 10.6435 7.74853 10.6435C7.30653 10.6435 6.94855 10.292 6.94855 9.858V9.07253H6.14857C5.70657 9.07253 5.34859 8.72105 5.34859 8.28706C5.34859 7.85308 5.70657 7.50159 6.14857 7.50159H6.94855V6.71612C6.94855 6.28214 7.30653 5.93065 7.74853 5.93065C8.19053 5.93065 8.54851 6.28214 8.54851 6.71612V7.50159H9.34849C9.56048 7.50159 9.76447 7.58407 9.91446 7.73134C10.0645 7.87862 10.1485 8.07893 10.1485 8.28707ZM18.1482 9.07254H14.9483C14.5063 9.07254 14.1483 8.72106 14.1483 8.28707C14.1483 7.85309 14.5063 7.5016 14.9483 7.5016H18.1482C18.5902 7.5016 18.9482 7.85309 18.9482 8.28707C18.9482 8.72106 18.5902 9.07254 18.1482 9.07254Z" fill="black"/>
</svg>
