<svg width="17" height="24" viewBox="0 0 17 24" fill="none" xmlns="http://www.w3.org/2000/svg">
<path fill-rule="evenodd" clip-rule="evenodd" d="M6.32514 16.6574H10.7738V21.1973H6.32514V16.6574ZM10.6789 14.6574C10.8407 13.6042 11.6643 12.8692 12.5498 12.0789C13.7208 11.0339 15 9.8922 15 7.79019C15 5.00258 13.097 3.19727 9.24149 3.19727C5.88027 3.19727 2.64263 5.24151 2.00004 8.24151L5.23769 11.2681C5.42413 10.492 5.73023 9.85228 6.10379 9.33993C6.91866 8.22229 8.05453 7.71054 8.96963 7.71054C9.80993 7.71054 10.2301 8.05567 10.2301 8.66629C10.2301 9.27482 9.6306 9.86188 8.91378 10.5639C8.17487 11.2875 7.31128 12.1332 6.85107 13.2504C6.67532 13.677 6.5584 14.1433 6.52972 14.6574C6.52518 14.7388 6.52286 14.8214 6.52286 14.9052V15.2504H10.6502V15.038C10.6502 14.9064 10.6601 14.7798 10.6789 14.6574ZM4.57218 15.6938C4.5399 15.5512 4.52286 15.4028 4.52286 15.2504V14.9052C4.52286 14.2908 4.60872 13.7261 4.7532 13.2085C4.42885 13.1275 4.12452 12.9652 3.8719 12.7291L0.634261 9.70255C0.121201 9.22294 -0.102695 8.50937 0.044402 7.82262C0.942391 3.63024 5.24416 1.19727 9.24149 1.19727C11.4512 1.19727 13.4101 1.71201 14.8486 2.91327C16.3383 4.1574 17 5.91187 17 7.79019C17 10.6474 15.3079 12.2847 14.1658 13.3164C14.0484 13.4224 13.9402 13.5193 13.84 13.609C13.3999 14.0031 13.1144 14.2587 12.8872 14.5406C12.6671 14.8138 12.6502 14.9402 12.6502 15.038V15.2504C12.6502 15.4374 12.6246 15.6185 12.5765 15.7902C12.703 16.0526 12.7738 16.3467 12.7738 16.6574V21.1973C12.7738 22.3018 11.8784 23.1973 10.7738 23.1973H6.32514C5.22057 23.1973 4.32514 22.3018 4.32514 21.1973V16.6574C4.32514 16.3081 4.41473 15.9796 4.57218 15.6938ZM9.04738 9.71473C9.04719 9.71493 9.04236 9.7145 9.03347 9.71283C9.04312 9.7137 9.04757 9.71454 9.04738 9.71473Z" fill="#0D0D0D"/>
</svg>
