<svg width="25" height="25" viewBox="0 0 25 25" fill="none" xmlns="http://www.w3.org/2000/svg">
<path fill-rule="evenodd" clip-rule="evenodd" d="M12.5727 4.91454C12.4948 4.86182 12.3802 4.86182 12.3023 4.91453L4.50226 10.1894C4.44938 10.2252 4.4375 10.2671 4.4375 10.2911V20.1632C4.4375 20.5096 4.74773 20.875 5.2375 20.875H8.4375V15.0278C8.4375 13.7985 9.47042 12.8866 10.6375 12.8866H14.2375C15.4046 12.8866 16.4375 13.7985 16.4375 15.0278V20.875H19.6375C20.1273 20.875 20.4375 20.5096 20.4375 20.1632V10.2911C20.4375 10.2671 20.4256 10.2252 20.3727 10.1894L12.5727 4.91454ZM19.6375 22.875C21.136 22.875 22.4375 21.7076 22.4375 20.1632V10.2911C22.4375 9.57616 22.0733 8.92505 21.4931 8.53267L13.6931 3.25781C12.9384 2.7474 11.9366 2.7474 11.1819 3.25781L3.38188 8.53267C2.80166 8.92505 2.4375 9.57617 2.4375 10.2911V20.1632C2.4375 21.7076 3.73905 22.875 5.2375 22.875H19.6375ZM14.4375 20.875V15.0278C14.4375 15.0055 14.4297 14.9767 14.3969 14.9455C14.3632 14.9135 14.3091 14.8866 14.2375 14.8866H10.6375C10.5659 14.8866 10.5118 14.9135 10.4781 14.9455C10.4453 14.9767 10.4375 15.0055 10.4375 15.0278V20.875H14.4375Z" fill="black"/>
</svg>
