<svg width="15" height="24" viewBox="0 0 15 24" fill="none" xmlns="http://www.w3.org/2000/svg">
<path fill-rule="evenodd" clip-rule="evenodd" d="M7.5 3C4.73858 3 2.5 5.23858 2.5 8C2.5 10.0488 3.73238 11.8119 5.50037 12.5844C5.8646 12.7435 6.1 13.1033 6.1 13.5007V17C6.1 17.1105 6.18954 17.2 6.3 17.2H8.7C8.81046 17.2 8.9 17.1105 8.9 17V13.4C8.9 13.0025 9.1354 12.6428 9.49963 12.4836C11.2862 11.7031 12.5 10.0294 12.5 8C12.5 5.23858 10.2614 3 7.5 3ZM0.5 8C0.5 4.13401 3.63401 1 7.5 1C11.366 1 14.5 4.13401 14.5 8C14.5 10.6496 13.0321 12.8478 10.9 14.0212V17C10.9 18.215 9.91503 19.2 8.7 19.2H6.3C5.08497 19.2 4.1 18.215 4.1 17V14.12C1.95408 12.9254 0.5 10.6334 0.5 8ZM4.1 21.2C4.1 20.6477 4.54772 20.2 5.1 20.2H9.9C10.4523 20.2 10.9 20.6477 10.9 21.2C10.9 21.7523 10.4523 22.2 9.9 22.2H5.1C4.54772 22.2 4.1 21.7523 4.1 21.2Z" fill="black"/>
</svg>
