<svg width="18" height="22" viewBox="0 0 18 22" fill="none" xmlns="http://www.w3.org/2000/svg">
<path fill-rule="evenodd" clip-rule="evenodd" d="M8.51304 2.23047C4.91599 2.23047 2 5.14646 2 8.74351C2 9.7628 2.38847 10.9507 3.0577 12.2148C3.72012 13.466 4.61546 14.7137 5.53048 15.832C6.44284 16.9471 7.35798 17.9134 8.04624 18.6016C8.21744 18.7728 8.37425 18.9265 8.51304 19.0605C8.65184 18.9265 8.80864 18.7728 8.97985 18.6016C9.6681 17.9134 10.5832 16.9471 11.4956 15.832C12.4106 14.7137 13.306 13.466 13.9684 12.2148C14.6376 10.9507 15.0261 9.7628 15.0261 8.74351C15.0261 5.14646 12.1101 2.23047 8.51304 2.23047ZM8.51304 20.4305C7.84868 21.1779 7.84852 21.1777 7.84832 21.1776L7.84622 21.1757L7.84103 21.1711L7.82267 21.1546C7.80694 21.1404 7.78429 21.12 7.75518 21.0934C7.69697 21.0404 7.6129 20.9631 7.50666 20.8636C7.29426 20.6647 6.99284 20.3766 6.63202 20.0158C5.91158 19.2954 4.94846 18.279 3.98256 17.0985C3.01932 15.9212 2.0364 14.5602 1.29013 13.1505C0.550657 11.7538 0 10.2286 0 8.74351C0 4.04189 3.81142 0.230469 8.51304 0.230469C13.2147 0.230469 17.0261 4.04189 17.0261 8.74351C17.0261 10.2286 16.4754 11.7538 15.736 13.1505C14.9897 14.5602 14.0068 15.9212 13.0435 17.0985C12.0776 18.279 11.1145 19.2954 10.3941 20.0158C10.0332 20.3766 9.73183 20.6647 9.51943 20.8636C9.41319 20.9631 9.32912 21.0404 9.27091 21.0934C9.2418 21.12 9.21915 21.1404 9.20341 21.1546L9.18505 21.1711L9.17987 21.1757L9.1783 21.1771C9.1781 21.1773 9.17741 21.1779 8.51304 20.4305ZM8.51304 20.4305L9.17741 21.1779L8.51304 21.7684L7.84832 21.1776L8.51304 20.4305ZM8.51335 7.03062C7.74015 7.03062 7.11335 7.65742 7.11335 8.43062C7.11335 9.20382 7.74015 9.83062 8.51335 9.83062C9.28655 9.83062 9.91335 9.20382 9.91335 8.43062C9.91335 7.65742 9.28655 7.03062 8.51335 7.03062ZM5.11335 8.43062C5.11335 6.55285 6.63558 5.03062 8.51335 5.03062C10.3911 5.03062 11.9134 6.55285 11.9134 8.43062C11.9134 10.3084 10.3911 11.8306 8.51335 11.8306C6.63558 11.8306 5.11335 10.3084 5.11335 8.43062Z" fill="black"/>
</svg>
