<svg width="25" height="24" viewBox="0 0 25 24" fill="none" xmlns="http://www.w3.org/2000/svg">
<path fill-rule="evenodd" clip-rule="evenodd" d="M18.3729 3.5C16.942 3.5 15.8787 4.58361 15.8787 5.80435C15.8787 6.10887 16.0066 6.52921 16.2972 7.04834C16.5799 7.55321 16.9702 8.07012 17.382 8.54618C17.7318 8.9504 18.0837 9.3099 18.3729 9.58956C18.6621 9.3099 19.0141 8.9504 19.3638 8.54618C19.7757 8.07012 20.166 7.55321 20.4486 7.04834C20.7393 6.52921 20.8672 6.10887 20.8672 5.80435C20.8672 4.58361 19.8039 3.5 18.3729 3.5ZM18.3729 10.9444C17.7295 11.7099 17.7293 11.7098 17.7292 11.7097L17.7247 11.7059L17.7149 11.6976L17.681 11.6685C17.6521 11.6437 17.6112 11.608 17.5598 11.5626C17.4571 11.4716 17.3125 11.3409 17.1399 11.1777C16.7958 10.8523 16.3342 10.3918 15.8696 9.85478C15.4079 9.32119 14.9246 8.69075 14.5521 8.02533C14.1875 7.37417 13.8787 6.60127 13.8787 5.80435C13.8787 3.37521 15.9442 1.5 18.3729 1.5C20.8017 1.5 22.8672 3.37521 22.8672 5.80435C22.8672 6.60127 22.5583 7.37417 22.1938 8.02533C21.8212 8.69075 21.338 9.32119 20.8763 9.85478C20.4116 10.3918 19.95 10.8523 19.606 11.1777C19.4333 11.3409 19.2887 11.4716 19.1861 11.5626C19.1347 11.608 19.0937 11.6437 19.0649 11.6685L19.0309 11.6976L19.0212 11.7059L19.0181 11.7085L19.0171 11.7093C19.0169 11.7095 19.0164 11.7099 18.3729 10.9444ZM18.3729 10.9444L19.0171 11.7093C18.6451 12.022 18.1012 12.0224 17.7292 11.7097L18.3729 10.9444ZM2.84411 5.00777C3.59579 4.14961 4.71277 3.61111 5.95035 3.61111H11.089C11.6412 3.61111 12.089 4.05883 12.089 4.61111C12.089 5.1634 11.6412 5.61111 11.089 5.61111H5.95035C5.6588 5.61111 5.38284 5.66772 5.13291 5.76924L19.1117 19.4164C19.2573 19.1444 19.3384 18.8385 19.3384 18.5196V14.049C19.3384 13.4967 19.7862 13.049 20.3384 13.049C20.8907 13.049 21.3384 13.4967 21.3384 14.049V18.5196C21.3384 20.7496 19.4781 22.5 17.2553 22.5H5.95035C3.72751 22.5 1.86719 20.7496 1.86719 18.5196V7.5915C1.86719 6.60258 2.23815 5.69956 2.84411 5.00777ZM17.3564 20.4978L11.6349 14.9121L5.85635 20.4981C5.88747 20.4993 5.91881 20.5 5.95035 20.5H17.2553C17.2892 20.5 17.3229 20.4992 17.3564 20.4978ZM4.09524 19.4188L10.2033 13.5144L3.8832 7.34426C3.87262 7.42532 3.86719 7.50783 3.86719 7.5915V18.5196C3.86719 18.8394 3.94883 19.1462 4.09524 19.4188ZM18.3729 4.81428C18.9252 4.81428 19.3729 5.26199 19.3729 5.81428V5.87778C19.3729 6.43006 18.9252 6.87778 18.3729 6.87778C17.8206 6.87778 17.3729 6.43006 17.3729 5.87778V5.81428C17.3729 5.26199 17.8206 4.81428 18.3729 4.81428Z" fill="black"/>
</svg>
