<svg width="24" height="24" viewBox="0 0 24 24" fill="none" xmlns="http://www.w3.org/2000/svg">
<path d="M2.99961 7.20039L20.9996 7.20039M2.99961 16.8004L20.9996 16.8004M11.9996 2.40039L11.9996 21.6004M16.7996 2.40039L16.7996 7.20039M16.7996 16.8004L16.7996 21.6004M7.19961 2.40039L7.19961 7.20039M7.19961 16.8004L7.19961 21.6004M5.9995 2.40039L17.9996 2.40039C19.9878 2.40039 21.5996 4.01217 21.5996 6.00039L21.5996 18.0004C21.5996 19.9886 19.9878 21.6004 17.9996 21.6004L5.9995 21.6004C4.01127 21.6004 2.3995 19.9886 2.3995 18.0004L2.3995 6.00039C2.3995 4.01216 4.01127 2.40039 5.9995 2.40039Z" stroke="black" stroke-width="2" stroke-linecap="round" stroke-linejoin="round"/>
</svg>
