<svg width="27" height="26" viewBox="0 0 27 26" fill="none" xmlns="http://www.w3.org/2000/svg">
<path fill-rule="evenodd" clip-rule="evenodd" d="M15.1016 4.40457C15.9994 3.5063 17.4553 3.50569 18.3538 4.4032L20.5968 6.64362C21.4957 7.5415 21.4963 8.99815 20.5981 9.89678L10.01 20.4907C9.68965 20.8113 9.28175 21.03 8.83751 21.1195L4.1077 22.0726C3.77933 22.1387 3.43965 22.0361 3.20286 21.7992C2.96607 21.5622 2.86364 21.2225 2.92999 20.8942L3.88473 16.1699C3.97433 15.7266 4.19264 15.3195 4.51236 14.9996L15.1016 4.40457ZM16.9404 5.81822C16.8232 5.70115 16.6333 5.70123 16.5162 5.81839L5.92697 16.4135C5.88526 16.4552 5.85679 16.5083 5.8451 16.5661L5.1886 19.8146L8.44246 19.1589C8.50041 19.1473 8.55361 19.1187 8.5954 19.0769L19.1835 8.48296C19.3007 8.36575 19.3006 8.17575 19.1834 8.05863L16.9404 5.81822ZM17.7768 20.7701C17.3375 20.0794 16.3596 20 15.8146 20.6108L15.0104 21.5121C14.6427 21.9242 14.0106 21.9602 13.5985 21.5925C13.1864 21.2248 13.1504 20.5926 13.5181 20.1805L14.3222 19.2793C15.7505 17.6785 18.3131 17.8866 19.4644 19.6968C19.8737 20.3403 20.7628 20.4623 21.3303 19.9528L22.7879 18.6441C23.1988 18.2752 23.831 18.3092 24.2 18.7201C24.569 19.1311 24.535 19.7633 24.124 20.1323L22.6664 21.441C21.1794 22.7762 18.8493 22.4565 17.7768 20.7701Z" fill="black"/>
</svg>
