<svg width="18" height="20" viewBox="0 0 18 20" fill="none" xmlns="http://www.w3.org/2000/svg">
<path fill-rule="evenodd" clip-rule="evenodd" d="M16 1.15948C17.1046 1.15948 18 2.05491 18 3.15948V5.69133C18 8.19823 16.2955 10.3045 13.9878 10.9266C13.6321 11.4755 13.1884 11.9631 12.676 12.3686C12.8752 12.5995 13.0531 12.8494 13.2066 13.1153C14.1612 13.2666 14.8909 14.0933 14.8909 15.0905V16.762C14.8909 17.8666 13.9955 18.762 12.8909 18.762H5.10922C4.00465 18.762 3.10922 17.8666 3.10922 16.762V15.0907C3.10922 14.0935 3.83896 13.2668 4.79354 13.1154C4.94703 12.8496 5.12492 12.5997 5.32413 12.3687C4.81171 11.9632 4.36803 11.4755 4.01235 10.9266C1.70489 10.3044 0 8.19855 0 5.69133V3.15948C0 2.05491 0.89543 1.15948 2 1.15948H3.23778C3.55532 0.47483 4.24877 0 5.05312 0H12.9469C13.7512 0 14.4447 0.47483 14.7622 1.15948H16ZM12.9469 3.15948V2H5.05312V3.15948H2V5.69133C2 7.35494 3.19295 8.74249 4.76801 9.0499C4.94729 9.08489 5.13151 9.10588 5.31949 9.1117C5.37591 9.2578 5.44074 9.3998 5.51339 9.53707C5.85825 10.1887 6.37932 10.7339 7.01265 11.107C7.25982 11.2525 7.52407 11.3719 7.80163 11.4612C7.80336 11.4617 7.80508 11.4623 7.80681 11.4628C7.93362 11.5034 8.0632 11.5377 8.19518 11.5653C8.19492 11.5653 8.19544 11.5654 8.19518 11.5653L8.19596 12.796C8.1012 12.824 8.00847 12.8569 7.91806 12.8942C7.88148 12.9093 7.84528 12.9252 7.80948 12.9417C7.57427 13.0505 7.35621 13.1903 7.16057 13.3559C6.73112 13.7193 6.40972 14.2069 6.25225 14.762C6.22186 14.8692 6.19757 14.9789 6.17979 15.0907H5.10922V16.762H12.8909V15.0905H11.8204C11.8026 14.9788 11.7783 14.8692 11.7479 14.762C11.5905 14.2069 11.269 13.7193 10.8395 13.3557C10.6439 13.1902 10.4259 13.0504 10.1907 12.9416C10.1549 12.925 10.1187 12.9092 10.0821 12.8941C9.99187 12.8569 9.89933 12.8241 9.80476 12.7961C9.80494 12.7962 9.80457 12.7961 9.80476 12.7961L9.8042 11.5655C9.93645 11.5378 10.0663 11.5033 10.1933 11.4627C10.1952 11.4621 10.197 11.4615 10.1988 11.4609C10.4762 11.3717 10.7404 11.2524 10.9875 11.1068C11.6208 10.7338 12.1419 10.1886 12.4867 9.53706C12.5594 9.39974 12.6243 9.25769 12.6807 9.11153C12.8688 9.10575 13.0531 9.08476 13.2325 9.04975C14.8074 8.74242 16 7.35482 16 5.69133V3.15948H12.9469ZM14.5107 4.64897H12.9469V7.59072C13.5072 7.48103 13.9819 7.12924 14.2566 6.64897C14.4182 6.36649 14.5107 6.03958 14.5107 5.69133V4.64897ZM5.05312 4.64897H3.48933V5.69133C3.48933 6.03956 3.58173 6.36648 3.7433 6.64897C4.01804 7.1293 4.49277 7.48113 5.05328 7.59072L5.05312 4.64897ZM11.1607 5.84879L9.80125 5.44809L9 4.2791L8.19891 5.44809L6.83949 5.84879L7.70373 6.97202L7.66469 8.38885L9 7.914L10.3355 8.38885L10.2964 6.97202L11.1607 5.84879Z" fill="#0D0D0D"/>
</svg>
