<svg width="20" height="25" viewBox="0 0 20 25" fill="none" xmlns="http://www.w3.org/2000/svg">
<path d="M8.89019 16.4082L10.9113 18.4293L9.16466 23.1453C8.96504 23.6694 8.466 23.9937 7.94199 23.9937C7.79228 23.9937 7.64257 23.9688 7.49285 23.9189C6.81914 23.6693 6.4698 22.9208 6.71933 22.2471L8.89019 16.4082Z" fill="#0D0D0D"/>
<path d="M5.12239 11.2424L6.32011 8.94677C6.64449 8.34792 7.11859 7.84887 7.69249 7.49953C10.4622 5.85268 10.8115 5.87763 11.1609 5.90258L13.0323 6.02734C13.6062 6.0523 14.0054 6.20201 15.9268 9.02163C16.0016 9.12144 16.1014 9.1963 16.2512 9.22125L18.5468 9.57058C19.1706 9.67039 19.5948 10.2443 19.495 10.8681C19.3952 11.4919 18.8213 11.9161 18.1975 11.8163L15.9018 11.467C15.1533 11.3422 14.4795 10.943 14.0554 10.3192C13.9555 10.1694 13.8807 10.0447 13.7809 9.91992L12.3087 14.586L14.3548 16.6321C14.6542 16.9315 14.9037 17.3308 15.0534 17.73L16.6254 22.3213C16.875 22.995 16.5007 23.7435 15.827 23.9681C15.6773 24.018 15.5525 24.043 15.4028 24.043C14.8538 24.043 14.3548 23.6936 14.1552 23.1696L12.5832 18.5784C12.5582 18.5285 12.5333 18.5035 12.5083 18.4536L8.86525 14.7856C8.34125 14.2616 8.14163 13.538 8.29135 12.8393L9.08983 9.29611C9.01497 9.34601 8.94011 9.39592 8.8403 9.44582C8.61573 9.57058 8.44106 9.7702 8.3163 9.99477L7.11859 12.2904C6.91897 12.6647 6.51973 12.8893 6.12049 12.8893C5.94582 12.8893 5.77116 12.8393 5.59649 12.7645C5.04754 12.4651 4.84792 11.7913 5.12239 11.2424Z" fill="#0D0D0D"/>
<path d="M14.9865 3.09278C15.1371 1.70913 14.1375 0.465372 12.7538 0.314773C11.3702 0.164173 10.1264 1.16376 9.97581 2.54741C9.82521 3.93106 10.8248 5.17482 12.2084 5.32542C13.5921 5.47602 14.8359 4.47643 14.9865 3.09278Z" fill="#0D0D0D"/>
</svg>
