<svg width="56" height="56" viewBox="0 0 56 56" fill="none" xmlns="http://www.w3.org/2000/svg">
<path fill-rule="evenodd" clip-rule="evenodd" d="M19 22C19 21.4477 19.4477 21 20 21H36C36.5523 21 37 21.4477 37 22C37 22.5523 36.5523 23 36 23H20C19.4477 23 19 22.5523 19 22ZM19 28C19 27.4477 19.4477 27 20 27H36C36.5523 27 37 27.4477 37 28C37 28.5523 36.5523 29 36 29H20C19.4477 29 19 28.5523 19 28ZM20 33C19.4477 33 19 33.4477 19 34C19 34.5523 19.4477 35 20 35H36C36.5523 35 37 34.5523 37 34C37 33.4477 36.5523 33 36 33H20Z" fill="#020617"/>
</svg>
