<svg width="185" height="172" viewBox="0 0 185 172" fill="none" xmlns="http://www.w3.org/2000/svg">
<path d="M37.3297 76.3948L30.2068 80.0718L29.9206 79.5174C27.1463 74.1432 32.3991 68.6226 31.1441 66.1914C30.6376 65.2104 29.6263 65.0302 28.1762 65.7788C25.8729 66.9678 23.6621 70.3239 24.6861 74.819L16.5886 72.841C15.2095 67.4489 19.1015 61.2803 24.9022 58.2858C31.5559 54.8509 36.3374 56.0559 38.6493 60.5343C41.864 66.7615 34.8636 71.6178 37.1535 76.0536L37.3297 76.3948ZM42.475 85.8387L34.7977 89.802L31.0325 82.5085L38.7099 78.5452L42.475 85.8387Z" fill="#F2F2F2"/>
<path d="M152.069 89.6235L147.196 86.1016L147.47 85.7223C150.128 82.0462 155.601 83.6924 156.803 82.0294C157.288 81.3583 157.066 80.6205 156.074 79.9035C154.498 78.7646 151.504 78.4213 148.842 80.6286L147.425 74.5398C150.566 71.7912 156.012 72.3074 159.98 75.1755C164.532 78.4655 165.344 82.0733 163.13 85.1368C160.051 89.3965 154.431 86.3558 152.237 89.3901L152.069 89.6235ZM147.49 96.2644L142.239 92.4683L145.845 87.4792L151.097 91.2753L147.49 96.2644Z" fill="#F2F2F2"/>
<path d="M127.495 45.2393L120.168 41.989L120.421 41.4186C122.873 35.8901 130.467 36.528 131.576 34.027C132.024 33.0178 131.531 32.1165 130.039 31.4548C127.67 30.4038 123.669 30.7819 120.806 34.3953L117.276 26.8437C120.617 22.3916 127.863 21.5628 133.83 24.2098C140.675 27.2461 142.73 31.7284 140.687 36.3355C137.845 42.7415 129.675 40.3251 127.651 44.8883L127.495 45.2393ZM123.355 55.1651L115.457 51.6617L118.785 44.1587L126.683 47.6621L123.355 55.1651Z" fill="#F2F2F2"/>
<path d="M57.0594 32.152L49.4449 34.657L49.2499 34.0642C47.3599 28.3191 53.4194 23.6982 52.5644 21.0992C52.2194 20.0505 51.2493 19.7127 49.699 20.2227C47.2368 21.0327 44.5233 23.9971 44.8239 28.5976L37.1409 25.3646C36.6314 19.8222 41.4495 14.3463 47.6506 12.3064C54.7636 9.96642 59.2945 11.912 60.8695 16.6996C63.0594 23.3566 55.3795 27.0453 56.9395 31.7873L57.0594 32.152ZM60.6474 42.2906L52.4401 44.9905L49.8751 37.1936L58.0824 34.4936L60.6474 42.2906Z" fill="#F2F2F2"/>
</svg>
