<svg width="186" height="171" viewBox="0 0 186 171" fill="none" xmlns="http://www.w3.org/2000/svg">
<path d="M37.5295 76.5614L30.7052 80.0843C27.975 74.7955 22.9441 69.2357 19.3772 62.3261L29.6136 57.0417C33.1586 63.9087 34.7993 71.2725 37.5295 76.5614ZM43.0863 86.2791L35.409 90.2424L31.6438 82.9489L39.3212 78.9856L43.0863 86.2791Z" fill="#F2F2F2"/>
<path d="M152.317 90.3163L147.649 86.942C150.264 83.3242 152.281 78.075 155.698 73.3485L162.7 78.41C159.305 83.1073 154.932 86.6985 152.317 90.3163ZM147.695 97.3252L142.443 93.5292L146.05 88.54L151.301 92.3361L147.695 97.3252Z" fill="#F2F2F2"/>
<path d="M128.042 45.8032L121.022 42.689C123.435 37.2483 124.619 29.8444 127.772 22.7363L138.303 27.4075C135.169 34.4717 130.456 40.3624 128.042 45.8032ZM123.946 56.2211L116.048 52.7177L119.376 45.2148L127.274 48.7182L123.946 56.2211Z" fill="#F2F2F2"/>
<path d="M57.6875 32.6292L50.3921 35.0291C48.5321 29.3752 44.4433 23.0902 42.0134 15.7036L52.9565 12.1037C55.3714 19.4447 55.8275 26.9753 57.6875 32.6292ZM61.6384 43.1031L53.4311 45.803L50.8661 38.0061L59.0734 35.3061L61.6384 43.1031Z" fill="#F2F2F2"/>
</svg>
